<?xml version="1.0" encoding="utf-8" standalone="no"?>
<!DOCTYPE svg PUBLIC "-//W3C//DTD SVG 1.1//EN"
  "http://www.w3.org/Graphics/SVG/1.1/DTD/svg11.dtd">
<svg xmlns:xlink="http://www.w3.org/1999/xlink" width="921.6pt" height="642.96pt" viewBox="0 0 921.6 642.96" xmlns="http://www.w3.org/2000/svg" version="1.1">
 <metadata>
  <rdf:RDF xmlns:dc="http://purl.org/dc/elements/1.1/" xmlns:cc="http://creativecommons.org/ns#" xmlns:rdf="http://www.w3.org/1999/02/22-rdf-syntax-ns#">
   <cc:Work>
    <dc:type rdf:resource="http://purl.org/dc/dcmitype/StillImage"/>
    <dc:date>2024-12-18T18:25:09.257091</dc:date>
    <dc:format>image/svg+xml</dc:format>
    <dc:creator>
     <cc:Agent>
      <dc:title>Matplotlib v3.6.3, https://matplotlib.org/</dc:title>
     </cc:Agent>
    </dc:creator>
   </cc:Work>
  </rdf:RDF>
 </metadata>
 <defs>
  <style type="text/css">*{stroke-linejoin: round; stroke-linecap: butt}</style>
 </defs>
 <g id="figure_1">
  <g id="patch_1">
   <path d="M 0 642.96 
L 921.6 642.96 
L 921.6 0 
L 0 0 
z
" style="fill: #ffffff"/>
  </g>
  <g id="axes_1">
   <g id="patch_2">
    <path d="M 115.2 572.2344 
L 829.44 572.2344 
L 829.44 77.1552 
L 115.2 77.1552 
z
" style="fill: #ffffff"/>
   </g>
   <g id="matplotlib.axis_1">
    <g id="xtick_1">
     <g id="line2d_1">
      <path d="M 115.2 572.2344 
L 115.2 77.1552 
" clip-path="url(#p1771af7b59)" style="fill: none; stroke: #b0b0b0; stroke-width: 0.8; stroke-linecap: square"/>
     </g>
     <g id="line2d_2">
      <defs>
       <path id="mf4921c27f4" d="M 0 0 
L 0 3.5 
" style="stroke: #000000; stroke-width: 0.8"/>
      </defs>
      <g>
       <use xlink:href="#mf4921c27f4" x="115.2" y="572.2344" style="stroke: #000000; stroke-width: 0.8"/>
      </g>
     </g>
     <g id="text_1">
      <!-- 0 -->
      <g transform="translate(112.01875 586.832838) scale(0.1 -0.1)">
       <defs>
        <path id="DejaVuSans-30" d="M 2034 4250 
Q 1547 4250 1301 3770 
Q 1056 3291 1056 2328 
Q 1056 1369 1301 889 
Q 1547 409 2034 409 
Q 2525 409 2770 889 
Q 3016 1369 3016 2328 
Q 3016 3291 2770 3770 
Q 2525 4250 2034 4250 
z
M 2034 4750 
Q 2819 4750 3233 4129 
Q 3647 3509 3647 2328 
Q 3647 1150 3233 529 
Q 2819 -91 2034 -91 
Q 1250 -91 836 529 
Q 422 1150 422 2328 
Q 422 3509 836 4129 
Q 1250 4750 2034 4750 
z
" transform="scale(0.015625)"/>
       </defs>
       <use xlink:href="#DejaVuSans-30"/>
      </g>
     </g>
    </g>
    <g id="xtick_2">
     <g id="line2d_3">
      <path d="M 210.432 572.2344 
L 210.432 77.1552 
" clip-path="url(#p1771af7b59)" style="fill: none; stroke: #b0b0b0; stroke-width: 0.8; stroke-linecap: square"/>
     </g>
     <g id="line2d_4">
      <g>
       <use xlink:href="#mf4921c27f4" x="210.432" y="572.2344" style="stroke: #000000; stroke-width: 0.8"/>
      </g>
     </g>
     <g id="text_2">
      <!-- 20 -->
      <g transform="translate(204.0695 586.832838) scale(0.1 -0.1)">
       <defs>
        <path id="DejaVuSans-32" d="M 1228 531 
L 3431 531 
L 3431 0 
L 469 0 
L 469 531 
Q 828 903 1448 1529 
Q 2069 2156 2228 2338 
Q 2531 2678 2651 2914 
Q 2772 3150 2772 3378 
Q 2772 3750 2511 3984 
Q 2250 4219 1831 4219 
Q 1534 4219 1204 4116 
Q 875 4013 500 3803 
L 500 4441 
Q 881 4594 1212 4672 
Q 1544 4750 1819 4750 
Q 2544 4750 2975 4387 
Q 3406 4025 3406 3419 
Q 3406 3131 3298 2873 
Q 3191 2616 2906 2266 
Q 2828 2175 2409 1742 
Q 1991 1309 1228 531 
z
" transform="scale(0.015625)"/>
       </defs>
       <use xlink:href="#DejaVuSans-32"/>
       <use xlink:href="#DejaVuSans-30" x="63.623047"/>
      </g>
     </g>
    </g>
    <g id="xtick_3">
     <g id="line2d_5">
      <path d="M 305.664 572.2344 
L 305.664 77.1552 
" clip-path="url(#p1771af7b59)" style="fill: none; stroke: #b0b0b0; stroke-width: 0.8; stroke-linecap: square"/>
     </g>
     <g id="line2d_6">
      <g>
       <use xlink:href="#mf4921c27f4" x="305.664" y="572.2344" style="stroke: #000000; stroke-width: 0.8"/>
      </g>
     </g>
     <g id="text_3">
      <!-- 40 -->
      <g transform="translate(299.3015 586.832838) scale(0.1 -0.1)">
       <defs>
        <path id="DejaVuSans-34" d="M 2419 4116 
L 825 1625 
L 2419 1625 
L 2419 4116 
z
M 2253 4666 
L 3047 4666 
L 3047 1625 
L 3713 1625 
L 3713 1100 
L 3047 1100 
L 3047 0 
L 2419 0 
L 2419 1100 
L 313 1100 
L 313 1709 
L 2253 4666 
z
" transform="scale(0.015625)"/>
       </defs>
       <use xlink:href="#DejaVuSans-34"/>
       <use xlink:href="#DejaVuSans-30" x="63.623047"/>
      </g>
     </g>
    </g>
    <g id="xtick_4">
     <g id="line2d_7">
      <path d="M 400.896 572.2344 
L 400.896 77.1552 
" clip-path="url(#p1771af7b59)" style="fill: none; stroke: #b0b0b0; stroke-width: 0.8; stroke-linecap: square"/>
     </g>
     <g id="line2d_8">
      <g>
       <use xlink:href="#mf4921c27f4" x="400.896" y="572.2344" style="stroke: #000000; stroke-width: 0.8"/>
      </g>
     </g>
     <g id="text_4">
      <!-- 60 -->
      <g transform="translate(394.5335 586.832838) scale(0.1 -0.1)">
       <defs>
        <path id="DejaVuSans-36" d="M 2113 2584 
Q 1688 2584 1439 2293 
Q 1191 2003 1191 1497 
Q 1191 994 1439 701 
Q 1688 409 2113 409 
Q 2538 409 2786 701 
Q 3034 994 3034 1497 
Q 3034 2003 2786 2293 
Q 2538 2584 2113 2584 
z
M 3366 4563 
L 3366 3988 
Q 3128 4100 2886 4159 
Q 2644 4219 2406 4219 
Q 1781 4219 1451 3797 
Q 1122 3375 1075 2522 
Q 1259 2794 1537 2939 
Q 1816 3084 2150 3084 
Q 2853 3084 3261 2657 
Q 3669 2231 3669 1497 
Q 3669 778 3244 343 
Q 2819 -91 2113 -91 
Q 1303 -91 875 529 
Q 447 1150 447 2328 
Q 447 3434 972 4092 
Q 1497 4750 2381 4750 
Q 2619 4750 2861 4703 
Q 3103 4656 3366 4563 
z
" transform="scale(0.015625)"/>
       </defs>
       <use xlink:href="#DejaVuSans-36"/>
       <use xlink:href="#DejaVuSans-30" x="63.623047"/>
      </g>
     </g>
    </g>
    <g id="xtick_5">
     <g id="line2d_9">
      <path d="M 496.128 572.2344 
L 496.128 77.1552 
" clip-path="url(#p1771af7b59)" style="fill: none; stroke: #b0b0b0; stroke-width: 0.8; stroke-linecap: square"/>
     </g>
     <g id="line2d_10">
      <g>
       <use xlink:href="#mf4921c27f4" x="496.128" y="572.2344" style="stroke: #000000; stroke-width: 0.8"/>
      </g>
     </g>
     <g id="text_5">
      <!-- 80 -->
      <g transform="translate(489.7655 586.832838) scale(0.1 -0.1)">
       <defs>
        <path id="DejaVuSans-38" d="M 2034 2216 
Q 1584 2216 1326 1975 
Q 1069 1734 1069 1313 
Q 1069 891 1326 650 
Q 1584 409 2034 409 
Q 2484 409 2743 651 
Q 3003 894 3003 1313 
Q 3003 1734 2745 1975 
Q 2488 2216 2034 2216 
z
M 1403 2484 
Q 997 2584 770 2862 
Q 544 3141 544 3541 
Q 544 4100 942 4425 
Q 1341 4750 2034 4750 
Q 2731 4750 3128 4425 
Q 3525 4100 3525 3541 
Q 3525 3141 3298 2862 
Q 3072 2584 2669 2484 
Q 3125 2378 3379 2068 
Q 3634 1759 3634 1313 
Q 3634 634 3220 271 
Q 2806 -91 2034 -91 
Q 1263 -91 848 271 
Q 434 634 434 1313 
Q 434 1759 690 2068 
Q 947 2378 1403 2484 
z
M 1172 3481 
Q 1172 3119 1398 2916 
Q 1625 2713 2034 2713 
Q 2441 2713 2670 2916 
Q 2900 3119 2900 3481 
Q 2900 3844 2670 4047 
Q 2441 4250 2034 4250 
Q 1625 4250 1398 4047 
Q 1172 3844 1172 3481 
z
" transform="scale(0.015625)"/>
       </defs>
       <use xlink:href="#DejaVuSans-38"/>
       <use xlink:href="#DejaVuSans-30" x="63.623047"/>
      </g>
     </g>
    </g>
    <g id="xtick_6">
     <g id="line2d_11">
      <path d="M 591.36 572.2344 
L 591.36 77.1552 
" clip-path="url(#p1771af7b59)" style="fill: none; stroke: #b0b0b0; stroke-width: 0.8; stroke-linecap: square"/>
     </g>
     <g id="line2d_12">
      <g>
       <use xlink:href="#mf4921c27f4" x="591.36" y="572.2344" style="stroke: #000000; stroke-width: 0.8"/>
      </g>
     </g>
     <g id="text_6">
      <!-- 100 -->
      <g transform="translate(581.81625 586.832838) scale(0.1 -0.1)">
       <defs>
        <path id="DejaVuSans-31" d="M 794 531 
L 1825 531 
L 1825 4091 
L 703 3866 
L 703 4441 
L 1819 4666 
L 2450 4666 
L 2450 531 
L 3481 531 
L 3481 0 
L 794 0 
L 794 531 
z
" transform="scale(0.015625)"/>
       </defs>
       <use xlink:href="#DejaVuSans-31"/>
       <use xlink:href="#DejaVuSans-30" x="63.623047"/>
       <use xlink:href="#DejaVuSans-30" x="127.246094"/>
      </g>
     </g>
    </g>
    <g id="xtick_7">
     <g id="line2d_13">
      <path d="M 686.592 572.2344 
L 686.592 77.1552 
" clip-path="url(#p1771af7b59)" style="fill: none; stroke: #b0b0b0; stroke-width: 0.8; stroke-linecap: square"/>
     </g>
     <g id="line2d_14">
      <g>
       <use xlink:href="#mf4921c27f4" x="686.592" y="572.2344" style="stroke: #000000; stroke-width: 0.8"/>
      </g>
     </g>
     <g id="text_7">
      <!-- 120 -->
      <g transform="translate(677.04825 586.832838) scale(0.1 -0.1)">
       <use xlink:href="#DejaVuSans-31"/>
       <use xlink:href="#DejaVuSans-32" x="63.623047"/>
       <use xlink:href="#DejaVuSans-30" x="127.246094"/>
      </g>
     </g>
    </g>
    <g id="xtick_8">
     <g id="line2d_15">
      <path d="M 781.824 572.2344 
L 781.824 77.1552 
" clip-path="url(#p1771af7b59)" style="fill: none; stroke: #b0b0b0; stroke-width: 0.8; stroke-linecap: square"/>
     </g>
     <g id="line2d_16">
      <g>
       <use xlink:href="#mf4921c27f4" x="781.824" y="572.2344" style="stroke: #000000; stroke-width: 0.8"/>
      </g>
     </g>
     <g id="text_8">
      <!-- 140 -->
      <g transform="translate(772.28025 586.832838) scale(0.1 -0.1)">
       <use xlink:href="#DejaVuSans-31"/>
       <use xlink:href="#DejaVuSans-34" x="63.623047"/>
       <use xlink:href="#DejaVuSans-30" x="127.246094"/>
      </g>
     </g>
    </g>
    <g id="text_9">
     <!-- V, км/ч -->
     <g transform="translate(454.291094 600.510963) scale(0.1 -0.1)">
      <defs>
       <path id="DejaVuSans-56" d="M 1831 0 
L 50 4666 
L 709 4666 
L 2188 738 
L 3669 4666 
L 4325 4666 
L 2547 0 
L 1831 0 
z
" transform="scale(0.015625)"/>
       <path id="DejaVuSans-2c" d="M 750 794 
L 1409 794 
L 1409 256 
L 897 -744 
L 494 -744 
L 750 256 
L 750 794 
z
" transform="scale(0.015625)"/>
       <path id="DejaVuSans-20" transform="scale(0.015625)"/>
       <path id="DejaVuSans-43a" d="M 581 3500 
L 1153 3500 
L 1153 1856 
L 2775 3500 
L 3481 3500 
L 2144 2147 
L 3653 0 
L 3009 0 
L 1769 1766 
L 1153 1141 
L 1153 0 
L 581 0 
L 581 3500 
z
" transform="scale(0.015625)"/>
       <path id="DejaVuSans-43c" d="M 581 3500 
L 1422 3500 
L 2416 1156 
L 3413 3500 
L 4247 3500 
L 4247 0 
L 3669 0 
L 3669 2950 
L 2703 672 
L 2128 672 
L 1159 2950 
L 1159 0 
L 581 0 
L 581 3500 
z
" transform="scale(0.015625)"/>
       <path id="DejaVuSans-2f" d="M 1625 4666 
L 2156 4666 
L 531 -594 
L 0 -594 
L 1625 4666 
z
" transform="scale(0.015625)"/>
       <path id="DejaVuSans-447" d="M 2625 0 
L 2625 1472 
L 1553 1472 
Q 1075 1472 756 1769 
Q 469 2038 469 2613 
L 469 3500 
L 1044 3500 
L 1044 2666 
Q 1044 2300 1206 2116 
Q 1372 1931 1697 1931 
L 2625 1931 
L 2625 3500 
L 3200 3500 
L 3200 0 
L 2625 0 
z
" transform="scale(0.015625)"/>
      </defs>
      <use xlink:href="#DejaVuSans-56"/>
      <use xlink:href="#DejaVuSans-2c" x="68.408203"/>
      <use xlink:href="#DejaVuSans-20" x="100.195312"/>
      <use xlink:href="#DejaVuSans-43a" x="131.982422"/>
      <use xlink:href="#DejaVuSans-43c" x="192.382812"/>
      <use xlink:href="#DejaVuSans-2f" x="267.822266"/>
      <use xlink:href="#DejaVuSans-447" x="301.513672"/>
     </g>
    </g>
   </g>
   <g id="matplotlib.axis_2">
    <g id="ytick_1">
     <g id="line2d_17">
      <path d="M 115.2 572.2344 
L 829.44 572.2344 
" clip-path="url(#p1771af7b59)" style="fill: none; stroke: #b0b0b0; stroke-width: 0.8; stroke-linecap: square"/>
     </g>
     <g id="line2d_18">
      <defs>
       <path id="ma187e55fef" d="M 0 0 
L -3.5 0 
" style="stroke: #000000; stroke-width: 0.8"/>
      </defs>
      <g>
       <use xlink:href="#ma187e55fef" x="115.2" y="572.2344" style="stroke: #000000; stroke-width: 0.8"/>
      </g>
     </g>
     <g id="text_10">
      <!-- 0 -->
      <g transform="translate(101.8375 576.033619) scale(0.1 -0.1)">
       <use xlink:href="#DejaVuSans-30"/>
      </g>
     </g>
    </g>
    <g id="ytick_2">
     <g id="line2d_19">
      <path d="M 115.2 510.3495 
L 829.44 510.3495 
" clip-path="url(#p1771af7b59)" style="fill: none; stroke: #b0b0b0; stroke-width: 0.8; stroke-linecap: square"/>
     </g>
     <g id="line2d_20">
      <g>
       <use xlink:href="#ma187e55fef" x="115.2" y="510.3495" style="stroke: #000000; stroke-width: 0.8"/>
      </g>
     </g>
     <g id="text_11">
      <!-- 25 -->
      <g transform="translate(95.475 514.148719) scale(0.1 -0.1)">
       <defs>
        <path id="DejaVuSans-35" d="M 691 4666 
L 3169 4666 
L 3169 4134 
L 1269 4134 
L 1269 2991 
Q 1406 3038 1543 3061 
Q 1681 3084 1819 3084 
Q 2600 3084 3056 2656 
Q 3513 2228 3513 1497 
Q 3513 744 3044 326 
Q 2575 -91 1722 -91 
Q 1428 -91 1123 -41 
Q 819 9 494 109 
L 494 744 
Q 775 591 1075 516 
Q 1375 441 1709 441 
Q 2250 441 2565 725 
Q 2881 1009 2881 1497 
Q 2881 1984 2565 2268 
Q 2250 2553 1709 2553 
Q 1456 2553 1204 2497 
Q 953 2441 691 2322 
L 691 4666 
z
" transform="scale(0.015625)"/>
       </defs>
       <use xlink:href="#DejaVuSans-32"/>
       <use xlink:href="#DejaVuSans-35" x="63.623047"/>
      </g>
     </g>
    </g>
    <g id="ytick_3">
     <g id="line2d_21">
      <path d="M 115.2 448.4646 
L 829.44 448.4646 
" clip-path="url(#p1771af7b59)" style="fill: none; stroke: #b0b0b0; stroke-width: 0.8; stroke-linecap: square"/>
     </g>
     <g id="line2d_22">
      <g>
       <use xlink:href="#ma187e55fef" x="115.2" y="448.4646" style="stroke: #000000; stroke-width: 0.8"/>
      </g>
     </g>
     <g id="text_12">
      <!-- 50 -->
      <g transform="translate(95.475 452.263819) scale(0.1 -0.1)">
       <use xlink:href="#DejaVuSans-35"/>
       <use xlink:href="#DejaVuSans-30" x="63.623047"/>
      </g>
     </g>
    </g>
    <g id="ytick_4">
     <g id="line2d_23">
      <path d="M 115.2 386.5797 
L 829.44 386.5797 
" clip-path="url(#p1771af7b59)" style="fill: none; stroke: #b0b0b0; stroke-width: 0.8; stroke-linecap: square"/>
     </g>
     <g id="line2d_24">
      <g>
       <use xlink:href="#ma187e55fef" x="115.2" y="386.5797" style="stroke: #000000; stroke-width: 0.8"/>
      </g>
     </g>
     <g id="text_13">
      <!-- 75 -->
      <g transform="translate(95.475 390.378919) scale(0.1 -0.1)">
       <defs>
        <path id="DejaVuSans-37" d="M 525 4666 
L 3525 4666 
L 3525 4397 
L 1831 0 
L 1172 0 
L 2766 4134 
L 525 4134 
L 525 4666 
z
" transform="scale(0.015625)"/>
       </defs>
       <use xlink:href="#DejaVuSans-37"/>
       <use xlink:href="#DejaVuSans-35" x="63.623047"/>
      </g>
     </g>
    </g>
    <g id="ytick_5">
     <g id="line2d_25">
      <path d="M 115.2 324.6948 
L 829.44 324.6948 
" clip-path="url(#p1771af7b59)" style="fill: none; stroke: #b0b0b0; stroke-width: 0.8; stroke-linecap: square"/>
     </g>
     <g id="line2d_26">
      <g>
       <use xlink:href="#ma187e55fef" x="115.2" y="324.6948" style="stroke: #000000; stroke-width: 0.8"/>
      </g>
     </g>
     <g id="text_14">
      <!-- 100 -->
      <g transform="translate(89.1125 328.494019) scale(0.1 -0.1)">
       <use xlink:href="#DejaVuSans-31"/>
       <use xlink:href="#DejaVuSans-30" x="63.623047"/>
       <use xlink:href="#DejaVuSans-30" x="127.246094"/>
      </g>
     </g>
    </g>
    <g id="ytick_6">
     <g id="line2d_27">
      <path d="M 115.2 262.8099 
L 829.44 262.8099 
" clip-path="url(#p1771af7b59)" style="fill: none; stroke: #b0b0b0; stroke-width: 0.8; stroke-linecap: square"/>
     </g>
     <g id="line2d_28">
      <g>
       <use xlink:href="#ma187e55fef" x="115.2" y="262.8099" style="stroke: #000000; stroke-width: 0.8"/>
      </g>
     </g>
     <g id="text_15">
      <!-- 125 -->
      <g transform="translate(89.1125 266.609119) scale(0.1 -0.1)">
       <use xlink:href="#DejaVuSans-31"/>
       <use xlink:href="#DejaVuSans-32" x="63.623047"/>
       <use xlink:href="#DejaVuSans-35" x="127.246094"/>
      </g>
     </g>
    </g>
    <g id="ytick_7">
     <g id="line2d_29">
      <path d="M 115.2 200.925 
L 829.44 200.925 
" clip-path="url(#p1771af7b59)" style="fill: none; stroke: #b0b0b0; stroke-width: 0.8; stroke-linecap: square"/>
     </g>
     <g id="line2d_30">
      <g>
       <use xlink:href="#ma187e55fef" x="115.2" y="200.925" style="stroke: #000000; stroke-width: 0.8"/>
      </g>
     </g>
     <g id="text_16">
      <!-- 150 -->
      <g transform="translate(89.1125 204.724219) scale(0.1 -0.1)">
       <use xlink:href="#DejaVuSans-31"/>
       <use xlink:href="#DejaVuSans-35" x="63.623047"/>
       <use xlink:href="#DejaVuSans-30" x="127.246094"/>
      </g>
     </g>
    </g>
    <g id="ytick_8">
     <g id="line2d_31">
      <path d="M 115.2 139.0401 
L 829.44 139.0401 
" clip-path="url(#p1771af7b59)" style="fill: none; stroke: #b0b0b0; stroke-width: 0.8; stroke-linecap: square"/>
     </g>
     <g id="line2d_32">
      <g>
       <use xlink:href="#ma187e55fef" x="115.2" y="139.0401" style="stroke: #000000; stroke-width: 0.8"/>
      </g>
     </g>
     <g id="text_17">
      <!-- 175 -->
      <g transform="translate(89.1125 142.839319) scale(0.1 -0.1)">
       <use xlink:href="#DejaVuSans-31"/>
       <use xlink:href="#DejaVuSans-37" x="63.623047"/>
       <use xlink:href="#DejaVuSans-35" x="127.246094"/>
      </g>
     </g>
    </g>
    <g id="ytick_9">
     <g id="line2d_33">
      <path d="M 115.2 77.1552 
L 829.44 77.1552 
" clip-path="url(#p1771af7b59)" style="fill: none; stroke: #b0b0b0; stroke-width: 0.8; stroke-linecap: square"/>
     </g>
     <g id="line2d_34">
      <g>
       <use xlink:href="#ma187e55fef" x="115.2" y="77.1552" style="stroke: #000000; stroke-width: 0.8"/>
      </g>
     </g>
     <g id="text_18">
      <!-- 200 -->
      <g transform="translate(89.1125 80.954419) scale(0.1 -0.1)">
       <use xlink:href="#DejaVuSans-32"/>
       <use xlink:href="#DejaVuSans-30" x="63.623047"/>
       <use xlink:href="#DejaVuSans-30" x="127.246094"/>
      </g>
     </g>
    </g>
    <g id="text_19">
     <!-- S, м -->
     <g transform="translate(83.032812 334.819019) rotate(-90) scale(0.1 -0.1)">
      <defs>
       <path id="DejaVuSans-53" d="M 3425 4513 
L 3425 3897 
Q 3066 4069 2747 4153 
Q 2428 4238 2131 4238 
Q 1616 4238 1336 4038 
Q 1056 3838 1056 3469 
Q 1056 3159 1242 3001 
Q 1428 2844 1947 2747 
L 2328 2669 
Q 3034 2534 3370 2195 
Q 3706 1856 3706 1288 
Q 3706 609 3251 259 
Q 2797 -91 1919 -91 
Q 1588 -91 1214 -16 
Q 841 59 441 206 
L 441 856 
Q 825 641 1194 531 
Q 1563 422 1919 422 
Q 2459 422 2753 634 
Q 3047 847 3047 1241 
Q 3047 1584 2836 1778 
Q 2625 1972 2144 2069 
L 1759 2144 
Q 1053 2284 737 2584 
Q 422 2884 422 3419 
Q 422 4038 858 4394 
Q 1294 4750 2059 4750 
Q 2388 4750 2728 4690 
Q 3069 4631 3425 4513 
z
" transform="scale(0.015625)"/>
      </defs>
      <use xlink:href="#DejaVuSans-53"/>
      <use xlink:href="#DejaVuSans-2c" x="63.476562"/>
      <use xlink:href="#DejaVuSans-20" x="95.263672"/>
      <use xlink:href="#DejaVuSans-43c" x="127.050781"/>
     </g>
    </g>
   </g>
   <g id="line2d_35">
    <path d="M 115.2 572.2344 
L 129.4848 567.999108 
L 143.7696 563.544553 
L 158.0544 558.870735 
L 172.3392 553.977653 
L 186.624 548.865308 
L 200.9088 543.533699 
L 215.1936 537.982827 
L 229.4784 532.212691 
L 243.7632 526.223293 
L 258.048 520.01463 
L 272.3328 513.586705 
L 286.6176 506.939516 
L 300.9024 500.073063 
L 315.1872 492.987348 
L 329.472 485.682368 
L 343.7568 478.158126 
L 358.0416 470.41462 
L 372.3264 462.45185 
L 386.6112 454.269818 
L 400.896 445.868521 
L 415.1808 437.247962 
L 429.4656 428.408139 
L 443.7504 419.349053 
L 458.0352 410.070703 
L 472.32 400.57309 
L 486.6048 390.856213 
L 500.8896 380.920073 
L 515.1744 370.76467 
L 529.4592 360.390003 
L 543.744 349.796073 
L 558.0288 338.98288 
L 572.3136 327.950423 
L 586.5984 316.698703 
L 600.8832 305.227719 
L 615.168 293.537472 
L 629.4528 281.627961 
L 643.7376 269.499188 
L 662.784 252.986413 
L 681.8304 236.083836 
L 700.8768 218.791458 
L 719.9232 201.109279 
L 738.9696 183.037298 
L 758.016 164.575515 
L 777.0624 145.72393 
L 796.1088 126.482544 
L 815.1552 106.851357 
L 829.44 91.872159 
L 829.44 91.872159 
" clip-path="url(#p1771af7b59)" style="fill: none; stroke: #00ff00; stroke-width: 1.5; stroke-linecap: square"/>
   </g>
   <g id="line2d_36">
    <path d="M 115.2 572.2344 
L 129.4848 567.962564 
L 143.7696 563.398378 
L 158.0544 558.54184 
L 172.3392 553.39295 
L 186.624 547.95171 
L 200.9088 542.218119 
L 215.1936 536.192176 
L 229.4784 529.873882 
L 243.7632 523.263237 
L 258.048 516.36024 
L 272.3328 509.164893 
L 286.6176 501.677194 
L 300.9024 493.897144 
L 315.1872 485.824743 
L 329.472 477.459991 
L 343.7568 468.802888 
L 358.0416 459.853433 
L 372.3264 450.611627 
L 386.6112 441.07747 
L 400.896 431.250962 
L 415.1808 421.132103 
L 429.4656 410.720892 
L 443.7504 400.01733 
L 458.0352 389.021417 
L 472.32 377.733153 
L 486.6048 366.152538 
L 500.8896 354.279571 
L 515.1744 342.114253 
L 529.4592 329.656584 
L 543.744 316.906564 
L 558.0288 303.864193 
L 572.3136 290.52947 
L 586.5984 276.902397 
L 600.8832 262.982972 
L 615.168 248.771196 
L 629.4528 234.267069 
L 643.7376 219.47059 
L 658.0224 204.38176 
L 672.3072 189.00058 
L 686.592 173.327048 
L 700.8768 157.361164 
L 715.1616 141.10293 
L 729.4464 124.552344 
L 743.7312 107.709408 
L 758.016 90.57412 
L 772.3008 73.14648 
L 786.5856 55.42649 
L 800.8704 37.414149 
L 815.1552 19.109456 
L 829.44 0.512412 
L 829.44 0.512412 
" clip-path="url(#p1771af7b59)" style="fill: none; stroke: #00d400; stroke-width: 1.5; stroke-linecap: square"/>
   </g>
   <g id="line2d_37">
    <path d="M 115.2 572.2344 
L 124.7232 569.38651 
L 134.2464 566.343718 
L 143.7696 563.106026 
L 153.2928 559.673434 
L 162.816 556.04594 
L 172.3392 552.223546 
L 181.8624 548.206251 
L 191.3856 543.994055 
L 200.9088 539.586958 
L 210.432 534.98496 
L 219.9552 530.188062 
L 229.4784 525.196263 
L 239.0016 520.009563 
L 248.5248 514.627962 
L 258.048 509.051461 
L 267.5712 503.280058 
L 277.0944 497.313755 
L 286.6176 491.152551 
L 296.1408 484.796447 
L 305.664 478.245441 
L 315.1872 471.499535 
L 324.7104 464.558728 
L 334.2336 457.42302 
L 343.7568 450.092411 
L 353.28 442.566902 
L 362.8032 434.846492 
L 372.3264 426.931181 
L 381.8496 418.820969 
L 396.1344 406.290212 
L 410.4192 393.320929 
L 424.704 379.913118 
L 438.9888 366.066781 
L 453.2736 351.781917 
L 467.5584 337.058527 
L 481.8432 321.896609 
L 496.128 306.296165 
L 510.4128 290.257194 
L 524.6976 273.779696 
L 538.9824 256.863672 
L 553.2672 239.50912 
L 567.552 221.716042 
L 581.8368 203.484437 
L 596.1216 184.814305 
L 610.4064 165.705647 
L 624.6912 146.158462 
L 638.976 126.17275 
L 653.2608 105.748511 
L 667.5456 84.885745 
L 681.8304 63.584453 
L 696.1152 41.844633 
L 710.4 19.666287 
L 723.460723 -1 
L 723.460723 -1 
" clip-path="url(#p1771af7b59)" style="fill: none; stroke: #00aa00; stroke-width: 1.5; stroke-linecap: square"/>
   </g>
   <g id="line2d_38">
    <path d="M 115.2 572.2344 
L 129.4848 566.967693 
L 143.7696 561.481723 
L 158.0544 555.77649 
L 172.3392 549.851993 
L 186.624 543.708233 
L 200.9088 537.345209 
L 215.1936 530.762922 
L 229.4784 523.961371 
L 243.7632 516.940558 
L 258.048 509.70048 
L 272.3328 502.24114 
L 286.6176 494.562536 
L 300.9024 486.664668 
L 315.1872 478.547538 
L 329.472 470.211143 
L 343.7568 461.655486 
L 358.0416 452.880565 
L 372.3264 443.88638 
L 386.6112 434.672933 
L 400.896 425.240221 
L 415.1808 415.588247 
L 429.4656 405.717009 
L 443.7504 395.626508 
L 458.0352 385.316743 
L 472.32 374.787715 
L 486.6048 364.039423 
L 500.8896 353.071868 
L 515.1744 341.88505 
L 529.4592 330.478968 
L 543.744 318.853623 
L 558.0288 307.009015 
L 572.3136 294.945143 
L 586.5984 282.662008 
L 605.6448 265.943418 
L 624.6912 248.835026 
L 643.7376 231.336833 
L 662.784 213.448838 
L 681.8304 195.171041 
L 700.8768 176.503443 
L 719.9232 157.446044 
L 738.9696 137.998843 
L 758.016 118.16184 
L 777.0624 97.935035 
L 796.1088 77.318429 
L 815.1552 56.312022 
L 829.44 40.301409 
L 829.44 40.301409 
" clip-path="url(#p1771af7b59)" style="fill: none; stroke: #0000ff; stroke-width: 1.5; stroke-linecap: square"/>
   </g>
   <g id="line2d_39">
    <path d="M 115.2 572.2344 
L 129.4848 566.931149 
L 143.7696 561.335548 
L 158.0544 555.447595 
L 172.3392 549.26729 
L 186.624 542.794635 
L 200.9088 536.029629 
L 215.1936 528.972271 
L 229.4784 521.622562 
L 243.7632 513.980502 
L 258.048 506.04609 
L 272.3328 497.819328 
L 286.6176 489.300214 
L 300.9024 480.488749 
L 315.1872 471.384933 
L 329.472 461.988766 
L 343.7568 452.300248 
L 358.0416 442.319378 
L 372.3264 432.046157 
L 386.6112 421.480585 
L 400.896 410.622662 
L 415.1808 399.472388 
L 429.4656 388.029762 
L 443.7504 376.294785 
L 458.0352 364.267457 
L 472.32 351.947778 
L 486.6048 339.335748 
L 500.8896 326.431366 
L 515.1744 313.234633 
L 529.4592 299.745549 
L 543.744 285.964114 
L 558.0288 271.890328 
L 572.3136 257.52419 
L 586.5984 242.865702 
L 600.8832 227.914862 
L 615.168 212.671671 
L 629.4528 197.136129 
L 643.7376 181.308235 
L 658.0224 165.18799 
L 672.3072 148.775395 
L 686.592 132.070448 
L 700.8768 115.073149 
L 715.1616 97.7835 
L 729.4464 80.201499 
L 743.7312 62.327148 
L 758.016 44.160445 
L 772.3008 25.70139 
L 786.5856 6.949985 
L 792.573282 -1 
L 792.573282 -1 
" clip-path="url(#p1771af7b59)" style="fill: none; stroke: #0000d4; stroke-width: 1.5; stroke-linecap: square"/>
   </g>
   <g id="line2d_40">
    <path d="M 115.2 572.2344 
L 124.7232 568.6989 
L 134.2464 564.968498 
L 143.7696 561.043196 
L 153.2928 556.922994 
L 162.816 552.60789 
L 172.3392 548.097886 
L 181.8624 543.392981 
L 191.3856 538.493175 
L 200.9088 533.398468 
L 210.432 528.10886 
L 219.9552 522.624352 
L 229.4784 516.944943 
L 239.0016 511.070633 
L 248.5248 505.001422 
L 258.048 498.737311 
L 267.5712 492.278298 
L 277.0944 485.624385 
L 286.6176 478.775571 
L 296.1408 471.731857 
L 305.664 464.493241 
L 315.1872 457.059725 
L 324.7104 449.431308 
L 334.2336 441.60799 
L 343.7568 433.589771 
L 358.0416 421.197004 
L 372.3264 408.365711 
L 386.6112 395.09589 
L 400.896 381.387543 
L 415.1808 367.240669 
L 429.4656 352.655268 
L 443.7504 337.63134 
L 458.0352 322.168886 
L 472.32 306.267904 
L 486.6048 289.928396 
L 500.8896 273.150362 
L 515.1744 255.9338 
L 529.4592 238.278712 
L 543.744 220.185096 
L 558.0288 201.652954 
L 572.3136 182.682286 
L 586.5984 163.27309 
L 600.8832 143.425368 
L 615.168 123.139119 
L 629.4528 102.414343 
L 643.7376 81.25104 
L 658.0224 59.649211 
L 672.3072 37.608854 
L 686.592 15.129971 
L 696.672892 -1 
L 696.672892 -1 
" clip-path="url(#p1771af7b59)" style="fill: none; stroke: #0000aa; stroke-width: 1.5; stroke-linecap: square"/>
   </g>
   <g id="patch_3">
    <path d="M 115.2 572.2344 
L 115.2 77.1552 
" style="fill: none; stroke: #000000; stroke-width: 0.8; stroke-linejoin: miter; stroke-linecap: square"/>
   </g>
   <g id="patch_4">
    <path d="M 829.44 572.2344 
L 829.44 77.1552 
" style="fill: none; stroke: #000000; stroke-width: 0.8; stroke-linejoin: miter; stroke-linecap: square"/>
   </g>
   <g id="patch_5">
    <path d="M 115.2 572.2344 
L 829.44 572.2344 
" style="fill: none; stroke: #000000; stroke-width: 0.8; stroke-linejoin: miter; stroke-linecap: square"/>
   </g>
   <g id="patch_6">
    <path d="M 115.2 77.1552 
L 829.44 77.1552 
" style="fill: none; stroke: #000000; stroke-width: 0.8; stroke-linejoin: miter; stroke-linecap: square"/>
   </g>
   <g id="text_20">
    <!-- Остановочный путь -->
    <g transform="translate(409.809375 71.1552) scale(0.12 -0.12)">
     <defs>
      <path id="DejaVuSans-41e" d="M 2522 4238 
Q 1834 4238 1429 3725 
Q 1025 3213 1025 2328 
Q 1025 1447 1429 934 
Q 1834 422 2522 422 
Q 3209 422 3611 934 
Q 4013 1447 4013 2328 
Q 4013 3213 3611 3725 
Q 3209 4238 2522 4238 
z
M 2522 4750 
Q 3503 4750 4090 4092 
Q 4678 3434 4678 2328 
Q 4678 1225 4090 567 
Q 3503 -91 2522 -91 
Q 1538 -91 948 565 
Q 359 1222 359 2328 
Q 359 3434 948 4092 
Q 1538 4750 2522 4750 
z
" transform="scale(0.015625)"/>
      <path id="DejaVuSans-441" d="M 3122 3366 
L 3122 2828 
Q 2878 2963 2633 3030 
Q 2388 3097 2138 3097 
Q 1578 3097 1268 2742 
Q 959 2388 959 1747 
Q 959 1106 1268 751 
Q 1578 397 2138 397 
Q 2388 397 2633 464 
Q 2878 531 3122 666 
L 3122 134 
Q 2881 22 2623 -34 
Q 2366 -91 2075 -91 
Q 1284 -91 818 406 
Q 353 903 353 1747 
Q 353 2603 823 3093 
Q 1294 3584 2113 3584 
Q 2378 3584 2631 3529 
Q 2884 3475 3122 3366 
z
" transform="scale(0.015625)"/>
      <path id="DejaVuSans-442" d="M 188 3500 
L 3541 3500 
L 3541 3041 
L 2147 3041 
L 2147 0 
L 1581 0 
L 1581 3041 
L 188 3041 
L 188 3500 
z
" transform="scale(0.015625)"/>
      <path id="DejaVuSans-430" d="M 2194 1759 
Q 1497 1759 1228 1600 
Q 959 1441 959 1056 
Q 959 750 1161 570 
Q 1363 391 1709 391 
Q 2188 391 2477 730 
Q 2766 1069 2766 1631 
L 2766 1759 
L 2194 1759 
z
M 3341 1997 
L 3341 0 
L 2766 0 
L 2766 531 
Q 2569 213 2275 61 
Q 1981 -91 1556 -91 
Q 1019 -91 701 211 
Q 384 513 384 1019 
Q 384 1609 779 1909 
Q 1175 2209 1959 2209 
L 2766 2209 
L 2766 2266 
Q 2766 2663 2505 2880 
Q 2244 3097 1772 3097 
Q 1472 3097 1187 3025 
Q 903 2953 641 2809 
L 641 3341 
Q 956 3463 1253 3523 
Q 1550 3584 1831 3584 
Q 2591 3584 2966 3190 
Q 3341 2797 3341 1997 
z
" transform="scale(0.015625)"/>
      <path id="DejaVuSans-43d" d="M 581 3500 
L 1159 3500 
L 1159 2072 
L 3025 2072 
L 3025 3500 
L 3603 3500 
L 3603 0 
L 3025 0 
L 3025 1613 
L 1159 1613 
L 1159 0 
L 581 0 
L 581 3500 
z
" transform="scale(0.015625)"/>
      <path id="DejaVuSans-43e" d="M 1959 3097 
Q 1497 3097 1228 2736 
Q 959 2375 959 1747 
Q 959 1119 1226 758 
Q 1494 397 1959 397 
Q 2419 397 2687 759 
Q 2956 1122 2956 1747 
Q 2956 2369 2687 2733 
Q 2419 3097 1959 3097 
z
M 1959 3584 
Q 2709 3584 3137 3096 
Q 3566 2609 3566 1747 
Q 3566 888 3137 398 
Q 2709 -91 1959 -91 
Q 1206 -91 779 398 
Q 353 888 353 1747 
Q 353 2609 779 3096 
Q 1206 3584 1959 3584 
z
" transform="scale(0.015625)"/>
      <path id="DejaVuSans-432" d="M 1156 1613 
L 1156 459 
L 1975 459 
Q 2369 459 2575 607 
Q 2781 756 2781 1038 
Q 2781 1319 2575 1466 
Q 2369 1613 1975 1613 
L 1156 1613 
z
M 1156 3041 
L 1156 2072 
L 1913 2072 
Q 2238 2072 2444 2201 
Q 2650 2331 2650 2563 
Q 2650 2794 2444 2917 
Q 2238 3041 1913 3041 
L 1156 3041 
z
M 581 3500 
L 1950 3500 
Q 2566 3500 2897 3275 
Q 3228 3050 3228 2634 
Q 3228 2313 3059 2123 
Q 2891 1934 2559 1888 
Q 2956 1813 3175 1575 
Q 3394 1338 3394 981 
Q 3394 513 3033 256 
Q 2672 0 2003 0 
L 581 0 
L 581 3500 
z
" transform="scale(0.015625)"/>
      <path id="DejaVuSans-44b" d="M 3909 3500 
L 4484 3500 
L 4484 0 
L 3909 0 
L 3909 3500 
z
M 4197 3584 
L 4197 3584 
z
M 2781 1038 
Q 2781 1319 2576 1466 
Q 2372 1613 1978 1613 
L 1159 1613 
L 1159 459 
L 1978 459 
Q 2372 459 2576 607 
Q 2781 756 2781 1038 
z
M 581 3500 
L 1159 3500 
L 1159 2072 
L 2003 2072 
Q 2672 2072 3033 1817 
Q 3394 1563 3394 1038 
Q 3394 513 3033 256 
Q 2672 0 2003 0 
L 581 0 
L 581 3500 
z
" transform="scale(0.015625)"/>
      <path id="DejaVuSans-439" d="M 3578 3500 
L 3578 0 
L 3006 0 
L 3006 2809 
L 1319 0 
L 581 0 
L 581 3500 
L 1153 3500 
L 1153 697 
L 2838 3500 
L 3578 3500 
z
M 1103 4862 
L 1472 4862 
Q 1506 4628 1657 4510 
Q 1809 4393 2081 4393 
Q 2350 4393 2500 4509 
Q 2650 4625 2691 4862 
L 3059 4862 
Q 3028 4415 2781 4190 
Q 2534 3965 2081 3965 
Q 1628 3965 1381 4190 
Q 1134 4415 1103 4862 
z
" transform="scale(0.015625)"/>
      <path id="DejaVuSans-43f" d="M 3603 3500 
L 3603 0 
L 3025 0 
L 3025 3041 
L 1159 3041 
L 1159 0 
L 581 0 
L 581 3500 
L 3603 3500 
z
" transform="scale(0.015625)"/>
      <path id="DejaVuSans-443" d="M 2059 -325 
Q 1816 -950 1584 -1140 
Q 1353 -1331 966 -1331 
L 506 -1331 
L 506 -850 
L 844 -850 
Q 1081 -850 1212 -737 
Q 1344 -625 1503 -206 
L 1606 56 
L 191 3500 
L 800 3500 
L 1894 763 
L 2988 3500 
L 3597 3500 
L 2059 -325 
z
" transform="scale(0.015625)"/>
      <path id="DejaVuSans-44c" d="M 2781 1038 
Q 2781 1319 2576 1466 
Q 2372 1613 1978 1613 
L 1159 1613 
L 1159 459 
L 1978 459 
Q 2372 459 2576 607 
Q 2781 756 2781 1038 
z
M 581 3500 
L 1159 3500 
L 1159 2072 
L 2003 2072 
Q 2672 2072 3033 1817 
Q 3394 1563 3394 1038 
Q 3394 513 3033 256 
Q 2672 0 2003 0 
L 581 0 
L 581 3500 
z
" transform="scale(0.015625)"/>
     </defs>
     <use xlink:href="#DejaVuSans-41e"/>
     <use xlink:href="#DejaVuSans-441" x="78.710938"/>
     <use xlink:href="#DejaVuSans-442" x="133.691406"/>
     <use xlink:href="#DejaVuSans-430" x="191.943359"/>
     <use xlink:href="#DejaVuSans-43d" x="253.222656"/>
     <use xlink:href="#DejaVuSans-43e" x="318.603516"/>
     <use xlink:href="#DejaVuSans-432" x="379.785156"/>
     <use xlink:href="#DejaVuSans-43e" x="438.720703"/>
     <use xlink:href="#DejaVuSans-447" x="499.902344"/>
     <use xlink:href="#DejaVuSans-43d" x="558.984375"/>
     <use xlink:href="#DejaVuSans-44b" x="624.365234"/>
     <use xlink:href="#DejaVuSans-439" x="703.320312"/>
     <use xlink:href="#DejaVuSans-20" x="768.310547"/>
     <use xlink:href="#DejaVuSans-43f" x="800.097656"/>
     <use xlink:href="#DejaVuSans-443" x="865.478516"/>
     <use xlink:href="#DejaVuSans-442" x="924.658203"/>
     <use xlink:href="#DejaVuSans-44c" x="982.910156"/>
    </g>
   </g>
   <g id="legend_1">
    <g id="patch_7">
     <path d="M 122.2 173.345825 
L 241.9 173.345825 
Q 243.9 173.345825 243.9 171.345825 
L 243.9 84.1552 
Q 243.9 82.1552 241.9 82.1552 
L 122.2 82.1552 
Q 120.2 82.1552 120.2 84.1552 
L 120.2 171.345825 
Q 120.2 173.345825 122.2 173.345825 
z
" style="fill: #ffffff; opacity: 0.8; stroke: #cccccc; stroke-linejoin: miter"/>
    </g>
    <g id="line2d_41">
     <path d="M 124.2 90.253638 
L 134.2 90.253638 
L 144.2 90.253638 
" style="fill: none; stroke: #00ff00; stroke-width: 1.5; stroke-linecap: square"/>
    </g>
    <g id="text_21">
     <!-- $\mu=0.8$ легковые -->
     <g transform="translate(152.2 93.753638) scale(0.1 -0.1)">
      <defs>
       <path id="DejaVuSans-Oblique-3bc" d="M -84 -1331 
L 856 3500 
L 1434 3500 
L 1009 1322 
Q 997 1256 987 1175 
Q 978 1094 978 1013 
Q 978 722 1161 565 
Q 1344 409 1684 409 
Q 2147 409 2431 671 
Q 2716 934 2816 1459 
L 3213 3500 
L 3788 3500 
L 3266 809 
Q 3253 750 3248 706 
Q 3244 663 3244 628 
Q 3244 531 3283 486 
Q 3322 441 3406 441 
Q 3438 441 3492 456 
Q 3547 472 3647 513 
L 3559 50 
Q 3422 -19 3297 -55 
Q 3172 -91 3053 -91 
Q 2847 -91 2730 40 
Q 2613 172 2613 403 
Q 2438 153 2195 31 
Q 1953 -91 1625 -91 
Q 1334 -91 1117 43 
Q 900 178 831 397 
L 494 -1331 
L -84 -1331 
z
" transform="scale(0.015625)"/>
       <path id="DejaVuSans-3d" d="M 678 2906 
L 4684 2906 
L 4684 2381 
L 678 2381 
L 678 2906 
z
M 678 1631 
L 4684 1631 
L 4684 1100 
L 678 1100 
L 678 1631 
z
" transform="scale(0.015625)"/>
       <path id="DejaVuSans-2e" d="M 684 794 
L 1344 794 
L 1344 0 
L 684 0 
L 684 794 
z
" transform="scale(0.015625)"/>
       <path id="DejaVuSans-43b" d="M 238 0 
L 238 478 
Q 806 566 981 959 
Q 1194 1513 1194 2928 
L 1194 3500 
L 3559 3500 
L 3559 0 
L 2984 0 
L 2984 3041 
L 1769 3041 
L 1769 2694 
Q 1769 1344 1494 738 
Q 1200 91 238 0 
z
" transform="scale(0.015625)"/>
       <path id="DejaVuSans-435" d="M 3597 1894 
L 3597 1613 
L 953 1613 
Q 991 1019 1311 708 
Q 1631 397 2203 397 
Q 2534 397 2845 478 
Q 3156 559 3463 722 
L 3463 178 
Q 3153 47 2828 -22 
Q 2503 -91 2169 -91 
Q 1331 -91 842 396 
Q 353 884 353 1716 
Q 353 2575 817 3079 
Q 1281 3584 2069 3584 
Q 2775 3584 3186 3129 
Q 3597 2675 3597 1894 
z
M 3022 2063 
Q 3016 2534 2758 2815 
Q 2500 3097 2075 3097 
Q 1594 3097 1305 2825 
Q 1016 2553 972 2059 
L 3022 2063 
z
" transform="scale(0.015625)"/>
       <path id="DejaVuSans-433" d="M 581 0 
L 581 3500 
L 3050 3500 
L 3050 3041 
L 1159 3041 
L 1159 0 
L 581 0 
z
" transform="scale(0.015625)"/>
      </defs>
      <use xlink:href="#DejaVuSans-Oblique-3bc" transform="translate(0 0.78125)"/>
      <use xlink:href="#DejaVuSans-3d" transform="translate(83.105469 0.78125)"/>
      <use xlink:href="#DejaVuSans-30" transform="translate(186.376953 0.78125)"/>
      <use xlink:href="#DejaVuSans-2e" transform="translate(250 0.78125)"/>
      <use xlink:href="#DejaVuSans-38" transform="translate(279.162109 0.78125)"/>
      <use xlink:href="#DejaVuSans-20" transform="translate(342.785156 0.78125)"/>
      <use xlink:href="#DejaVuSans-43b" transform="translate(374.572266 0.78125)"/>
      <use xlink:href="#DejaVuSans-435" transform="translate(438.488281 0.78125)"/>
      <use xlink:href="#DejaVuSans-433" transform="translate(500.011719 0.78125)"/>
      <use xlink:href="#DejaVuSans-43a" transform="translate(552.550781 0.78125)"/>
      <use xlink:href="#DejaVuSans-43e" transform="translate(612.951172 0.78125)"/>
      <use xlink:href="#DejaVuSans-432" transform="translate(674.132812 0.78125)"/>
      <use xlink:href="#DejaVuSans-44b" transform="translate(733.068359 0.78125)"/>
      <use xlink:href="#DejaVuSans-435" transform="translate(812.023438 0.78125)"/>
     </g>
    </g>
    <g id="line2d_42">
     <path d="M 124.2 104.952075 
L 134.2 104.952075 
L 144.2 104.952075 
" style="fill: none; stroke: #00d400; stroke-width: 1.5; stroke-linecap: square"/>
    </g>
    <g id="text_22">
     <!-- $\mu=0.6$ легковые -->
     <g transform="translate(152.2 108.452075) scale(0.1 -0.1)">
      <use xlink:href="#DejaVuSans-Oblique-3bc" transform="translate(0 0.78125)"/>
      <use xlink:href="#DejaVuSans-3d" transform="translate(83.105469 0.78125)"/>
      <use xlink:href="#DejaVuSans-30" transform="translate(186.376953 0.78125)"/>
      <use xlink:href="#DejaVuSans-2e" transform="translate(250 0.78125)"/>
      <use xlink:href="#DejaVuSans-36" transform="translate(281.787109 0.78125)"/>
      <use xlink:href="#DejaVuSans-20" transform="translate(345.410156 0.78125)"/>
      <use xlink:href="#DejaVuSans-43b" transform="translate(377.197266 0.78125)"/>
      <use xlink:href="#DejaVuSans-435" transform="translate(441.113281 0.78125)"/>
      <use xlink:href="#DejaVuSans-433" transform="translate(502.636719 0.78125)"/>
      <use xlink:href="#DejaVuSans-43a" transform="translate(555.175781 0.78125)"/>
      <use xlink:href="#DejaVuSans-43e" transform="translate(615.576172 0.78125)"/>
      <use xlink:href="#DejaVuSans-432" transform="translate(676.757812 0.78125)"/>
      <use xlink:href="#DejaVuSans-44b" transform="translate(735.693359 0.78125)"/>
      <use xlink:href="#DejaVuSans-435" transform="translate(814.648438 0.78125)"/>
     </g>
    </g>
    <g id="line2d_43">
     <path d="M 124.2 119.650513 
L 134.2 119.650513 
L 144.2 119.650513 
" style="fill: none; stroke: #00aa00; stroke-width: 1.5; stroke-linecap: square"/>
    </g>
    <g id="text_23">
     <!-- $\mu=0.4$ легковые -->
     <g transform="translate(152.2 123.150513) scale(0.1 -0.1)">
      <use xlink:href="#DejaVuSans-Oblique-3bc" transform="translate(0 0.78125)"/>
      <use xlink:href="#DejaVuSans-3d" transform="translate(83.105469 0.78125)"/>
      <use xlink:href="#DejaVuSans-30" transform="translate(186.376953 0.78125)"/>
      <use xlink:href="#DejaVuSans-2e" transform="translate(250 0.78125)"/>
      <use xlink:href="#DejaVuSans-34" transform="translate(281.787109 0.78125)"/>
      <use xlink:href="#DejaVuSans-20" transform="translate(345.410156 0.78125)"/>
      <use xlink:href="#DejaVuSans-43b" transform="translate(377.197266 0.78125)"/>
      <use xlink:href="#DejaVuSans-435" transform="translate(441.113281 0.78125)"/>
      <use xlink:href="#DejaVuSans-433" transform="translate(502.636719 0.78125)"/>
      <use xlink:href="#DejaVuSans-43a" transform="translate(555.175781 0.78125)"/>
      <use xlink:href="#DejaVuSans-43e" transform="translate(615.576172 0.78125)"/>
      <use xlink:href="#DejaVuSans-432" transform="translate(676.757812 0.78125)"/>
      <use xlink:href="#DejaVuSans-44b" transform="translate(735.693359 0.78125)"/>
      <use xlink:href="#DejaVuSans-435" transform="translate(814.648438 0.78125)"/>
     </g>
    </g>
    <g id="line2d_44">
     <path d="M 124.2 134.34895 
L 134.2 134.34895 
L 144.2 134.34895 
" style="fill: none; stroke: #0000ff; stroke-width: 1.5; stroke-linecap: square"/>
    </g>
    <g id="text_24">
     <!-- $\mu=0.8$ грузовые -->
     <g transform="translate(152.2 137.84895) scale(0.1 -0.1)">
      <defs>
       <path id="DejaVuSans-440" d="M 1159 525 
L 1159 -1331 
L 581 -1331 
L 581 3500 
L 1159 3500 
L 1159 2969 
Q 1341 3281 1617 3432 
Q 1894 3584 2278 3584 
Q 2916 3584 3314 3078 
Q 3713 2572 3713 1747 
Q 3713 922 3314 415 
Q 2916 -91 2278 -91 
Q 1894 -91 1617 61 
Q 1341 213 1159 525 
z
M 3116 1747 
Q 3116 2381 2855 2742 
Q 2594 3103 2138 3103 
Q 1681 3103 1420 2742 
Q 1159 2381 1159 1747 
Q 1159 1113 1420 752 
Q 1681 391 2138 391 
Q 2594 391 2855 752 
Q 3116 1113 3116 1747 
z
" transform="scale(0.015625)"/>
       <path id="DejaVuSans-437" d="M 2206 1888 
Q 2594 1813 2809 1584 
Q 3025 1356 3025 1019 
Q 3025 478 2622 193 
Q 2219 -91 1475 -91 
Q 1225 -91 961 -47 
Q 697 -3 416 84 
L 416 619 
Q 638 503 903 445 
Q 1169 388 1459 388 
Q 1931 388 2195 563 
Q 2459 738 2459 1019 
Q 2459 1294 2225 1461 
Q 1991 1628 1563 1628 
L 1100 1628 
L 1100 2103 
L 1584 2103 
Q 1947 2103 2158 2242 
Q 2369 2381 2369 2600 
Q 2369 2800 2151 2944 
Q 1934 3088 1563 3088 
Q 1341 3088 1089 3047 
Q 838 3006 534 2916 
L 534 3438 
Q 841 3513 1106 3550 
Q 1372 3588 1609 3588 
Q 2222 3588 2576 3342 
Q 2931 3097 2931 2656 
Q 2931 2366 2743 2164 
Q 2556 1963 2206 1888 
z
" transform="scale(0.015625)"/>
      </defs>
      <use xlink:href="#DejaVuSans-Oblique-3bc" transform="translate(0 0.78125)"/>
      <use xlink:href="#DejaVuSans-3d" transform="translate(83.105469 0.78125)"/>
      <use xlink:href="#DejaVuSans-30" transform="translate(186.376953 0.78125)"/>
      <use xlink:href="#DejaVuSans-2e" transform="translate(250 0.78125)"/>
      <use xlink:href="#DejaVuSans-38" transform="translate(279.162109 0.78125)"/>
      <use xlink:href="#DejaVuSans-20" transform="translate(342.785156 0.78125)"/>
      <use xlink:href="#DejaVuSans-433" transform="translate(374.572266 0.78125)"/>
      <use xlink:href="#DejaVuSans-440" transform="translate(427.111328 0.78125)"/>
      <use xlink:href="#DejaVuSans-443" transform="translate(490.587891 0.78125)"/>
      <use xlink:href="#DejaVuSans-437" transform="translate(549.767578 0.78125)"/>
      <use xlink:href="#DejaVuSans-43e" transform="translate(602.941406 0.78125)"/>
      <use xlink:href="#DejaVuSans-432" transform="translate(664.123047 0.78125)"/>
      <use xlink:href="#DejaVuSans-44b" transform="translate(723.058594 0.78125)"/>
      <use xlink:href="#DejaVuSans-435" transform="translate(802.013672 0.78125)"/>
     </g>
    </g>
    <g id="line2d_45">
     <path d="M 124.2 149.047388 
L 134.2 149.047388 
L 144.2 149.047388 
" style="fill: none; stroke: #0000d4; stroke-width: 1.5; stroke-linecap: square"/>
    </g>
    <g id="text_25">
     <!-- $\mu=0.6$ грузовые -->
     <g transform="translate(152.2 152.547388) scale(0.1 -0.1)">
      <use xlink:href="#DejaVuSans-Oblique-3bc" transform="translate(0 0.78125)"/>
      <use xlink:href="#DejaVuSans-3d" transform="translate(83.105469 0.78125)"/>
      <use xlink:href="#DejaVuSans-30" transform="translate(186.376953 0.78125)"/>
      <use xlink:href="#DejaVuSans-2e" transform="translate(250 0.78125)"/>
      <use xlink:href="#DejaVuSans-36" transform="translate(281.787109 0.78125)"/>
      <use xlink:href="#DejaVuSans-20" transform="translate(345.410156 0.78125)"/>
      <use xlink:href="#DejaVuSans-433" transform="translate(377.197266 0.78125)"/>
      <use xlink:href="#DejaVuSans-440" transform="translate(429.736328 0.78125)"/>
      <use xlink:href="#DejaVuSans-443" transform="translate(493.212891 0.78125)"/>
      <use xlink:href="#DejaVuSans-437" transform="translate(552.392578 0.78125)"/>
      <use xlink:href="#DejaVuSans-43e" transform="translate(605.566406 0.78125)"/>
      <use xlink:href="#DejaVuSans-432" transform="translate(666.748047 0.78125)"/>
      <use xlink:href="#DejaVuSans-44b" transform="translate(725.683594 0.78125)"/>
      <use xlink:href="#DejaVuSans-435" transform="translate(804.638672 0.78125)"/>
     </g>
    </g>
    <g id="line2d_46">
     <path d="M 124.2 163.745825 
L 134.2 163.745825 
L 144.2 163.745825 
" style="fill: none; stroke: #0000aa; stroke-width: 1.5; stroke-linecap: square"/>
    </g>
    <g id="text_26">
     <!-- $\mu=0.4$ грузовые -->
     <g transform="translate(152.2 167.245825) scale(0.1 -0.1)">
      <use xlink:href="#DejaVuSans-Oblique-3bc" transform="translate(0 0.78125)"/>
      <use xlink:href="#DejaVuSans-3d" transform="translate(83.105469 0.78125)"/>
      <use xlink:href="#DejaVuSans-30" transform="translate(186.376953 0.78125)"/>
      <use xlink:href="#DejaVuSans-2e" transform="translate(250 0.78125)"/>
      <use xlink:href="#DejaVuSans-34" transform="translate(281.787109 0.78125)"/>
      <use xlink:href="#DejaVuSans-20" transform="translate(345.410156 0.78125)"/>
      <use xlink:href="#DejaVuSans-433" transform="translate(377.197266 0.78125)"/>
      <use xlink:href="#DejaVuSans-440" transform="translate(429.736328 0.78125)"/>
      <use xlink:href="#DejaVuSans-443" transform="translate(493.212891 0.78125)"/>
      <use xlink:href="#DejaVuSans-437" transform="translate(552.392578 0.78125)"/>
      <use xlink:href="#DejaVuSans-43e" transform="translate(605.566406 0.78125)"/>
      <use xlink:href="#DejaVuSans-432" transform="translate(666.748047 0.78125)"/>
      <use xlink:href="#DejaVuSans-44b" transform="translate(725.683594 0.78125)"/>
      <use xlink:href="#DejaVuSans-435" transform="translate(804.638672 0.78125)"/>
     </g>
    </g>
   </g>
  </g>
 </g>
 <defs>
  <clipPath id="p1771af7b59">
   <rect x="115.2" y="77.1552" width="714.24" height="495.0792"/>
  </clipPath>
 </defs>
</svg>
