<?xml version="1.0" encoding="utf-8" standalone="no"?>
<!DOCTYPE svg PUBLIC "-//W3C//DTD SVG 1.1//EN"
  "http://www.w3.org/Graphics/SVG/1.1/DTD/svg11.dtd">
<svg xmlns:xlink="http://www.w3.org/1999/xlink" width="921.6pt" height="642.96pt" viewBox="0 0 921.6 642.96" xmlns="http://www.w3.org/2000/svg" version="1.1">
 <metadata>
  <rdf:RDF xmlns:dc="http://purl.org/dc/elements/1.1/" xmlns:cc="http://creativecommons.org/ns#" xmlns:rdf="http://www.w3.org/1999/02/22-rdf-syntax-ns#">
   <cc:Work>
    <dc:type rdf:resource="http://purl.org/dc/dcmitype/StillImage"/>
    <dc:date>2024-12-18T20:17:11.812071</dc:date>
    <dc:format>image/svg+xml</dc:format>
    <dc:creator>
     <cc:Agent>
      <dc:title>Matplotlib v3.6.3, https://matplotlib.org/</dc:title>
     </cc:Agent>
    </dc:creator>
   </cc:Work>
  </rdf:RDF>
 </metadata>
 <defs>
  <style type="text/css">*{stroke-linejoin: round; stroke-linecap: butt}</style>
 </defs>
 <g id="figure_1">
  <g id="patch_1">
   <path d="M 0 642.96 
L 921.6 642.96 
L 921.6 0 
L 0 0 
z
" style="fill: #ffffff"/>
  </g>
  <g id="axes_1">
   <g id="patch_2">
    <path d="M 115.2 572.2344 
L 829.44 572.2344 
L 829.44 77.1552 
L 115.2 77.1552 
z
" style="fill: #ffffff"/>
   </g>
   <g id="matplotlib.axis_1">
    <g id="xtick_1">
     <g id="line2d_1">
      <path d="M 115.2 572.2344 
L 115.2 77.1552 
" clip-path="url(#p51e8fc3be0)" style="fill: none; stroke: #b0b0b0; stroke-width: 0.8; stroke-linecap: square"/>
     </g>
     <g id="line2d_2">
      <defs>
       <path id="m08df14d6b5" d="M 0 0 
L 0 3.5 
" style="stroke: #000000; stroke-width: 0.8"/>
      </defs>
      <g>
       <use xlink:href="#m08df14d6b5" x="115.2" y="572.2344" style="stroke: #000000; stroke-width: 0.8"/>
      </g>
     </g>
     <g id="text_1">
      <!-- 0 -->
      <g transform="translate(112.01875 586.832838) scale(0.1 -0.1)">
       <defs>
        <path id="DejaVuSans-30" d="M 2034 4250 
Q 1547 4250 1301 3770 
Q 1056 3291 1056 2328 
Q 1056 1369 1301 889 
Q 1547 409 2034 409 
Q 2525 409 2770 889 
Q 3016 1369 3016 2328 
Q 3016 3291 2770 3770 
Q 2525 4250 2034 4250 
z
M 2034 4750 
Q 2819 4750 3233 4129 
Q 3647 3509 3647 2328 
Q 3647 1150 3233 529 
Q 2819 -91 2034 -91 
Q 1250 -91 836 529 
Q 422 1150 422 2328 
Q 422 3509 836 4129 
Q 1250 4750 2034 4750 
z
" transform="scale(0.015625)"/>
       </defs>
       <use xlink:href="#DejaVuSans-30"/>
      </g>
     </g>
    </g>
    <g id="xtick_2">
     <g id="line2d_3">
      <path d="M 210.432 572.2344 
L 210.432 77.1552 
" clip-path="url(#p51e8fc3be0)" style="fill: none; stroke: #b0b0b0; stroke-width: 0.8; stroke-linecap: square"/>
     </g>
     <g id="line2d_4">
      <g>
       <use xlink:href="#m08df14d6b5" x="210.432" y="572.2344" style="stroke: #000000; stroke-width: 0.8"/>
      </g>
     </g>
     <g id="text_2">
      <!-- 20 -->
      <g transform="translate(204.0695 586.832838) scale(0.1 -0.1)">
       <defs>
        <path id="DejaVuSans-32" d="M 1228 531 
L 3431 531 
L 3431 0 
L 469 0 
L 469 531 
Q 828 903 1448 1529 
Q 2069 2156 2228 2338 
Q 2531 2678 2651 2914 
Q 2772 3150 2772 3378 
Q 2772 3750 2511 3984 
Q 2250 4219 1831 4219 
Q 1534 4219 1204 4116 
Q 875 4013 500 3803 
L 500 4441 
Q 881 4594 1212 4672 
Q 1544 4750 1819 4750 
Q 2544 4750 2975 4387 
Q 3406 4025 3406 3419 
Q 3406 3131 3298 2873 
Q 3191 2616 2906 2266 
Q 2828 2175 2409 1742 
Q 1991 1309 1228 531 
z
" transform="scale(0.015625)"/>
       </defs>
       <use xlink:href="#DejaVuSans-32"/>
       <use xlink:href="#DejaVuSans-30" x="63.623047"/>
      </g>
     </g>
    </g>
    <g id="xtick_3">
     <g id="line2d_5">
      <path d="M 305.664 572.2344 
L 305.664 77.1552 
" clip-path="url(#p51e8fc3be0)" style="fill: none; stroke: #b0b0b0; stroke-width: 0.8; stroke-linecap: square"/>
     </g>
     <g id="line2d_6">
      <g>
       <use xlink:href="#m08df14d6b5" x="305.664" y="572.2344" style="stroke: #000000; stroke-width: 0.8"/>
      </g>
     </g>
     <g id="text_3">
      <!-- 40 -->
      <g transform="translate(299.3015 586.832838) scale(0.1 -0.1)">
       <defs>
        <path id="DejaVuSans-34" d="M 2419 4116 
L 825 1625 
L 2419 1625 
L 2419 4116 
z
M 2253 4666 
L 3047 4666 
L 3047 1625 
L 3713 1625 
L 3713 1100 
L 3047 1100 
L 3047 0 
L 2419 0 
L 2419 1100 
L 313 1100 
L 313 1709 
L 2253 4666 
z
" transform="scale(0.015625)"/>
       </defs>
       <use xlink:href="#DejaVuSans-34"/>
       <use xlink:href="#DejaVuSans-30" x="63.623047"/>
      </g>
     </g>
    </g>
    <g id="xtick_4">
     <g id="line2d_7">
      <path d="M 400.896 572.2344 
L 400.896 77.1552 
" clip-path="url(#p51e8fc3be0)" style="fill: none; stroke: #b0b0b0; stroke-width: 0.8; stroke-linecap: square"/>
     </g>
     <g id="line2d_8">
      <g>
       <use xlink:href="#m08df14d6b5" x="400.896" y="572.2344" style="stroke: #000000; stroke-width: 0.8"/>
      </g>
     </g>
     <g id="text_4">
      <!-- 60 -->
      <g transform="translate(394.5335 586.832838) scale(0.1 -0.1)">
       <defs>
        <path id="DejaVuSans-36" d="M 2113 2584 
Q 1688 2584 1439 2293 
Q 1191 2003 1191 1497 
Q 1191 994 1439 701 
Q 1688 409 2113 409 
Q 2538 409 2786 701 
Q 3034 994 3034 1497 
Q 3034 2003 2786 2293 
Q 2538 2584 2113 2584 
z
M 3366 4563 
L 3366 3988 
Q 3128 4100 2886 4159 
Q 2644 4219 2406 4219 
Q 1781 4219 1451 3797 
Q 1122 3375 1075 2522 
Q 1259 2794 1537 2939 
Q 1816 3084 2150 3084 
Q 2853 3084 3261 2657 
Q 3669 2231 3669 1497 
Q 3669 778 3244 343 
Q 2819 -91 2113 -91 
Q 1303 -91 875 529 
Q 447 1150 447 2328 
Q 447 3434 972 4092 
Q 1497 4750 2381 4750 
Q 2619 4750 2861 4703 
Q 3103 4656 3366 4563 
z
" transform="scale(0.015625)"/>
       </defs>
       <use xlink:href="#DejaVuSans-36"/>
       <use xlink:href="#DejaVuSans-30" x="63.623047"/>
      </g>
     </g>
    </g>
    <g id="xtick_5">
     <g id="line2d_9">
      <path d="M 496.128 572.2344 
L 496.128 77.1552 
" clip-path="url(#p51e8fc3be0)" style="fill: none; stroke: #b0b0b0; stroke-width: 0.8; stroke-linecap: square"/>
     </g>
     <g id="line2d_10">
      <g>
       <use xlink:href="#m08df14d6b5" x="496.128" y="572.2344" style="stroke: #000000; stroke-width: 0.8"/>
      </g>
     </g>
     <g id="text_5">
      <!-- 80 -->
      <g transform="translate(489.7655 586.832838) scale(0.1 -0.1)">
       <defs>
        <path id="DejaVuSans-38" d="M 2034 2216 
Q 1584 2216 1326 1975 
Q 1069 1734 1069 1313 
Q 1069 891 1326 650 
Q 1584 409 2034 409 
Q 2484 409 2743 651 
Q 3003 894 3003 1313 
Q 3003 1734 2745 1975 
Q 2488 2216 2034 2216 
z
M 1403 2484 
Q 997 2584 770 2862 
Q 544 3141 544 3541 
Q 544 4100 942 4425 
Q 1341 4750 2034 4750 
Q 2731 4750 3128 4425 
Q 3525 4100 3525 3541 
Q 3525 3141 3298 2862 
Q 3072 2584 2669 2484 
Q 3125 2378 3379 2068 
Q 3634 1759 3634 1313 
Q 3634 634 3220 271 
Q 2806 -91 2034 -91 
Q 1263 -91 848 271 
Q 434 634 434 1313 
Q 434 1759 690 2068 
Q 947 2378 1403 2484 
z
M 1172 3481 
Q 1172 3119 1398 2916 
Q 1625 2713 2034 2713 
Q 2441 2713 2670 2916 
Q 2900 3119 2900 3481 
Q 2900 3844 2670 4047 
Q 2441 4250 2034 4250 
Q 1625 4250 1398 4047 
Q 1172 3844 1172 3481 
z
" transform="scale(0.015625)"/>
       </defs>
       <use xlink:href="#DejaVuSans-38"/>
       <use xlink:href="#DejaVuSans-30" x="63.623047"/>
      </g>
     </g>
    </g>
    <g id="xtick_6">
     <g id="line2d_11">
      <path d="M 591.36 572.2344 
L 591.36 77.1552 
" clip-path="url(#p51e8fc3be0)" style="fill: none; stroke: #b0b0b0; stroke-width: 0.8; stroke-linecap: square"/>
     </g>
     <g id="line2d_12">
      <g>
       <use xlink:href="#m08df14d6b5" x="591.36" y="572.2344" style="stroke: #000000; stroke-width: 0.8"/>
      </g>
     </g>
     <g id="text_6">
      <!-- 100 -->
      <g transform="translate(581.81625 586.832838) scale(0.1 -0.1)">
       <defs>
        <path id="DejaVuSans-31" d="M 794 531 
L 1825 531 
L 1825 4091 
L 703 3866 
L 703 4441 
L 1819 4666 
L 2450 4666 
L 2450 531 
L 3481 531 
L 3481 0 
L 794 0 
L 794 531 
z
" transform="scale(0.015625)"/>
       </defs>
       <use xlink:href="#DejaVuSans-31"/>
       <use xlink:href="#DejaVuSans-30" x="63.623047"/>
       <use xlink:href="#DejaVuSans-30" x="127.246094"/>
      </g>
     </g>
    </g>
    <g id="xtick_7">
     <g id="line2d_13">
      <path d="M 686.592 572.2344 
L 686.592 77.1552 
" clip-path="url(#p51e8fc3be0)" style="fill: none; stroke: #b0b0b0; stroke-width: 0.8; stroke-linecap: square"/>
     </g>
     <g id="line2d_14">
      <g>
       <use xlink:href="#m08df14d6b5" x="686.592" y="572.2344" style="stroke: #000000; stroke-width: 0.8"/>
      </g>
     </g>
     <g id="text_7">
      <!-- 120 -->
      <g transform="translate(677.04825 586.832838) scale(0.1 -0.1)">
       <use xlink:href="#DejaVuSans-31"/>
       <use xlink:href="#DejaVuSans-32" x="63.623047"/>
       <use xlink:href="#DejaVuSans-30" x="127.246094"/>
      </g>
     </g>
    </g>
    <g id="xtick_8">
     <g id="line2d_15">
      <path d="M 781.824 572.2344 
L 781.824 77.1552 
" clip-path="url(#p51e8fc3be0)" style="fill: none; stroke: #b0b0b0; stroke-width: 0.8; stroke-linecap: square"/>
     </g>
     <g id="line2d_16">
      <g>
       <use xlink:href="#m08df14d6b5" x="781.824" y="572.2344" style="stroke: #000000; stroke-width: 0.8"/>
      </g>
     </g>
     <g id="text_8">
      <!-- 140 -->
      <g transform="translate(772.28025 586.832838) scale(0.1 -0.1)">
       <use xlink:href="#DejaVuSans-31"/>
       <use xlink:href="#DejaVuSans-34" x="63.623047"/>
       <use xlink:href="#DejaVuSans-30" x="127.246094"/>
      </g>
     </g>
    </g>
    <g id="text_9">
     <!-- V, км/ч -->
     <g transform="translate(454.291094 600.510963) scale(0.1 -0.1)">
      <defs>
       <path id="DejaVuSans-56" d="M 1831 0 
L 50 4666 
L 709 4666 
L 2188 738 
L 3669 4666 
L 4325 4666 
L 2547 0 
L 1831 0 
z
" transform="scale(0.015625)"/>
       <path id="DejaVuSans-2c" d="M 750 794 
L 1409 794 
L 1409 256 
L 897 -744 
L 494 -744 
L 750 256 
L 750 794 
z
" transform="scale(0.015625)"/>
       <path id="DejaVuSans-20" transform="scale(0.015625)"/>
       <path id="DejaVuSans-43a" d="M 581 3500 
L 1153 3500 
L 1153 1856 
L 2775 3500 
L 3481 3500 
L 2144 2147 
L 3653 0 
L 3009 0 
L 1769 1766 
L 1153 1141 
L 1153 0 
L 581 0 
L 581 3500 
z
" transform="scale(0.015625)"/>
       <path id="DejaVuSans-43c" d="M 581 3500 
L 1422 3500 
L 2416 1156 
L 3413 3500 
L 4247 3500 
L 4247 0 
L 3669 0 
L 3669 2950 
L 2703 672 
L 2128 672 
L 1159 2950 
L 1159 0 
L 581 0 
L 581 3500 
z
" transform="scale(0.015625)"/>
       <path id="DejaVuSans-2f" d="M 1625 4666 
L 2156 4666 
L 531 -594 
L 0 -594 
L 1625 4666 
z
" transform="scale(0.015625)"/>
       <path id="DejaVuSans-447" d="M 2625 0 
L 2625 1472 
L 1553 1472 
Q 1075 1472 756 1769 
Q 469 2038 469 2613 
L 469 3500 
L 1044 3500 
L 1044 2666 
Q 1044 2300 1206 2116 
Q 1372 1931 1697 1931 
L 2625 1931 
L 2625 3500 
L 3200 3500 
L 3200 0 
L 2625 0 
z
" transform="scale(0.015625)"/>
      </defs>
      <use xlink:href="#DejaVuSans-56"/>
      <use xlink:href="#DejaVuSans-2c" x="68.408203"/>
      <use xlink:href="#DejaVuSans-20" x="100.195312"/>
      <use xlink:href="#DejaVuSans-43a" x="131.982422"/>
      <use xlink:href="#DejaVuSans-43c" x="192.382812"/>
      <use xlink:href="#DejaVuSans-2f" x="267.822266"/>
      <use xlink:href="#DejaVuSans-447" x="301.513672"/>
     </g>
    </g>
   </g>
   <g id="matplotlib.axis_2">
    <g id="ytick_1">
     <g id="line2d_17">
      <path d="M 115.2 572.2344 
L 829.44 572.2344 
" clip-path="url(#p51e8fc3be0)" style="fill: none; stroke: #b0b0b0; stroke-width: 0.8; stroke-linecap: square"/>
     </g>
     <g id="line2d_18">
      <defs>
       <path id="m503fc12ae2" d="M 0 0 
L -3.5 0 
" style="stroke: #000000; stroke-width: 0.8"/>
      </defs>
      <g>
       <use xlink:href="#m503fc12ae2" x="115.2" y="572.2344" style="stroke: #000000; stroke-width: 0.8"/>
      </g>
     </g>
     <g id="text_10">
      <!-- 0 -->
      <g transform="translate(101.8375 576.033619) scale(0.1 -0.1)">
       <use xlink:href="#DejaVuSans-30"/>
      </g>
     </g>
    </g>
    <g id="ytick_2">
     <g id="line2d_19">
      <path d="M 115.2 496.068369 
L 829.44 496.068369 
" clip-path="url(#p51e8fc3be0)" style="fill: none; stroke: #b0b0b0; stroke-width: 0.8; stroke-linecap: square"/>
     </g>
     <g id="line2d_20">
      <g>
       <use xlink:href="#m503fc12ae2" x="115.2" y="496.068369" style="stroke: #000000; stroke-width: 0.8"/>
      </g>
     </g>
     <g id="text_11">
      <!-- 200 -->
      <g transform="translate(89.1125 499.867588) scale(0.1 -0.1)">
       <use xlink:href="#DejaVuSans-32"/>
       <use xlink:href="#DejaVuSans-30" x="63.623047"/>
       <use xlink:href="#DejaVuSans-30" x="127.246094"/>
      </g>
     </g>
    </g>
    <g id="ytick_3">
     <g id="line2d_21">
      <path d="M 115.2 419.902338 
L 829.44 419.902338 
" clip-path="url(#p51e8fc3be0)" style="fill: none; stroke: #b0b0b0; stroke-width: 0.8; stroke-linecap: square"/>
     </g>
     <g id="line2d_22">
      <g>
       <use xlink:href="#m503fc12ae2" x="115.2" y="419.902338" style="stroke: #000000; stroke-width: 0.8"/>
      </g>
     </g>
     <g id="text_12">
      <!-- 400 -->
      <g transform="translate(89.1125 423.701557) scale(0.1 -0.1)">
       <use xlink:href="#DejaVuSans-34"/>
       <use xlink:href="#DejaVuSans-30" x="63.623047"/>
       <use xlink:href="#DejaVuSans-30" x="127.246094"/>
      </g>
     </g>
    </g>
    <g id="ytick_4">
     <g id="line2d_23">
      <path d="M 115.2 343.736308 
L 829.44 343.736308 
" clip-path="url(#p51e8fc3be0)" style="fill: none; stroke: #b0b0b0; stroke-width: 0.8; stroke-linecap: square"/>
     </g>
     <g id="line2d_24">
      <g>
       <use xlink:href="#m503fc12ae2" x="115.2" y="343.736308" style="stroke: #000000; stroke-width: 0.8"/>
      </g>
     </g>
     <g id="text_13">
      <!-- 600 -->
      <g transform="translate(89.1125 347.535526) scale(0.1 -0.1)">
       <use xlink:href="#DejaVuSans-36"/>
       <use xlink:href="#DejaVuSans-30" x="63.623047"/>
       <use xlink:href="#DejaVuSans-30" x="127.246094"/>
      </g>
     </g>
    </g>
    <g id="ytick_5">
     <g id="line2d_25">
      <path d="M 115.2 267.570277 
L 829.44 267.570277 
" clip-path="url(#p51e8fc3be0)" style="fill: none; stroke: #b0b0b0; stroke-width: 0.8; stroke-linecap: square"/>
     </g>
     <g id="line2d_26">
      <g>
       <use xlink:href="#m503fc12ae2" x="115.2" y="267.570277" style="stroke: #000000; stroke-width: 0.8"/>
      </g>
     </g>
     <g id="text_14">
      <!-- 800 -->
      <g transform="translate(89.1125 271.369496) scale(0.1 -0.1)">
       <use xlink:href="#DejaVuSans-38"/>
       <use xlink:href="#DejaVuSans-30" x="63.623047"/>
       <use xlink:href="#DejaVuSans-30" x="127.246094"/>
      </g>
     </g>
    </g>
    <g id="ytick_6">
     <g id="line2d_27">
      <path d="M 115.2 191.404246 
L 829.44 191.404246 
" clip-path="url(#p51e8fc3be0)" style="fill: none; stroke: #b0b0b0; stroke-width: 0.8; stroke-linecap: square"/>
     </g>
     <g id="line2d_28">
      <g>
       <use xlink:href="#m503fc12ae2" x="115.2" y="191.404246" style="stroke: #000000; stroke-width: 0.8"/>
      </g>
     </g>
     <g id="text_15">
      <!-- 1000 -->
      <g transform="translate(82.75 195.203465) scale(0.1 -0.1)">
       <use xlink:href="#DejaVuSans-31"/>
       <use xlink:href="#DejaVuSans-30" x="63.623047"/>
       <use xlink:href="#DejaVuSans-30" x="127.246094"/>
       <use xlink:href="#DejaVuSans-30" x="190.869141"/>
      </g>
     </g>
    </g>
    <g id="ytick_7">
     <g id="line2d_29">
      <path d="M 115.2 115.238215 
L 829.44 115.238215 
" clip-path="url(#p51e8fc3be0)" style="fill: none; stroke: #b0b0b0; stroke-width: 0.8; stroke-linecap: square"/>
     </g>
     <g id="line2d_30">
      <g>
       <use xlink:href="#m503fc12ae2" x="115.2" y="115.238215" style="stroke: #000000; stroke-width: 0.8"/>
      </g>
     </g>
     <g id="text_16">
      <!-- 1200 -->
      <g transform="translate(82.75 119.037434) scale(0.1 -0.1)">
       <use xlink:href="#DejaVuSans-31"/>
       <use xlink:href="#DejaVuSans-32" x="63.623047"/>
       <use xlink:href="#DejaVuSans-30" x="127.246094"/>
       <use xlink:href="#DejaVuSans-30" x="190.869141"/>
      </g>
     </g>
    </g>
    <g id="text_17">
     <!-- n, шт/ч -->
     <g transform="translate(76.670312 343.167456) rotate(-90) scale(0.1 -0.1)">
      <defs>
       <path id="DejaVuSans-6e" d="M 3513 2113 
L 3513 0 
L 2938 0 
L 2938 2094 
Q 2938 2591 2744 2837 
Q 2550 3084 2163 3084 
Q 1697 3084 1428 2787 
Q 1159 2491 1159 1978 
L 1159 0 
L 581 0 
L 581 3500 
L 1159 3500 
L 1159 2956 
Q 1366 3272 1645 3428 
Q 1925 3584 2291 3584 
Q 2894 3584 3203 3211 
Q 3513 2838 3513 2113 
z
" transform="scale(0.015625)"/>
       <path id="DejaVuSans-448" d="M 3216 459 
L 4697 459 
L 4697 3500 
L 5275 3500 
L 5275 0 
L 581 0 
L 581 3500 
L 1159 3500 
L 1159 459 
L 2638 459 
L 2638 3500 
L 3216 3500 
L 3216 459 
z
" transform="scale(0.015625)"/>
       <path id="DejaVuSans-442" d="M 188 3500 
L 3541 3500 
L 3541 3041 
L 2147 3041 
L 2147 0 
L 1581 0 
L 1581 3041 
L 188 3041 
L 188 3500 
z
" transform="scale(0.015625)"/>
      </defs>
      <use xlink:href="#DejaVuSans-6e"/>
      <use xlink:href="#DejaVuSans-2c" x="63.378906"/>
      <use xlink:href="#DejaVuSans-20" x="95.166016"/>
      <use xlink:href="#DejaVuSans-448" x="126.953125"/>
      <use xlink:href="#DejaVuSans-442" x="218.457031"/>
      <use xlink:href="#DejaVuSans-2f" x="276.708984"/>
      <use xlink:href="#DejaVuSans-447" x="310.400391"/>
     </g>
    </g>
   </g>
   <g id="line2d_31">
    <path d="M 115.2 572.2344 
L 119.9616 492.236073 
L 124.7232 429.355088 
L 129.4848 378.950841 
L 134.2464 337.911897 
L 139.008 304.074424 
L 143.7696 275.887261 
L 148.5312 252.209654 
L 153.2928 232.184145 
L 158.0544 215.153943 
L 162.816 200.607604 
L 167.5776 188.141061 
L 172.3392 177.430949 
L 177.1008 168.215512 
L 181.8624 160.28067 
L 186.624 153.449707 
L 191.3856 147.575523 
L 196.1472 142.534729 
L 200.9088 138.2231 
L 205.6704 134.552036 
L 210.432 131.445777 
L 215.1936 128.839188 
L 219.9552 126.67599 
L 224.7168 124.907332 
L 229.4784 123.490624 
L 234.24 122.388588 
L 239.0016 121.568475 
L 243.7632 121.001412 
L 248.5248 120.661864 
L 253.2864 120.527176 
L 258.048 120.577193 
L 262.8096 120.793934 
L 267.5712 121.16132 
L 272.3328 121.664937 
L 281.856 123.030361 
L 291.3792 124.80123 
L 300.9024 126.904908 
L 310.4256 129.28169 
L 319.9488 131.8822 
L 329.472 134.665387 
L 343.7568 139.109208 
L 358.0416 143.794717 
L 377.088 150.295328 
L 405.6576 160.341756 
L 467.5584 182.224426 
L 496.128 192.062531 
L 519.936 200.056656 
L 543.744 207.841189 
L 567.552 215.403387 
L 591.36 222.736887 
L 615.168 229.839846 
L 638.976 236.713599 
L 662.784 243.361702 
L 686.592 249.789242 
L 710.4 256.002328 
L 734.208 262.007721 
L 758.016 267.812572 
L 786.5856 274.52401 
L 815.1552 280.969981 
L 829.44 284.097364 
L 829.44 284.097364 
" clip-path="url(#p51e8fc3be0)" style="fill: none; stroke: #00ff00; stroke-width: 1.5; stroke-linecap: square"/>
   </g>
   <g id="line2d_32">
    <path d="M 115.2 572.2344 
L 119.9616 492.263629 
L 124.7232 429.530731 
L 129.4848 379.432372 
L 134.2464 338.854078 
L 139.008 305.614185 
L 143.7696 278.139609 
L 148.5312 255.268031 
L 153.2928 236.122487 
L 158.0544 220.029235 
L 162.816 206.462427 
L 167.5776 195.005899 
L 172.3392 185.32621 
L 177.1008 177.153251 
L 181.8624 170.266052 
L 186.624 164.482227 
L 191.3856 159.650028 
L 196.1472 155.642274 
L 200.9088 152.35166 
L 205.6704 149.687102 
L 210.432 147.57085 
L 215.1936 145.936197 
L 219.9552 144.725637 
L 224.7168 143.889381 
L 229.4784 143.384147 
L 234.24 143.172167 
L 239.0016 143.22037 
L 243.7632 143.499706 
L 248.5248 143.984579 
L 253.2864 144.652371 
L 258.048 145.483048 
L 262.8096 146.458817 
L 267.5712 147.563841 
L 277.0944 150.106656 
L 286.6176 153.015451 
L 296.1408 156.212994 
L 305.664 159.636795 
L 319.9488 165.088115 
L 334.2336 170.801997 
L 353.28 178.659862 
L 424.704 208.379274 
L 448.512 217.922444 
L 467.5584 225.345909 
L 486.6048 232.565492 
L 505.6512 239.573225 
L 524.6976 246.365794 
L 543.744 252.943217 
L 562.7904 259.307879 
L 581.8368 265.463822 
L 600.8832 271.416227 
L 619.9296 277.171035 
L 638.976 282.734664 
L 662.784 289.430549 
L 686.592 295.851446 
L 710.4 302.010596 
L 734.208 307.920976 
L 758.016 313.595159 
L 781.824 319.045228 
L 805.632 324.28272 
L 829.44 329.318603 
L 829.44 329.318603 
" clip-path="url(#p51e8fc3be0)" style="fill: none; stroke: #00d400; stroke-width: 1.5; stroke-linecap: square"/>
   </g>
   <g id="line2d_33">
    <path d="M 115.2 572.2344 
L 119.9616 492.318683 
L 124.7232 429.880725 
L 129.4848 380.388271 
L 134.2464 340.715892 
L 139.008 308.641262 
L 143.7696 282.543133 
L 148.5312 261.212708 
L 153.2928 243.73169 
L 158.0544 229.391055 
L 162.816 217.635538 
L 167.5776 208.024817 
L 172.3392 200.205829 
L 177.1008 193.892666 
L 181.8624 188.851743 
L 186.624 184.890694 
L 191.3856 181.849958 
L 196.1472 179.596313 
L 200.9088 178.017868 
L 205.6704 177.020139 
L 210.432 176.522943 
L 215.1936 176.457926 
L 219.9552 176.766574 
L 224.7168 177.398609 
L 229.4784 178.310674 
L 234.24 179.465262 
L 239.0016 180.829829 
L 243.7632 182.376064 
L 248.5248 184.079273 
L 258.048 187.872943 
L 267.5712 192.068148 
L 277.0944 196.554649 
L 291.3792 203.648436 
L 310.4256 213.472572 
L 348.5184 233.273668 
L 367.5648 242.916633 
L 386.6112 252.270378 
L 400.896 259.069617 
L 415.1808 265.672513 
L 429.4656 272.07443 
L 443.7504 278.274237 
L 458.0352 284.273325 
L 472.32 290.074877 
L 486.6048 295.683328 
L 500.8896 301.103968 
L 515.1744 306.342641 
L 534.2208 313.055192 
L 553.2672 319.470325 
L 572.3136 325.603181 
L 591.36 331.468647 
L 610.4064 337.081152 
L 629.4528 342.454543 
L 648.4992 347.602005 
L 667.5456 352.536038 
L 686.592 357.268439 
L 705.6384 361.810317 
L 729.4464 367.23558 
L 753.2544 372.398395 
L 777.0624 377.31627 
L 800.8704 382.005346 
L 824.6784 386.480495 
L 829.44 387.35108 
L 829.44 387.35108 
" clip-path="url(#p51e8fc3be0)" style="fill: none; stroke: #00aa00; stroke-width: 1.5; stroke-linecap: square"/>
   </g>
   <g id="line2d_34">
    <path d="M 115.2 572.2344 
L 119.9616 553.836244 
L 124.7232 536.657049 
L 129.4848 520.602532 
L 134.2464 505.587286 
L 139.008 491.533789 
L 143.7696 478.371529 
L 148.5312 466.036255 
L 153.2928 454.469314 
L 158.0544 443.61707 
L 162.816 433.430396 
L 167.5776 423.864221 
L 172.3392 414.877135 
L 177.1008 406.431036 
L 181.8624 398.490817 
L 186.624 391.024085 
L 191.3856 384.000915 
L 196.1472 377.39363 
L 200.9088 371.176595 
L 205.6704 365.326045 
L 210.432 359.819921 
L 215.1936 354.637728 
L 219.9552 349.760403 
L 224.7168 345.170197 
L 229.4784 340.850568 
L 234.24 336.786089 
L 239.0016 332.962353 
L 243.7632 329.3659 
L 248.5248 325.984139 
L 253.2864 322.805289 
L 258.048 319.818309 
L 262.8096 317.012853 
L 267.5712 314.379212 
L 272.3328 311.908272 
L 277.0944 309.591472 
L 281.856 307.42076 
L 286.6176 305.388564 
L 291.3792 303.487756 
L 300.9024 300.053831 
L 310.4256 297.069747 
L 319.9488 294.491672 
L 329.472 292.280494 
L 338.9952 290.401243 
L 348.5184 288.822592 
L 358.0416 287.516423 
L 367.5648 286.457453 
L 377.088 285.622914 
L 386.6112 284.992266 
L 396.1344 284.546952 
L 405.6576 284.270183 
L 419.9424 284.138169 
L 434.2272 284.305956 
L 448.512 284.734096 
L 462.7968 285.388326 
L 477.0816 286.238817 
L 496.128 287.633594 
L 515.1744 289.278531 
L 534.2208 291.129304 
L 558.0288 293.676 
L 586.5984 296.996248 
L 619.9296 301.131585 
L 662.784 306.711852 
L 734.208 316.302579 
L 824.6784 328.408561 
L 829.44 329.035455 
L 829.44 329.035455 
" clip-path="url(#p51e8fc3be0)" style="fill: none; stroke: #0000ff; stroke-width: 1.5; stroke-linecap: square"/>
   </g>
   <g id="line2d_35">
    <path d="M 115.2 572.2344 
L 119.9616 553.837702 
L 124.7232 536.667949 
L 129.4848 520.636956 
L 134.2464 505.663726 
L 139.008 491.673801 
L 143.7696 478.598663 
L 148.5312 466.375208 
L 153.2928 454.945263 
L 158.0544 444.255154 
L 162.816 434.255315 
L 167.5776 424.899935 
L 172.3392 416.146636 
L 177.1008 407.956188 
L 181.8624 400.292239 
L 186.624 393.121084 
L 191.3856 386.411446 
L 196.1472 380.134275 
L 200.9088 374.262575 
L 205.6704 368.771239 
L 210.432 363.636898 
L 215.1936 358.837788 
L 219.9552 354.353623 
L 224.7168 350.165486 
L 229.4784 346.255722 
L 234.24 342.607846 
L 239.0016 339.206451 
L 243.7632 336.037134 
L 248.5248 333.08642 
L 253.2864 330.341694 
L 258.048 327.791143 
L 262.8096 325.423693 
L 267.5712 323.228963 
L 272.3328 321.197212 
L 277.0944 319.319297 
L 281.856 317.586632 
L 286.6176 315.991148 
L 291.3792 314.525262 
L 296.1408 313.18184 
L 305.664 310.835928 
L 315.1872 308.904281 
L 324.7104 307.343281 
L 334.2336 306.114138 
L 343.7568 305.182301 
L 353.28 304.516949 
L 362.8032 304.090545 
L 372.3264 303.878451 
L 381.8496 303.858598 
L 391.3728 304.011187 
L 405.6576 304.525001 
L 419.9424 305.334574 
L 434.2272 306.394913 
L 448.512 307.667485 
L 467.5584 309.637906 
L 486.6048 311.861479 
L 510.4128 314.915584 
L 534.2208 318.196668 
L 567.552 323.047475 
L 615.168 330.261354 
L 724.6848 346.962635 
L 772.3008 353.971955 
L 815.1552 360.07335 
L 829.44 362.059493 
L 829.44 362.059493 
" clip-path="url(#p51e8fc3be0)" style="fill: none; stroke: #0000d4; stroke-width: 1.5; stroke-linecap: square"/>
   </g>
   <g id="line2d_36">
    <path d="M 115.2 572.2344 
L 119.9616 553.840617 
L 124.7232 536.68973 
L 129.4848 520.705667 
L 134.2464 505.816082 
L 139.008 491.952373 
L 143.7696 479.04965 
L 148.5312 467.046665 
L 153.2928 455.885713 
L 158.0544 445.512515 
L 162.816 435.876085 
L 167.5776 426.928582 
L 172.3392 418.625164 
L 177.1008 410.923836 
L 181.8624 403.785294 
L 186.624 397.172777 
L 191.3856 391.051915 
L 196.1472 385.390593 
L 200.9088 380.158806 
L 205.6704 375.32853 
L 210.432 370.873595 
L 215.1936 366.769568 
L 219.9552 362.993633 
L 224.7168 359.524491 
L 229.4784 356.342255 
L 234.24 353.428357 
L 239.0016 350.765458 
L 243.7632 348.337366 
L 248.5248 346.128958 
L 253.2864 344.126105 
L 258.048 342.315608 
L 262.8096 340.685131 
L 267.5712 339.223146 
L 272.3328 337.918873 
L 277.0944 336.762234 
L 281.856 335.743801 
L 286.6176 334.854756 
L 291.3792 334.086846 
L 300.9024 332.884025 
L 310.4256 332.079255 
L 319.9488 331.623332 
L 329.472 331.473038 
L 338.9952 331.590375 
L 348.5184 331.941906 
L 358.0416 332.498172 
L 367.5648 333.233202 
L 381.8496 334.621528 
L 396.1344 336.29471 
L 410.4192 338.197526 
L 429.4656 341.013468 
L 448.512 344.068295 
L 472.32 348.118261 
L 505.6512 354.041472 
L 615.168 373.711665 
L 653.2608 380.242132 
L 686.592 385.748495 
L 719.9232 391.045983 
L 753.2544 396.129008 
L 786.5856 400.997533 
L 819.9168 405.655202 
L 829.44 406.948035 
L 829.44 406.948035 
" clip-path="url(#p51e8fc3be0)" style="fill: none; stroke: #0000aa; stroke-width: 1.5; stroke-linecap: square"/>
   </g>
   <g id="patch_3">
    <path d="M 115.2 572.2344 
L 115.2 77.1552 
" style="fill: none; stroke: #000000; stroke-width: 0.8; stroke-linejoin: miter; stroke-linecap: square"/>
   </g>
   <g id="patch_4">
    <path d="M 829.44 572.2344 
L 829.44 77.1552 
" style="fill: none; stroke: #000000; stroke-width: 0.8; stroke-linejoin: miter; stroke-linecap: square"/>
   </g>
   <g id="patch_5">
    <path d="M 115.2 572.2344 
L 829.44 572.2344 
" style="fill: none; stroke: #000000; stroke-width: 0.8; stroke-linejoin: miter; stroke-linecap: square"/>
   </g>
   <g id="patch_6">
    <path d="M 115.2 77.1552 
L 829.44 77.1552 
" style="fill: none; stroke: #000000; stroke-width: 0.8; stroke-linejoin: miter; stroke-linecap: square"/>
   </g>
   <g id="text_18">
    <!-- Легковые 4.2 м: $\mu= 0.8$, 29 км/ч 1186 шт/ч -->
    <g transform="translate(253.2864 116.718875) scale(0.1 -0.1)">
     <defs>
      <path id="DejaVuSans-41b" d="M 263 0 
L 263 531 
Q 941 678 1134 1191 
Q 1406 1997 1406 3872 
L 1406 4666 
L 4181 4666 
L 4181 0 
L 3550 0 
L 3550 4134 
L 2034 4134 
L 2034 3559 
Q 2034 1791 1716 966 
Q 1409 175 263 0 
z
" transform="scale(0.015625)"/>
      <path id="DejaVuSans-435" d="M 3597 1894 
L 3597 1613 
L 953 1613 
Q 991 1019 1311 708 
Q 1631 397 2203 397 
Q 2534 397 2845 478 
Q 3156 559 3463 722 
L 3463 178 
Q 3153 47 2828 -22 
Q 2503 -91 2169 -91 
Q 1331 -91 842 396 
Q 353 884 353 1716 
Q 353 2575 817 3079 
Q 1281 3584 2069 3584 
Q 2775 3584 3186 3129 
Q 3597 2675 3597 1894 
z
M 3022 2063 
Q 3016 2534 2758 2815 
Q 2500 3097 2075 3097 
Q 1594 3097 1305 2825 
Q 1016 2553 972 2059 
L 3022 2063 
z
" transform="scale(0.015625)"/>
      <path id="DejaVuSans-433" d="M 581 0 
L 581 3500 
L 3050 3500 
L 3050 3041 
L 1159 3041 
L 1159 0 
L 581 0 
z
" transform="scale(0.015625)"/>
      <path id="DejaVuSans-43e" d="M 1959 3097 
Q 1497 3097 1228 2736 
Q 959 2375 959 1747 
Q 959 1119 1226 758 
Q 1494 397 1959 397 
Q 2419 397 2687 759 
Q 2956 1122 2956 1747 
Q 2956 2369 2687 2733 
Q 2419 3097 1959 3097 
z
M 1959 3584 
Q 2709 3584 3137 3096 
Q 3566 2609 3566 1747 
Q 3566 888 3137 398 
Q 2709 -91 1959 -91 
Q 1206 -91 779 398 
Q 353 888 353 1747 
Q 353 2609 779 3096 
Q 1206 3584 1959 3584 
z
" transform="scale(0.015625)"/>
      <path id="DejaVuSans-432" d="M 1156 1613 
L 1156 459 
L 1975 459 
Q 2369 459 2575 607 
Q 2781 756 2781 1038 
Q 2781 1319 2575 1466 
Q 2369 1613 1975 1613 
L 1156 1613 
z
M 1156 3041 
L 1156 2072 
L 1913 2072 
Q 2238 2072 2444 2201 
Q 2650 2331 2650 2563 
Q 2650 2794 2444 2917 
Q 2238 3041 1913 3041 
L 1156 3041 
z
M 581 3500 
L 1950 3500 
Q 2566 3500 2897 3275 
Q 3228 3050 3228 2634 
Q 3228 2313 3059 2123 
Q 2891 1934 2559 1888 
Q 2956 1813 3175 1575 
Q 3394 1338 3394 981 
Q 3394 513 3033 256 
Q 2672 0 2003 0 
L 581 0 
L 581 3500 
z
" transform="scale(0.015625)"/>
      <path id="DejaVuSans-44b" d="M 3909 3500 
L 4484 3500 
L 4484 0 
L 3909 0 
L 3909 3500 
z
M 4197 3584 
L 4197 3584 
z
M 2781 1038 
Q 2781 1319 2576 1466 
Q 2372 1613 1978 1613 
L 1159 1613 
L 1159 459 
L 1978 459 
Q 2372 459 2576 607 
Q 2781 756 2781 1038 
z
M 581 3500 
L 1159 3500 
L 1159 2072 
L 2003 2072 
Q 2672 2072 3033 1817 
Q 3394 1563 3394 1038 
Q 3394 513 3033 256 
Q 2672 0 2003 0 
L 581 0 
L 581 3500 
z
" transform="scale(0.015625)"/>
      <path id="DejaVuSans-2e" d="M 684 794 
L 1344 794 
L 1344 0 
L 684 0 
L 684 794 
z
" transform="scale(0.015625)"/>
      <path id="DejaVuSans-3a" d="M 750 794 
L 1409 794 
L 1409 0 
L 750 0 
L 750 794 
z
M 750 3309 
L 1409 3309 
L 1409 2516 
L 750 2516 
L 750 3309 
z
" transform="scale(0.015625)"/>
      <path id="DejaVuSans-Oblique-3bc" d="M -84 -1331 
L 856 3500 
L 1434 3500 
L 1009 1322 
Q 997 1256 987 1175 
Q 978 1094 978 1013 
Q 978 722 1161 565 
Q 1344 409 1684 409 
Q 2147 409 2431 671 
Q 2716 934 2816 1459 
L 3213 3500 
L 3788 3500 
L 3266 809 
Q 3253 750 3248 706 
Q 3244 663 3244 628 
Q 3244 531 3283 486 
Q 3322 441 3406 441 
Q 3438 441 3492 456 
Q 3547 472 3647 513 
L 3559 50 
Q 3422 -19 3297 -55 
Q 3172 -91 3053 -91 
Q 2847 -91 2730 40 
Q 2613 172 2613 403 
Q 2438 153 2195 31 
Q 1953 -91 1625 -91 
Q 1334 -91 1117 43 
Q 900 178 831 397 
L 494 -1331 
L -84 -1331 
z
" transform="scale(0.015625)"/>
      <path id="DejaVuSans-3d" d="M 678 2906 
L 4684 2906 
L 4684 2381 
L 678 2381 
L 678 2906 
z
M 678 1631 
L 4684 1631 
L 4684 1100 
L 678 1100 
L 678 1631 
z
" transform="scale(0.015625)"/>
      <path id="DejaVuSans-39" d="M 703 97 
L 703 672 
Q 941 559 1184 500 
Q 1428 441 1663 441 
Q 2288 441 2617 861 
Q 2947 1281 2994 2138 
Q 2813 1869 2534 1725 
Q 2256 1581 1919 1581 
Q 1219 1581 811 2004 
Q 403 2428 403 3163 
Q 403 3881 828 4315 
Q 1253 4750 1959 4750 
Q 2769 4750 3195 4129 
Q 3622 3509 3622 2328 
Q 3622 1225 3098 567 
Q 2575 -91 1691 -91 
Q 1453 -91 1209 -44 
Q 966 3 703 97 
z
M 1959 2075 
Q 2384 2075 2632 2365 
Q 2881 2656 2881 3163 
Q 2881 3666 2632 3958 
Q 2384 4250 1959 4250 
Q 1534 4250 1286 3958 
Q 1038 3666 1038 3163 
Q 1038 2656 1286 2365 
Q 1534 2075 1959 2075 
z
" transform="scale(0.015625)"/>
     </defs>
     <use xlink:href="#DejaVuSans-41b" transform="translate(0 0.78125)"/>
     <use xlink:href="#DejaVuSans-435" transform="translate(75.195312 0.78125)"/>
     <use xlink:href="#DejaVuSans-433" transform="translate(136.71875 0.78125)"/>
     <use xlink:href="#DejaVuSans-43a" transform="translate(189.257812 0.78125)"/>
     <use xlink:href="#DejaVuSans-43e" transform="translate(249.658203 0.78125)"/>
     <use xlink:href="#DejaVuSans-432" transform="translate(310.839844 0.78125)"/>
     <use xlink:href="#DejaVuSans-44b" transform="translate(369.775391 0.78125)"/>
     <use xlink:href="#DejaVuSans-435" transform="translate(448.730469 0.78125)"/>
     <use xlink:href="#DejaVuSans-20" transform="translate(510.253906 0.78125)"/>
     <use xlink:href="#DejaVuSans-34" transform="translate(542.041016 0.78125)"/>
     <use xlink:href="#DejaVuSans-2e" transform="translate(605.664062 0.78125)"/>
     <use xlink:href="#DejaVuSans-32" transform="translate(631.951172 0.78125)"/>
     <use xlink:href="#DejaVuSans-20" transform="translate(695.574219 0.78125)"/>
     <use xlink:href="#DejaVuSans-43c" transform="translate(727.361328 0.78125)"/>
     <use xlink:href="#DejaVuSans-3a" transform="translate(802.800781 0.78125)"/>
     <use xlink:href="#DejaVuSans-20" transform="translate(836.492188 0.78125)"/>
     <use xlink:href="#DejaVuSans-Oblique-3bc" transform="translate(868.279297 0.78125)"/>
     <use xlink:href="#DejaVuSans-3d" transform="translate(951.384766 0.78125)"/>
     <use xlink:href="#DejaVuSans-30" transform="translate(1054.65625 0.78125)"/>
     <use xlink:href="#DejaVuSans-2e" transform="translate(1118.279297 0.78125)"/>
     <use xlink:href="#DejaVuSans-38" transform="translate(1147.441406 0.78125)"/>
     <use xlink:href="#DejaVuSans-2c" transform="translate(1211.064453 0.78125)"/>
     <use xlink:href="#DejaVuSans-20" transform="translate(1242.851562 0.78125)"/>
     <use xlink:href="#DejaVuSans-32" transform="translate(1274.638672 0.78125)"/>
     <use xlink:href="#DejaVuSans-39" transform="translate(1336.511719 0.78125)"/>
     <use xlink:href="#DejaVuSans-20" transform="translate(1400.134766 0.78125)"/>
     <use xlink:href="#DejaVuSans-43a" transform="translate(1431.921875 0.78125)"/>
     <use xlink:href="#DejaVuSans-43c" transform="translate(1492.322266 0.78125)"/>
     <use xlink:href="#DejaVuSans-2f" transform="translate(1567.761719 0.78125)"/>
     <use xlink:href="#DejaVuSans-447" transform="translate(1601.453125 0.78125)"/>
     <use xlink:href="#DejaVuSans-20" transform="translate(1660.535156 0.78125)"/>
     <use xlink:href="#DejaVuSans-31" transform="translate(1692.322266 0.78125)"/>
     <use xlink:href="#DejaVuSans-31" transform="translate(1755.945312 0.78125)"/>
     <use xlink:href="#DejaVuSans-38" transform="translate(1819.568359 0.78125)"/>
     <use xlink:href="#DejaVuSans-36" transform="translate(1883.191406 0.78125)"/>
     <use xlink:href="#DejaVuSans-20" transform="translate(1946.814453 0.78125)"/>
     <use xlink:href="#DejaVuSans-448" transform="translate(1978.601562 0.78125)"/>
     <use xlink:href="#DejaVuSans-442" transform="translate(2070.105469 0.78125)"/>
     <use xlink:href="#DejaVuSans-2f" transform="translate(2128.357422 0.78125)"/>
     <use xlink:href="#DejaVuSans-447" transform="translate(2162.048828 0.78125)"/>
    </g>
   </g>
   <g id="text_19">
    <!-- Легковые 4.2 м: $\mu= 0.6$, 25 км/ч 1127 шт/ч -->
    <g transform="translate(234.24 139.363865) scale(0.1 -0.1)">
     <defs>
      <path id="DejaVuSans-35" d="M 691 4666 
L 3169 4666 
L 3169 4134 
L 1269 4134 
L 1269 2991 
Q 1406 3038 1543 3061 
Q 1681 3084 1819 3084 
Q 2600 3084 3056 2656 
Q 3513 2228 3513 1497 
Q 3513 744 3044 326 
Q 2575 -91 1722 -91 
Q 1428 -91 1123 -41 
Q 819 9 494 109 
L 494 744 
Q 775 591 1075 516 
Q 1375 441 1709 441 
Q 2250 441 2565 725 
Q 2881 1009 2881 1497 
Q 2881 1984 2565 2268 
Q 2250 2553 1709 2553 
Q 1456 2553 1204 2497 
Q 953 2441 691 2322 
L 691 4666 
z
" transform="scale(0.015625)"/>
      <path id="DejaVuSans-37" d="M 525 4666 
L 3525 4666 
L 3525 4397 
L 1831 0 
L 1172 0 
L 2766 4134 
L 525 4134 
L 525 4666 
z
" transform="scale(0.015625)"/>
     </defs>
     <use xlink:href="#DejaVuSans-41b" transform="translate(0 0.78125)"/>
     <use xlink:href="#DejaVuSans-435" transform="translate(75.195312 0.78125)"/>
     <use xlink:href="#DejaVuSans-433" transform="translate(136.71875 0.78125)"/>
     <use xlink:href="#DejaVuSans-43a" transform="translate(189.257812 0.78125)"/>
     <use xlink:href="#DejaVuSans-43e" transform="translate(249.658203 0.78125)"/>
     <use xlink:href="#DejaVuSans-432" transform="translate(310.839844 0.78125)"/>
     <use xlink:href="#DejaVuSans-44b" transform="translate(369.775391 0.78125)"/>
     <use xlink:href="#DejaVuSans-435" transform="translate(448.730469 0.78125)"/>
     <use xlink:href="#DejaVuSans-20" transform="translate(510.253906 0.78125)"/>
     <use xlink:href="#DejaVuSans-34" transform="translate(542.041016 0.78125)"/>
     <use xlink:href="#DejaVuSans-2e" transform="translate(605.664062 0.78125)"/>
     <use xlink:href="#DejaVuSans-32" transform="translate(631.951172 0.78125)"/>
     <use xlink:href="#DejaVuSans-20" transform="translate(695.574219 0.78125)"/>
     <use xlink:href="#DejaVuSans-43c" transform="translate(727.361328 0.78125)"/>
     <use xlink:href="#DejaVuSans-3a" transform="translate(802.800781 0.78125)"/>
     <use xlink:href="#DejaVuSans-20" transform="translate(836.492188 0.78125)"/>
     <use xlink:href="#DejaVuSans-Oblique-3bc" transform="translate(868.279297 0.78125)"/>
     <use xlink:href="#DejaVuSans-3d" transform="translate(951.384766 0.78125)"/>
     <use xlink:href="#DejaVuSans-30" transform="translate(1054.65625 0.78125)"/>
     <use xlink:href="#DejaVuSans-2e" transform="translate(1118.279297 0.78125)"/>
     <use xlink:href="#DejaVuSans-36" transform="translate(1150.066406 0.78125)"/>
     <use xlink:href="#DejaVuSans-2c" transform="translate(1213.689453 0.78125)"/>
     <use xlink:href="#DejaVuSans-20" transform="translate(1245.476562 0.78125)"/>
     <use xlink:href="#DejaVuSans-32" transform="translate(1277.263672 0.78125)"/>
     <use xlink:href="#DejaVuSans-35" transform="translate(1340.886719 0.78125)"/>
     <use xlink:href="#DejaVuSans-20" transform="translate(1404.509766 0.78125)"/>
     <use xlink:href="#DejaVuSans-43a" transform="translate(1436.296875 0.78125)"/>
     <use xlink:href="#DejaVuSans-43c" transform="translate(1496.697266 0.78125)"/>
     <use xlink:href="#DejaVuSans-2f" transform="translate(1572.136719 0.78125)"/>
     <use xlink:href="#DejaVuSans-447" transform="translate(1605.828125 0.78125)"/>
     <use xlink:href="#DejaVuSans-20" transform="translate(1664.910156 0.78125)"/>
     <use xlink:href="#DejaVuSans-31" transform="translate(1696.697266 0.78125)"/>
     <use xlink:href="#DejaVuSans-31" transform="translate(1760.320312 0.78125)"/>
     <use xlink:href="#DejaVuSans-32" transform="translate(1823.943359 0.78125)"/>
     <use xlink:href="#DejaVuSans-37" transform="translate(1887.566406 0.78125)"/>
     <use xlink:href="#DejaVuSans-20" transform="translate(1951.189453 0.78125)"/>
     <use xlink:href="#DejaVuSans-448" transform="translate(1982.976562 0.78125)"/>
     <use xlink:href="#DejaVuSans-442" transform="translate(2074.480469 0.78125)"/>
     <use xlink:href="#DejaVuSans-2f" transform="translate(2132.732422 0.78125)"/>
     <use xlink:href="#DejaVuSans-447" transform="translate(2166.423828 0.78125)"/>
    </g>
   </g>
   <g id="text_20">
    <!-- Легковые 4.2 м: $\mu= 0.4$, 21 км/ч 1039 шт/ч -->
    <g transform="translate(215.1936 172.649624) scale(0.1 -0.1)">
     <defs>
      <path id="DejaVuSans-33" d="M 2597 2516 
Q 3050 2419 3304 2112 
Q 3559 1806 3559 1356 
Q 3559 666 3084 287 
Q 2609 -91 1734 -91 
Q 1441 -91 1130 -33 
Q 819 25 488 141 
L 488 750 
Q 750 597 1062 519 
Q 1375 441 1716 441 
Q 2309 441 2620 675 
Q 2931 909 2931 1356 
Q 2931 1769 2642 2001 
Q 2353 2234 1838 2234 
L 1294 2234 
L 1294 2753 
L 1863 2753 
Q 2328 2753 2575 2939 
Q 2822 3125 2822 3475 
Q 2822 3834 2567 4026 
Q 2313 4219 1838 4219 
Q 1578 4219 1281 4162 
Q 984 4106 628 3988 
L 628 4550 
Q 988 4650 1302 4700 
Q 1616 4750 1894 4750 
Q 2613 4750 3031 4423 
Q 3450 4097 3450 3541 
Q 3450 3153 3228 2886 
Q 3006 2619 2597 2516 
z
" transform="scale(0.015625)"/>
     </defs>
     <use xlink:href="#DejaVuSans-41b" transform="translate(0 0.78125)"/>
     <use xlink:href="#DejaVuSans-435" transform="translate(75.195312 0.78125)"/>
     <use xlink:href="#DejaVuSans-433" transform="translate(136.71875 0.78125)"/>
     <use xlink:href="#DejaVuSans-43a" transform="translate(189.257812 0.78125)"/>
     <use xlink:href="#DejaVuSans-43e" transform="translate(249.658203 0.78125)"/>
     <use xlink:href="#DejaVuSans-432" transform="translate(310.839844 0.78125)"/>
     <use xlink:href="#DejaVuSans-44b" transform="translate(369.775391 0.78125)"/>
     <use xlink:href="#DejaVuSans-435" transform="translate(448.730469 0.78125)"/>
     <use xlink:href="#DejaVuSans-20" transform="translate(510.253906 0.78125)"/>
     <use xlink:href="#DejaVuSans-34" transform="translate(542.041016 0.78125)"/>
     <use xlink:href="#DejaVuSans-2e" transform="translate(605.664062 0.78125)"/>
     <use xlink:href="#DejaVuSans-32" transform="translate(631.951172 0.78125)"/>
     <use xlink:href="#DejaVuSans-20" transform="translate(695.574219 0.78125)"/>
     <use xlink:href="#DejaVuSans-43c" transform="translate(727.361328 0.78125)"/>
     <use xlink:href="#DejaVuSans-3a" transform="translate(802.800781 0.78125)"/>
     <use xlink:href="#DejaVuSans-20" transform="translate(836.492188 0.78125)"/>
     <use xlink:href="#DejaVuSans-Oblique-3bc" transform="translate(868.279297 0.78125)"/>
     <use xlink:href="#DejaVuSans-3d" transform="translate(951.384766 0.78125)"/>
     <use xlink:href="#DejaVuSans-30" transform="translate(1054.65625 0.78125)"/>
     <use xlink:href="#DejaVuSans-2e" transform="translate(1118.279297 0.78125)"/>
     <use xlink:href="#DejaVuSans-34" transform="translate(1150.066406 0.78125)"/>
     <use xlink:href="#DejaVuSans-2c" transform="translate(1213.689453 0.78125)"/>
     <use xlink:href="#DejaVuSans-20" transform="translate(1245.476562 0.78125)"/>
     <use xlink:href="#DejaVuSans-32" transform="translate(1277.263672 0.78125)"/>
     <use xlink:href="#DejaVuSans-31" transform="translate(1340.886719 0.78125)"/>
     <use xlink:href="#DejaVuSans-20" transform="translate(1404.509766 0.78125)"/>
     <use xlink:href="#DejaVuSans-43a" transform="translate(1436.296875 0.78125)"/>
     <use xlink:href="#DejaVuSans-43c" transform="translate(1496.697266 0.78125)"/>
     <use xlink:href="#DejaVuSans-2f" transform="translate(1572.136719 0.78125)"/>
     <use xlink:href="#DejaVuSans-447" transform="translate(1605.828125 0.78125)"/>
     <use xlink:href="#DejaVuSans-20" transform="translate(1664.910156 0.78125)"/>
     <use xlink:href="#DejaVuSans-31" transform="translate(1696.697266 0.78125)"/>
     <use xlink:href="#DejaVuSans-30" transform="translate(1760.320312 0.78125)"/>
     <use xlink:href="#DejaVuSans-33" transform="translate(1823.943359 0.78125)"/>
     <use xlink:href="#DejaVuSans-39" transform="translate(1887.566406 0.78125)"/>
     <use xlink:href="#DejaVuSans-20" transform="translate(1951.189453 0.78125)"/>
     <use xlink:href="#DejaVuSans-448" transform="translate(1982.976562 0.78125)"/>
     <use xlink:href="#DejaVuSans-442" transform="translate(2074.480469 0.78125)"/>
     <use xlink:href="#DejaVuSans-2f" transform="translate(2132.732422 0.78125)"/>
     <use xlink:href="#DejaVuSans-447" transform="translate(2166.423828 0.78125)"/>
    </g>
   </g>
   <g id="text_21">
    <!-- Грузовые  20 м: $\mu= 0.8$, 64 км/ч  756 шт/ч -->
    <g transform="translate(419.9424 280.329868) scale(0.1 -0.1)">
     <defs>
      <path id="DejaVuSans-413" d="M 628 0 
L 628 4666 
L 3531 4666 
L 3531 4134 
L 1259 4134 
L 1259 0 
L 628 0 
z
" transform="scale(0.015625)"/>
      <path id="DejaVuSans-440" d="M 1159 525 
L 1159 -1331 
L 581 -1331 
L 581 3500 
L 1159 3500 
L 1159 2969 
Q 1341 3281 1617 3432 
Q 1894 3584 2278 3584 
Q 2916 3584 3314 3078 
Q 3713 2572 3713 1747 
Q 3713 922 3314 415 
Q 2916 -91 2278 -91 
Q 1894 -91 1617 61 
Q 1341 213 1159 525 
z
M 3116 1747 
Q 3116 2381 2855 2742 
Q 2594 3103 2138 3103 
Q 1681 3103 1420 2742 
Q 1159 2381 1159 1747 
Q 1159 1113 1420 752 
Q 1681 391 2138 391 
Q 2594 391 2855 752 
Q 3116 1113 3116 1747 
z
" transform="scale(0.015625)"/>
      <path id="DejaVuSans-443" d="M 2059 -325 
Q 1816 -950 1584 -1140 
Q 1353 -1331 966 -1331 
L 506 -1331 
L 506 -850 
L 844 -850 
Q 1081 -850 1212 -737 
Q 1344 -625 1503 -206 
L 1606 56 
L 191 3500 
L 800 3500 
L 1894 763 
L 2988 3500 
L 3597 3500 
L 2059 -325 
z
" transform="scale(0.015625)"/>
      <path id="DejaVuSans-437" d="M 2206 1888 
Q 2594 1813 2809 1584 
Q 3025 1356 3025 1019 
Q 3025 478 2622 193 
Q 2219 -91 1475 -91 
Q 1225 -91 961 -47 
Q 697 -3 416 84 
L 416 619 
Q 638 503 903 445 
Q 1169 388 1459 388 
Q 1931 388 2195 563 
Q 2459 738 2459 1019 
Q 2459 1294 2225 1461 
Q 1991 1628 1563 1628 
L 1100 1628 
L 1100 2103 
L 1584 2103 
Q 1947 2103 2158 2242 
Q 2369 2381 2369 2600 
Q 2369 2800 2151 2944 
Q 1934 3088 1563 3088 
Q 1341 3088 1089 3047 
Q 838 3006 534 2916 
L 534 3438 
Q 841 3513 1106 3550 
Q 1372 3588 1609 3588 
Q 2222 3588 2576 3342 
Q 2931 3097 2931 2656 
Q 2931 2366 2743 2164 
Q 2556 1963 2206 1888 
z
" transform="scale(0.015625)"/>
     </defs>
     <use xlink:href="#DejaVuSans-413" transform="translate(0 0.78125)"/>
     <use xlink:href="#DejaVuSans-440" transform="translate(60.986328 0.78125)"/>
     <use xlink:href="#DejaVuSans-443" transform="translate(124.462891 0.78125)"/>
     <use xlink:href="#DejaVuSans-437" transform="translate(183.642578 0.78125)"/>
     <use xlink:href="#DejaVuSans-43e" transform="translate(236.816406 0.78125)"/>
     <use xlink:href="#DejaVuSans-432" transform="translate(297.998047 0.78125)"/>
     <use xlink:href="#DejaVuSans-44b" transform="translate(356.933594 0.78125)"/>
     <use xlink:href="#DejaVuSans-435" transform="translate(435.888672 0.78125)"/>
     <use xlink:href="#DejaVuSans-20" transform="translate(497.412109 0.78125)"/>
     <use xlink:href="#DejaVuSans-20" transform="translate(529.199219 0.78125)"/>
     <use xlink:href="#DejaVuSans-32" transform="translate(560.986328 0.78125)"/>
     <use xlink:href="#DejaVuSans-30" transform="translate(624.609375 0.78125)"/>
     <use xlink:href="#DejaVuSans-20" transform="translate(688.232422 0.78125)"/>
     <use xlink:href="#DejaVuSans-43c" transform="translate(720.019531 0.78125)"/>
     <use xlink:href="#DejaVuSans-3a" transform="translate(795.458984 0.78125)"/>
     <use xlink:href="#DejaVuSans-20" transform="translate(829.150391 0.78125)"/>
     <use xlink:href="#DejaVuSans-Oblique-3bc" transform="translate(860.9375 0.78125)"/>
     <use xlink:href="#DejaVuSans-3d" transform="translate(944.042969 0.78125)"/>
     <use xlink:href="#DejaVuSans-30" transform="translate(1047.314453 0.78125)"/>
     <use xlink:href="#DejaVuSans-2e" transform="translate(1110.9375 0.78125)"/>
     <use xlink:href="#DejaVuSans-38" transform="translate(1140.099609 0.78125)"/>
     <use xlink:href="#DejaVuSans-2c" transform="translate(1203.722656 0.78125)"/>
     <use xlink:href="#DejaVuSans-20" transform="translate(1235.509766 0.78125)"/>
     <use xlink:href="#DejaVuSans-36" transform="translate(1267.296875 0.78125)"/>
     <use xlink:href="#DejaVuSans-34" transform="translate(1330.919922 0.78125)"/>
     <use xlink:href="#DejaVuSans-20" transform="translate(1394.542969 0.78125)"/>
     <use xlink:href="#DejaVuSans-43a" transform="translate(1426.330078 0.78125)"/>
     <use xlink:href="#DejaVuSans-43c" transform="translate(1486.730469 0.78125)"/>
     <use xlink:href="#DejaVuSans-2f" transform="translate(1562.169922 0.78125)"/>
     <use xlink:href="#DejaVuSans-447" transform="translate(1595.861328 0.78125)"/>
     <use xlink:href="#DejaVuSans-20" transform="translate(1654.943359 0.78125)"/>
     <use xlink:href="#DejaVuSans-20" transform="translate(1686.730469 0.78125)"/>
     <use xlink:href="#DejaVuSans-37" transform="translate(1718.517578 0.78125)"/>
     <use xlink:href="#DejaVuSans-35" transform="translate(1782.140625 0.78125)"/>
     <use xlink:href="#DejaVuSans-36" transform="translate(1845.763672 0.78125)"/>
     <use xlink:href="#DejaVuSans-20" transform="translate(1909.386719 0.78125)"/>
     <use xlink:href="#DejaVuSans-448" transform="translate(1941.173828 0.78125)"/>
     <use xlink:href="#DejaVuSans-442" transform="translate(2032.677734 0.78125)"/>
     <use xlink:href="#DejaVuSans-2f" transform="translate(2090.929688 0.78125)"/>
     <use xlink:href="#DejaVuSans-447" transform="translate(2124.621094 0.78125)"/>
    </g>
   </g>
   <g id="text_22">
    <!-- Грузовые  20 м: $\mu= 0.6$, 55 км/ч  705 шт/ч -->
    <g transform="translate(377.088 300.037481) scale(0.1 -0.1)">
     <use xlink:href="#DejaVuSans-413" transform="translate(0 0.78125)"/>
     <use xlink:href="#DejaVuSans-440" transform="translate(60.986328 0.78125)"/>
     <use xlink:href="#DejaVuSans-443" transform="translate(124.462891 0.78125)"/>
     <use xlink:href="#DejaVuSans-437" transform="translate(183.642578 0.78125)"/>
     <use xlink:href="#DejaVuSans-43e" transform="translate(236.816406 0.78125)"/>
     <use xlink:href="#DejaVuSans-432" transform="translate(297.998047 0.78125)"/>
     <use xlink:href="#DejaVuSans-44b" transform="translate(356.933594 0.78125)"/>
     <use xlink:href="#DejaVuSans-435" transform="translate(435.888672 0.78125)"/>
     <use xlink:href="#DejaVuSans-20" transform="translate(497.412109 0.78125)"/>
     <use xlink:href="#DejaVuSans-20" transform="translate(529.199219 0.78125)"/>
     <use xlink:href="#DejaVuSans-32" transform="translate(560.986328 0.78125)"/>
     <use xlink:href="#DejaVuSans-30" transform="translate(624.609375 0.78125)"/>
     <use xlink:href="#DejaVuSans-20" transform="translate(688.232422 0.78125)"/>
     <use xlink:href="#DejaVuSans-43c" transform="translate(720.019531 0.78125)"/>
     <use xlink:href="#DejaVuSans-3a" transform="translate(795.458984 0.78125)"/>
     <use xlink:href="#DejaVuSans-20" transform="translate(829.150391 0.78125)"/>
     <use xlink:href="#DejaVuSans-Oblique-3bc" transform="translate(860.9375 0.78125)"/>
     <use xlink:href="#DejaVuSans-3d" transform="translate(944.042969 0.78125)"/>
     <use xlink:href="#DejaVuSans-30" transform="translate(1047.314453 0.78125)"/>
     <use xlink:href="#DejaVuSans-2e" transform="translate(1110.9375 0.78125)"/>
     <use xlink:href="#DejaVuSans-36" transform="translate(1142.724609 0.78125)"/>
     <use xlink:href="#DejaVuSans-2c" transform="translate(1206.347656 0.78125)"/>
     <use xlink:href="#DejaVuSans-20" transform="translate(1238.134766 0.78125)"/>
     <use xlink:href="#DejaVuSans-35" transform="translate(1269.921875 0.78125)"/>
     <use xlink:href="#DejaVuSans-35" transform="translate(1333.544922 0.78125)"/>
     <use xlink:href="#DejaVuSans-20" transform="translate(1397.167969 0.78125)"/>
     <use xlink:href="#DejaVuSans-43a" transform="translate(1428.955078 0.78125)"/>
     <use xlink:href="#DejaVuSans-43c" transform="translate(1489.355469 0.78125)"/>
     <use xlink:href="#DejaVuSans-2f" transform="translate(1564.794922 0.78125)"/>
     <use xlink:href="#DejaVuSans-447" transform="translate(1598.486328 0.78125)"/>
     <use xlink:href="#DejaVuSans-20" transform="translate(1657.568359 0.78125)"/>
     <use xlink:href="#DejaVuSans-20" transform="translate(1689.355469 0.78125)"/>
     <use xlink:href="#DejaVuSans-37" transform="translate(1721.142578 0.78125)"/>
     <use xlink:href="#DejaVuSans-30" transform="translate(1784.765625 0.78125)"/>
     <use xlink:href="#DejaVuSans-35" transform="translate(1848.388672 0.78125)"/>
     <use xlink:href="#DejaVuSans-20" transform="translate(1912.011719 0.78125)"/>
     <use xlink:href="#DejaVuSans-448" transform="translate(1943.798828 0.78125)"/>
     <use xlink:href="#DejaVuSans-442" transform="translate(2035.302734 0.78125)"/>
     <use xlink:href="#DejaVuSans-2f" transform="translate(2093.554688 0.78125)"/>
     <use xlink:href="#DejaVuSans-447" transform="translate(2127.246094 0.78125)"/>
    </g>
   </g>
   <g id="text_23">
    <!-- Грузовые  20 м: $\mu= 0.4$, 45 км/ч  632 шт/ч -->
    <g transform="translate(329.472 327.664736) scale(0.1 -0.1)">
     <use xlink:href="#DejaVuSans-413" transform="translate(0 0.78125)"/>
     <use xlink:href="#DejaVuSans-440" transform="translate(60.986328 0.78125)"/>
     <use xlink:href="#DejaVuSans-443" transform="translate(124.462891 0.78125)"/>
     <use xlink:href="#DejaVuSans-437" transform="translate(183.642578 0.78125)"/>
     <use xlink:href="#DejaVuSans-43e" transform="translate(236.816406 0.78125)"/>
     <use xlink:href="#DejaVuSans-432" transform="translate(297.998047 0.78125)"/>
     <use xlink:href="#DejaVuSans-44b" transform="translate(356.933594 0.78125)"/>
     <use xlink:href="#DejaVuSans-435" transform="translate(435.888672 0.78125)"/>
     <use xlink:href="#DejaVuSans-20" transform="translate(497.412109 0.78125)"/>
     <use xlink:href="#DejaVuSans-20" transform="translate(529.199219 0.78125)"/>
     <use xlink:href="#DejaVuSans-32" transform="translate(560.986328 0.78125)"/>
     <use xlink:href="#DejaVuSans-30" transform="translate(624.609375 0.78125)"/>
     <use xlink:href="#DejaVuSans-20" transform="translate(688.232422 0.78125)"/>
     <use xlink:href="#DejaVuSans-43c" transform="translate(720.019531 0.78125)"/>
     <use xlink:href="#DejaVuSans-3a" transform="translate(795.458984 0.78125)"/>
     <use xlink:href="#DejaVuSans-20" transform="translate(829.150391 0.78125)"/>
     <use xlink:href="#DejaVuSans-Oblique-3bc" transform="translate(860.9375 0.78125)"/>
     <use xlink:href="#DejaVuSans-3d" transform="translate(944.042969 0.78125)"/>
     <use xlink:href="#DejaVuSans-30" transform="translate(1047.314453 0.78125)"/>
     <use xlink:href="#DejaVuSans-2e" transform="translate(1110.9375 0.78125)"/>
     <use xlink:href="#DejaVuSans-34" transform="translate(1142.724609 0.78125)"/>
     <use xlink:href="#DejaVuSans-2c" transform="translate(1206.347656 0.78125)"/>
     <use xlink:href="#DejaVuSans-20" transform="translate(1238.134766 0.78125)"/>
     <use xlink:href="#DejaVuSans-34" transform="translate(1269.921875 0.78125)"/>
     <use xlink:href="#DejaVuSans-35" transform="translate(1333.544922 0.78125)"/>
     <use xlink:href="#DejaVuSans-20" transform="translate(1397.167969 0.78125)"/>
     <use xlink:href="#DejaVuSans-43a" transform="translate(1428.955078 0.78125)"/>
     <use xlink:href="#DejaVuSans-43c" transform="translate(1489.355469 0.78125)"/>
     <use xlink:href="#DejaVuSans-2f" transform="translate(1564.794922 0.78125)"/>
     <use xlink:href="#DejaVuSans-447" transform="translate(1598.486328 0.78125)"/>
     <use xlink:href="#DejaVuSans-20" transform="translate(1657.568359 0.78125)"/>
     <use xlink:href="#DejaVuSans-20" transform="translate(1689.355469 0.78125)"/>
     <use xlink:href="#DejaVuSans-36" transform="translate(1721.142578 0.78125)"/>
     <use xlink:href="#DejaVuSans-33" transform="translate(1784.765625 0.78125)"/>
     <use xlink:href="#DejaVuSans-32" transform="translate(1848.388672 0.78125)"/>
     <use xlink:href="#DejaVuSans-20" transform="translate(1912.011719 0.78125)"/>
     <use xlink:href="#DejaVuSans-448" transform="translate(1943.798828 0.78125)"/>
     <use xlink:href="#DejaVuSans-442" transform="translate(2035.302734 0.78125)"/>
     <use xlink:href="#DejaVuSans-2f" transform="translate(2093.554688 0.78125)"/>
     <use xlink:href="#DejaVuSans-447" transform="translate(2127.246094 0.78125)"/>
    </g>
   </g>
   <g id="text_24">
    <!-- Пропускная способность полосы -->
    <g transform="translate(368.28375 71.1552) scale(0.12 -0.12)">
     <defs>
      <path id="DejaVuSans-41f" d="M 4184 4666 
L 4184 0 
L 3553 0 
L 3553 4134 
L 1259 4134 
L 1259 0 
L 628 0 
L 628 4666 
L 4184 4666 
z
" transform="scale(0.015625)"/>
      <path id="DejaVuSans-43f" d="M 3603 3500 
L 3603 0 
L 3025 0 
L 3025 3041 
L 1159 3041 
L 1159 0 
L 581 0 
L 581 3500 
L 3603 3500 
z
" transform="scale(0.015625)"/>
      <path id="DejaVuSans-441" d="M 3122 3366 
L 3122 2828 
Q 2878 2963 2633 3030 
Q 2388 3097 2138 3097 
Q 1578 3097 1268 2742 
Q 959 2388 959 1747 
Q 959 1106 1268 751 
Q 1578 397 2138 397 
Q 2388 397 2633 464 
Q 2878 531 3122 666 
L 3122 134 
Q 2881 22 2623 -34 
Q 2366 -91 2075 -91 
Q 1284 -91 818 406 
Q 353 903 353 1747 
Q 353 2603 823 3093 
Q 1294 3584 2113 3584 
Q 2378 3584 2631 3529 
Q 2884 3475 3122 3366 
z
" transform="scale(0.015625)"/>
      <path id="DejaVuSans-43d" d="M 581 3500 
L 1159 3500 
L 1159 2072 
L 3025 2072 
L 3025 3500 
L 3603 3500 
L 3603 0 
L 3025 0 
L 3025 1613 
L 1159 1613 
L 1159 0 
L 581 0 
L 581 3500 
z
" transform="scale(0.015625)"/>
      <path id="DejaVuSans-430" d="M 2194 1759 
Q 1497 1759 1228 1600 
Q 959 1441 959 1056 
Q 959 750 1161 570 
Q 1363 391 1709 391 
Q 2188 391 2477 730 
Q 2766 1069 2766 1631 
L 2766 1759 
L 2194 1759 
z
M 3341 1997 
L 3341 0 
L 2766 0 
L 2766 531 
Q 2569 213 2275 61 
Q 1981 -91 1556 -91 
Q 1019 -91 701 211 
Q 384 513 384 1019 
Q 384 1609 779 1909 
Q 1175 2209 1959 2209 
L 2766 2209 
L 2766 2266 
Q 2766 2663 2505 2880 
Q 2244 3097 1772 3097 
Q 1472 3097 1187 3025 
Q 903 2953 641 2809 
L 641 3341 
Q 956 3463 1253 3523 
Q 1550 3584 1831 3584 
Q 2591 3584 2966 3190 
Q 3341 2797 3341 1997 
z
" transform="scale(0.015625)"/>
      <path id="DejaVuSans-44f" d="M 1181 2491 
Q 1181 2231 1381 2084 
Q 1581 1938 1953 1938 
L 2728 1938 
L 2728 3041 
L 1953 3041 
Q 1581 3041 1381 2897 
Q 1181 2753 1181 2491 
z
M 363 0 
L 1431 1534 
Q 1069 1616 828 1830 
Q 588 2044 588 2491 
Q 588 2997 923 3248 
Q 1259 3500 1938 3500 
L 3306 3500 
L 3306 0 
L 2728 0 
L 2728 1478 
L 2013 1478 
L 981 0 
L 363 0 
z
" transform="scale(0.015625)"/>
      <path id="DejaVuSans-431" d="M 1991 3584 
Q 2741 3584 3169 3096 
Q 3597 2609 3597 1747 
Q 3597 888 3169 398 
Q 2741 -91 1991 -91 
Q 1238 -91 822 384 
Q 406 859 384 1747 
L 366 2463 
Q 350 2834 350 2963 
Q 350 3463 531 3831 
Q 816 4409 1308 4659 
Q 1800 4909 2625 4916 
Q 3006 4919 3175 4972 
L 3334 4516 
Q 3181 4453 3041 4450 
L 2259 4397 
Q 1866 4369 1628 4231 
Q 1006 3866 947 3388 
L 925 3213 
Q 1331 3584 1991 3584 
z
M 1991 3097 
Q 1528 3097 1259 2736 
Q 991 2375 991 1747 
Q 991 1119 1258 758 
Q 1525 397 1991 397 
Q 2450 397 2719 759 
Q 2988 1122 2988 1747 
Q 2988 2369 2719 2733 
Q 2450 3097 1991 3097 
z
" transform="scale(0.015625)"/>
      <path id="DejaVuSans-44c" d="M 2781 1038 
Q 2781 1319 2576 1466 
Q 2372 1613 1978 1613 
L 1159 1613 
L 1159 459 
L 1978 459 
Q 2372 459 2576 607 
Q 2781 756 2781 1038 
z
M 581 3500 
L 1159 3500 
L 1159 2072 
L 2003 2072 
Q 2672 2072 3033 1817 
Q 3394 1563 3394 1038 
Q 3394 513 3033 256 
Q 2672 0 2003 0 
L 581 0 
L 581 3500 
z
" transform="scale(0.015625)"/>
      <path id="DejaVuSans-43b" d="M 238 0 
L 238 478 
Q 806 566 981 959 
Q 1194 1513 1194 2928 
L 1194 3500 
L 3559 3500 
L 3559 0 
L 2984 0 
L 2984 3041 
L 1769 3041 
L 1769 2694 
Q 1769 1344 1494 738 
Q 1200 91 238 0 
z
" transform="scale(0.015625)"/>
     </defs>
     <use xlink:href="#DejaVuSans-41f"/>
     <use xlink:href="#DejaVuSans-440" x="75.195312"/>
     <use xlink:href="#DejaVuSans-43e" x="138.671875"/>
     <use xlink:href="#DejaVuSans-43f" x="199.853516"/>
     <use xlink:href="#DejaVuSans-443" x="265.234375"/>
     <use xlink:href="#DejaVuSans-441" x="324.414062"/>
     <use xlink:href="#DejaVuSans-43a" x="379.394531"/>
     <use xlink:href="#DejaVuSans-43d" x="439.794922"/>
     <use xlink:href="#DejaVuSans-430" x="505.175781"/>
     <use xlink:href="#DejaVuSans-44f" x="566.455078"/>
     <use xlink:href="#DejaVuSans-20" x="626.611328"/>
     <use xlink:href="#DejaVuSans-441" x="658.398438"/>
     <use xlink:href="#DejaVuSans-43f" x="713.378906"/>
     <use xlink:href="#DejaVuSans-43e" x="778.759766"/>
     <use xlink:href="#DejaVuSans-441" x="839.941406"/>
     <use xlink:href="#DejaVuSans-43e" x="894.921875"/>
     <use xlink:href="#DejaVuSans-431" x="956.103516"/>
     <use xlink:href="#DejaVuSans-43d" x="1017.773438"/>
     <use xlink:href="#DejaVuSans-43e" x="1083.154297"/>
     <use xlink:href="#DejaVuSans-441" x="1144.335938"/>
     <use xlink:href="#DejaVuSans-442" x="1199.316406"/>
     <use xlink:href="#DejaVuSans-44c" x="1257.568359"/>
     <use xlink:href="#DejaVuSans-20" x="1316.503906"/>
     <use xlink:href="#DejaVuSans-43f" x="1348.291016"/>
     <use xlink:href="#DejaVuSans-43e" x="1413.671875"/>
     <use xlink:href="#DejaVuSans-43b" x="1474.853516"/>
     <use xlink:href="#DejaVuSans-43e" x="1538.769531"/>
     <use xlink:href="#DejaVuSans-441" x="1599.951172"/>
     <use xlink:href="#DejaVuSans-44b" x="1654.931641"/>
    </g>
   </g>
  </g>
 </g>
 <defs>
  <clipPath id="p51e8fc3be0">
   <rect x="115.2" y="77.1552" width="714.24" height="495.0792"/>
  </clipPath>
 </defs>
</svg>
