<?xml version="1.0" encoding="utf-8" standalone="no"?>
<!DOCTYPE svg PUBLIC "-//W3C//DTD SVG 1.1//EN"
  "http://www.w3.org/Graphics/SVG/1.1/DTD/svg11.dtd">
<svg xmlns:xlink="http://www.w3.org/1999/xlink" width="921.6pt" height="642.96pt" viewBox="0 0 921.6 642.96" xmlns="http://www.w3.org/2000/svg" version="1.1">
 <metadata>
  <rdf:RDF xmlns:dc="http://purl.org/dc/elements/1.1/" xmlns:cc="http://creativecommons.org/ns#" xmlns:rdf="http://www.w3.org/1999/02/22-rdf-syntax-ns#">
   <cc:Work>
    <dc:type rdf:resource="http://purl.org/dc/dcmitype/StillImage"/>
    <dc:date>2024-12-18T18:27:09.556620</dc:date>
    <dc:format>image/svg+xml</dc:format>
    <dc:creator>
     <cc:Agent>
      <dc:title>Matplotlib v3.6.3, https://matplotlib.org/</dc:title>
     </cc:Agent>
    </dc:creator>
   </cc:Work>
  </rdf:RDF>
 </metadata>
 <defs>
  <style type="text/css">*{stroke-linejoin: round; stroke-linecap: butt}</style>
 </defs>
 <g id="figure_1">
  <g id="patch_1">
   <path d="M 0 642.96 
L 921.6 642.96 
L 921.6 0 
L 0 0 
z
" style="fill: #ffffff"/>
  </g>
  <g id="axes_1">
   <g id="patch_2">
    <path d="M 115.2 572.2344 
L 829.44 572.2344 
L 829.44 77.1552 
L 115.2 77.1552 
z
" style="fill: #ffffff"/>
   </g>
   <g id="matplotlib.axis_1">
    <g id="xtick_1">
     <g id="line2d_1">
      <path d="M 115.2 572.2344 
L 115.2 77.1552 
" clip-path="url(#p507cabb816)" style="fill: none; stroke: #b0b0b0; stroke-width: 0.8; stroke-linecap: square"/>
     </g>
     <g id="line2d_2">
      <defs>
       <path id="m3f0a05356c" d="M 0 0 
L 0 3.5 
" style="stroke: #000000; stroke-width: 0.8"/>
      </defs>
      <g>
       <use xlink:href="#m3f0a05356c" x="115.2" y="572.2344" style="stroke: #000000; stroke-width: 0.8"/>
      </g>
     </g>
     <g id="text_1">
      <!-- 0 -->
      <g transform="translate(112.01875 586.832838) scale(0.1 -0.1)">
       <defs>
        <path id="DejaVuSans-30" d="M 2034 4250 
Q 1547 4250 1301 3770 
Q 1056 3291 1056 2328 
Q 1056 1369 1301 889 
Q 1547 409 2034 409 
Q 2525 409 2770 889 
Q 3016 1369 3016 2328 
Q 3016 3291 2770 3770 
Q 2525 4250 2034 4250 
z
M 2034 4750 
Q 2819 4750 3233 4129 
Q 3647 3509 3647 2328 
Q 3647 1150 3233 529 
Q 2819 -91 2034 -91 
Q 1250 -91 836 529 
Q 422 1150 422 2328 
Q 422 3509 836 4129 
Q 1250 4750 2034 4750 
z
" transform="scale(0.015625)"/>
       </defs>
       <use xlink:href="#DejaVuSans-30"/>
      </g>
     </g>
    </g>
    <g id="xtick_2">
     <g id="line2d_3">
      <path d="M 204.48 572.2344 
L 204.48 77.1552 
" clip-path="url(#p507cabb816)" style="fill: none; stroke: #b0b0b0; stroke-width: 0.8; stroke-linecap: square"/>
     </g>
     <g id="line2d_4">
      <g>
       <use xlink:href="#m3f0a05356c" x="204.48" y="572.2344" style="stroke: #000000; stroke-width: 0.8"/>
      </g>
     </g>
     <g id="text_2">
      <!-- 10 -->
      <g transform="translate(198.1175 586.832838) scale(0.1 -0.1)">
       <defs>
        <path id="DejaVuSans-31" d="M 794 531 
L 1825 531 
L 1825 4091 
L 703 3866 
L 703 4441 
L 1819 4666 
L 2450 4666 
L 2450 531 
L 3481 531 
L 3481 0 
L 794 0 
L 794 531 
z
" transform="scale(0.015625)"/>
       </defs>
       <use xlink:href="#DejaVuSans-31"/>
       <use xlink:href="#DejaVuSans-30" x="63.623047"/>
      </g>
     </g>
    </g>
    <g id="xtick_3">
     <g id="line2d_5">
      <path d="M 293.76 572.2344 
L 293.76 77.1552 
" clip-path="url(#p507cabb816)" style="fill: none; stroke: #b0b0b0; stroke-width: 0.8; stroke-linecap: square"/>
     </g>
     <g id="line2d_6">
      <g>
       <use xlink:href="#m3f0a05356c" x="293.76" y="572.2344" style="stroke: #000000; stroke-width: 0.8"/>
      </g>
     </g>
     <g id="text_3">
      <!-- 20 -->
      <g transform="translate(287.3975 586.832838) scale(0.1 -0.1)">
       <defs>
        <path id="DejaVuSans-32" d="M 1228 531 
L 3431 531 
L 3431 0 
L 469 0 
L 469 531 
Q 828 903 1448 1529 
Q 2069 2156 2228 2338 
Q 2531 2678 2651 2914 
Q 2772 3150 2772 3378 
Q 2772 3750 2511 3984 
Q 2250 4219 1831 4219 
Q 1534 4219 1204 4116 
Q 875 4013 500 3803 
L 500 4441 
Q 881 4594 1212 4672 
Q 1544 4750 1819 4750 
Q 2544 4750 2975 4387 
Q 3406 4025 3406 3419 
Q 3406 3131 3298 2873 
Q 3191 2616 2906 2266 
Q 2828 2175 2409 1742 
Q 1991 1309 1228 531 
z
" transform="scale(0.015625)"/>
       </defs>
       <use xlink:href="#DejaVuSans-32"/>
       <use xlink:href="#DejaVuSans-30" x="63.623047"/>
      </g>
     </g>
    </g>
    <g id="xtick_4">
     <g id="line2d_7">
      <path d="M 383.04 572.2344 
L 383.04 77.1552 
" clip-path="url(#p507cabb816)" style="fill: none; stroke: #b0b0b0; stroke-width: 0.8; stroke-linecap: square"/>
     </g>
     <g id="line2d_8">
      <g>
       <use xlink:href="#m3f0a05356c" x="383.04" y="572.2344" style="stroke: #000000; stroke-width: 0.8"/>
      </g>
     </g>
     <g id="text_4">
      <!-- 30 -->
      <g transform="translate(376.6775 586.832838) scale(0.1 -0.1)">
       <defs>
        <path id="DejaVuSans-33" d="M 2597 2516 
Q 3050 2419 3304 2112 
Q 3559 1806 3559 1356 
Q 3559 666 3084 287 
Q 2609 -91 1734 -91 
Q 1441 -91 1130 -33 
Q 819 25 488 141 
L 488 750 
Q 750 597 1062 519 
Q 1375 441 1716 441 
Q 2309 441 2620 675 
Q 2931 909 2931 1356 
Q 2931 1769 2642 2001 
Q 2353 2234 1838 2234 
L 1294 2234 
L 1294 2753 
L 1863 2753 
Q 2328 2753 2575 2939 
Q 2822 3125 2822 3475 
Q 2822 3834 2567 4026 
Q 2313 4219 1838 4219 
Q 1578 4219 1281 4162 
Q 984 4106 628 3988 
L 628 4550 
Q 988 4650 1302 4700 
Q 1616 4750 1894 4750 
Q 2613 4750 3031 4423 
Q 3450 4097 3450 3541 
Q 3450 3153 3228 2886 
Q 3006 2619 2597 2516 
z
" transform="scale(0.015625)"/>
       </defs>
       <use xlink:href="#DejaVuSans-33"/>
       <use xlink:href="#DejaVuSans-30" x="63.623047"/>
      </g>
     </g>
    </g>
    <g id="xtick_5">
     <g id="line2d_9">
      <path d="M 472.32 572.2344 
L 472.32 77.1552 
" clip-path="url(#p507cabb816)" style="fill: none; stroke: #b0b0b0; stroke-width: 0.8; stroke-linecap: square"/>
     </g>
     <g id="line2d_10">
      <g>
       <use xlink:href="#m3f0a05356c" x="472.32" y="572.2344" style="stroke: #000000; stroke-width: 0.8"/>
      </g>
     </g>
     <g id="text_5">
      <!-- 40 -->
      <g transform="translate(465.9575 586.832838) scale(0.1 -0.1)">
       <defs>
        <path id="DejaVuSans-34" d="M 2419 4116 
L 825 1625 
L 2419 1625 
L 2419 4116 
z
M 2253 4666 
L 3047 4666 
L 3047 1625 
L 3713 1625 
L 3713 1100 
L 3047 1100 
L 3047 0 
L 2419 0 
L 2419 1100 
L 313 1100 
L 313 1709 
L 2253 4666 
z
" transform="scale(0.015625)"/>
       </defs>
       <use xlink:href="#DejaVuSans-34"/>
       <use xlink:href="#DejaVuSans-30" x="63.623047"/>
      </g>
     </g>
    </g>
    <g id="xtick_6">
     <g id="line2d_11">
      <path d="M 561.6 572.2344 
L 561.6 77.1552 
" clip-path="url(#p507cabb816)" style="fill: none; stroke: #b0b0b0; stroke-width: 0.8; stroke-linecap: square"/>
     </g>
     <g id="line2d_12">
      <g>
       <use xlink:href="#m3f0a05356c" x="561.6" y="572.2344" style="stroke: #000000; stroke-width: 0.8"/>
      </g>
     </g>
     <g id="text_6">
      <!-- 50 -->
      <g transform="translate(555.2375 586.832838) scale(0.1 -0.1)">
       <defs>
        <path id="DejaVuSans-35" d="M 691 4666 
L 3169 4666 
L 3169 4134 
L 1269 4134 
L 1269 2991 
Q 1406 3038 1543 3061 
Q 1681 3084 1819 3084 
Q 2600 3084 3056 2656 
Q 3513 2228 3513 1497 
Q 3513 744 3044 326 
Q 2575 -91 1722 -91 
Q 1428 -91 1123 -41 
Q 819 9 494 109 
L 494 744 
Q 775 591 1075 516 
Q 1375 441 1709 441 
Q 2250 441 2565 725 
Q 2881 1009 2881 1497 
Q 2881 1984 2565 2268 
Q 2250 2553 1709 2553 
Q 1456 2553 1204 2497 
Q 953 2441 691 2322 
L 691 4666 
z
" transform="scale(0.015625)"/>
       </defs>
       <use xlink:href="#DejaVuSans-35"/>
       <use xlink:href="#DejaVuSans-30" x="63.623047"/>
      </g>
     </g>
    </g>
    <g id="xtick_7">
     <g id="line2d_13">
      <path d="M 650.88 572.2344 
L 650.88 77.1552 
" clip-path="url(#p507cabb816)" style="fill: none; stroke: #b0b0b0; stroke-width: 0.8; stroke-linecap: square"/>
     </g>
     <g id="line2d_14">
      <g>
       <use xlink:href="#m3f0a05356c" x="650.88" y="572.2344" style="stroke: #000000; stroke-width: 0.8"/>
      </g>
     </g>
     <g id="text_7">
      <!-- 60 -->
      <g transform="translate(644.5175 586.832838) scale(0.1 -0.1)">
       <defs>
        <path id="DejaVuSans-36" d="M 2113 2584 
Q 1688 2584 1439 2293 
Q 1191 2003 1191 1497 
Q 1191 994 1439 701 
Q 1688 409 2113 409 
Q 2538 409 2786 701 
Q 3034 994 3034 1497 
Q 3034 2003 2786 2293 
Q 2538 2584 2113 2584 
z
M 3366 4563 
L 3366 3988 
Q 3128 4100 2886 4159 
Q 2644 4219 2406 4219 
Q 1781 4219 1451 3797 
Q 1122 3375 1075 2522 
Q 1259 2794 1537 2939 
Q 1816 3084 2150 3084 
Q 2853 3084 3261 2657 
Q 3669 2231 3669 1497 
Q 3669 778 3244 343 
Q 2819 -91 2113 -91 
Q 1303 -91 875 529 
Q 447 1150 447 2328 
Q 447 3434 972 4092 
Q 1497 4750 2381 4750 
Q 2619 4750 2861 4703 
Q 3103 4656 3366 4563 
z
" transform="scale(0.015625)"/>
       </defs>
       <use xlink:href="#DejaVuSans-36"/>
       <use xlink:href="#DejaVuSans-30" x="63.623047"/>
      </g>
     </g>
    </g>
    <g id="xtick_8">
     <g id="line2d_15">
      <path d="M 740.16 572.2344 
L 740.16 77.1552 
" clip-path="url(#p507cabb816)" style="fill: none; stroke: #b0b0b0; stroke-width: 0.8; stroke-linecap: square"/>
     </g>
     <g id="line2d_16">
      <g>
       <use xlink:href="#m3f0a05356c" x="740.16" y="572.2344" style="stroke: #000000; stroke-width: 0.8"/>
      </g>
     </g>
     <g id="text_8">
      <!-- 70 -->
      <g transform="translate(733.7975 586.832838) scale(0.1 -0.1)">
       <defs>
        <path id="DejaVuSans-37" d="M 525 4666 
L 3525 4666 
L 3525 4397 
L 1831 0 
L 1172 0 
L 2766 4134 
L 525 4134 
L 525 4666 
z
" transform="scale(0.015625)"/>
       </defs>
       <use xlink:href="#DejaVuSans-37"/>
       <use xlink:href="#DejaVuSans-30" x="63.623047"/>
      </g>
     </g>
    </g>
    <g id="xtick_9">
     <g id="line2d_17">
      <path d="M 829.44 572.2344 
L 829.44 77.1552 
" clip-path="url(#p507cabb816)" style="fill: none; stroke: #b0b0b0; stroke-width: 0.8; stroke-linecap: square"/>
     </g>
     <g id="line2d_18">
      <g>
       <use xlink:href="#m3f0a05356c" x="829.44" y="572.2344" style="stroke: #000000; stroke-width: 0.8"/>
      </g>
     </g>
     <g id="text_9">
      <!-- 80 -->
      <g transform="translate(823.0775 586.832838) scale(0.1 -0.1)">
       <defs>
        <path id="DejaVuSans-38" d="M 2034 2216 
Q 1584 2216 1326 1975 
Q 1069 1734 1069 1313 
Q 1069 891 1326 650 
Q 1584 409 2034 409 
Q 2484 409 2743 651 
Q 3003 894 3003 1313 
Q 3003 1734 2745 1975 
Q 2488 2216 2034 2216 
z
M 1403 2484 
Q 997 2584 770 2862 
Q 544 3141 544 3541 
Q 544 4100 942 4425 
Q 1341 4750 2034 4750 
Q 2731 4750 3128 4425 
Q 3525 4100 3525 3541 
Q 3525 3141 3298 2862 
Q 3072 2584 2669 2484 
Q 3125 2378 3379 2068 
Q 3634 1759 3634 1313 
Q 3634 634 3220 271 
Q 2806 -91 2034 -91 
Q 1263 -91 848 271 
Q 434 634 434 1313 
Q 434 1759 690 2068 
Q 947 2378 1403 2484 
z
M 1172 3481 
Q 1172 3119 1398 2916 
Q 1625 2713 2034 2713 
Q 2441 2713 2670 2916 
Q 2900 3119 2900 3481 
Q 2900 3844 2670 4047 
Q 2441 4250 2034 4250 
Q 1625 4250 1398 4047 
Q 1172 3844 1172 3481 
z
" transform="scale(0.015625)"/>
       </defs>
       <use xlink:href="#DejaVuSans-38"/>
       <use xlink:href="#DejaVuSans-30" x="63.623047"/>
      </g>
     </g>
    </g>
    <g id="text_10">
     <!-- V, км/ч -->
     <g transform="translate(454.291094 600.510963) scale(0.1 -0.1)">
      <defs>
       <path id="DejaVuSans-56" d="M 1831 0 
L 50 4666 
L 709 4666 
L 2188 738 
L 3669 4666 
L 4325 4666 
L 2547 0 
L 1831 0 
z
" transform="scale(0.015625)"/>
       <path id="DejaVuSans-2c" d="M 750 794 
L 1409 794 
L 1409 256 
L 897 -744 
L 494 -744 
L 750 256 
L 750 794 
z
" transform="scale(0.015625)"/>
       <path id="DejaVuSans-20" transform="scale(0.015625)"/>
       <path id="DejaVuSans-43a" d="M 581 3500 
L 1153 3500 
L 1153 1856 
L 2775 3500 
L 3481 3500 
L 2144 2147 
L 3653 0 
L 3009 0 
L 1769 1766 
L 1153 1141 
L 1153 0 
L 581 0 
L 581 3500 
z
" transform="scale(0.015625)"/>
       <path id="DejaVuSans-43c" d="M 581 3500 
L 1422 3500 
L 2416 1156 
L 3413 3500 
L 4247 3500 
L 4247 0 
L 3669 0 
L 3669 2950 
L 2703 672 
L 2128 672 
L 1159 2950 
L 1159 0 
L 581 0 
L 581 3500 
z
" transform="scale(0.015625)"/>
       <path id="DejaVuSans-2f" d="M 1625 4666 
L 2156 4666 
L 531 -594 
L 0 -594 
L 1625 4666 
z
" transform="scale(0.015625)"/>
       <path id="DejaVuSans-447" d="M 2625 0 
L 2625 1472 
L 1553 1472 
Q 1075 1472 756 1769 
Q 469 2038 469 2613 
L 469 3500 
L 1044 3500 
L 1044 2666 
Q 1044 2300 1206 2116 
Q 1372 1931 1697 1931 
L 2625 1931 
L 2625 3500 
L 3200 3500 
L 3200 0 
L 2625 0 
z
" transform="scale(0.015625)"/>
      </defs>
      <use xlink:href="#DejaVuSans-56"/>
      <use xlink:href="#DejaVuSans-2c" x="68.408203"/>
      <use xlink:href="#DejaVuSans-20" x="100.195312"/>
      <use xlink:href="#DejaVuSans-43a" x="131.982422"/>
      <use xlink:href="#DejaVuSans-43c" x="192.382812"/>
      <use xlink:href="#DejaVuSans-2f" x="267.822266"/>
      <use xlink:href="#DejaVuSans-447" x="301.513672"/>
     </g>
    </g>
   </g>
   <g id="matplotlib.axis_2">
    <g id="ytick_1">
     <g id="line2d_19">
      <path d="M 115.2 572.2344 
L 829.44 572.2344 
" clip-path="url(#p507cabb816)" style="fill: none; stroke: #b0b0b0; stroke-width: 0.8; stroke-linecap: square"/>
     </g>
     <g id="line2d_20">
      <defs>
       <path id="m4ca0863b53" d="M 0 0 
L -3.5 0 
" style="stroke: #000000; stroke-width: 0.8"/>
      </defs>
      <g>
       <use xlink:href="#m4ca0863b53" x="115.2" y="572.2344" style="stroke: #000000; stroke-width: 0.8"/>
      </g>
     </g>
     <g id="text_11">
      <!-- 0 -->
      <g transform="translate(101.8375 576.033619) scale(0.1 -0.1)">
       <use xlink:href="#DejaVuSans-30"/>
      </g>
     </g>
    </g>
    <g id="ytick_2">
     <g id="line2d_21">
      <path d="M 115.2 482.22 
L 829.44 482.22 
" clip-path="url(#p507cabb816)" style="fill: none; stroke: #b0b0b0; stroke-width: 0.8; stroke-linecap: square"/>
     </g>
     <g id="line2d_22">
      <g>
       <use xlink:href="#m4ca0863b53" x="115.2" y="482.22" style="stroke: #000000; stroke-width: 0.8"/>
      </g>
     </g>
     <g id="text_12">
      <!-- 200 -->
      <g transform="translate(89.1125 486.019219) scale(0.1 -0.1)">
       <use xlink:href="#DejaVuSans-32"/>
       <use xlink:href="#DejaVuSans-30" x="63.623047"/>
       <use xlink:href="#DejaVuSans-30" x="127.246094"/>
      </g>
     </g>
    </g>
    <g id="ytick_3">
     <g id="line2d_23">
      <path d="M 115.2 392.2056 
L 829.44 392.2056 
" clip-path="url(#p507cabb816)" style="fill: none; stroke: #b0b0b0; stroke-width: 0.8; stroke-linecap: square"/>
     </g>
     <g id="line2d_24">
      <g>
       <use xlink:href="#m4ca0863b53" x="115.2" y="392.2056" style="stroke: #000000; stroke-width: 0.8"/>
      </g>
     </g>
     <g id="text_13">
      <!-- 400 -->
      <g transform="translate(89.1125 396.004819) scale(0.1 -0.1)">
       <use xlink:href="#DejaVuSans-34"/>
       <use xlink:href="#DejaVuSans-30" x="63.623047"/>
       <use xlink:href="#DejaVuSans-30" x="127.246094"/>
      </g>
     </g>
    </g>
    <g id="ytick_4">
     <g id="line2d_25">
      <path d="M 115.2 302.1912 
L 829.44 302.1912 
" clip-path="url(#p507cabb816)" style="fill: none; stroke: #b0b0b0; stroke-width: 0.8; stroke-linecap: square"/>
     </g>
     <g id="line2d_26">
      <g>
       <use xlink:href="#m4ca0863b53" x="115.2" y="302.1912" style="stroke: #000000; stroke-width: 0.8"/>
      </g>
     </g>
     <g id="text_14">
      <!-- 600 -->
      <g transform="translate(89.1125 305.990419) scale(0.1 -0.1)">
       <use xlink:href="#DejaVuSans-36"/>
       <use xlink:href="#DejaVuSans-30" x="63.623047"/>
       <use xlink:href="#DejaVuSans-30" x="127.246094"/>
      </g>
     </g>
    </g>
    <g id="ytick_5">
     <g id="line2d_27">
      <path d="M 115.2 212.1768 
L 829.44 212.1768 
" clip-path="url(#p507cabb816)" style="fill: none; stroke: #b0b0b0; stroke-width: 0.8; stroke-linecap: square"/>
     </g>
     <g id="line2d_28">
      <g>
       <use xlink:href="#m4ca0863b53" x="115.2" y="212.1768" style="stroke: #000000; stroke-width: 0.8"/>
      </g>
     </g>
     <g id="text_15">
      <!-- 800 -->
      <g transform="translate(89.1125 215.976019) scale(0.1 -0.1)">
       <use xlink:href="#DejaVuSans-38"/>
       <use xlink:href="#DejaVuSans-30" x="63.623047"/>
       <use xlink:href="#DejaVuSans-30" x="127.246094"/>
      </g>
     </g>
    </g>
    <g id="ytick_6">
     <g id="line2d_29">
      <path d="M 115.2 122.1624 
L 829.44 122.1624 
" clip-path="url(#p507cabb816)" style="fill: none; stroke: #b0b0b0; stroke-width: 0.8; stroke-linecap: square"/>
     </g>
     <g id="line2d_30">
      <g>
       <use xlink:href="#m4ca0863b53" x="115.2" y="122.1624" style="stroke: #000000; stroke-width: 0.8"/>
      </g>
     </g>
     <g id="text_16">
      <!-- 1000 -->
      <g transform="translate(82.75 125.961619) scale(0.1 -0.1)">
       <use xlink:href="#DejaVuSans-31"/>
       <use xlink:href="#DejaVuSans-30" x="63.623047"/>
       <use xlink:href="#DejaVuSans-30" x="127.246094"/>
       <use xlink:href="#DejaVuSans-30" x="190.869141"/>
      </g>
     </g>
    </g>
    <g id="text_17">
     <!-- n, шт/ч -->
     <g transform="translate(76.670312 343.167456) rotate(-90) scale(0.1 -0.1)">
      <defs>
       <path id="DejaVuSans-6e" d="M 3513 2113 
L 3513 0 
L 2938 0 
L 2938 2094 
Q 2938 2591 2744 2837 
Q 2550 3084 2163 3084 
Q 1697 3084 1428 2787 
Q 1159 2491 1159 1978 
L 1159 0 
L 581 0 
L 581 3500 
L 1159 3500 
L 1159 2956 
Q 1366 3272 1645 3428 
Q 1925 3584 2291 3584 
Q 2894 3584 3203 3211 
Q 3513 2838 3513 2113 
z
" transform="scale(0.015625)"/>
       <path id="DejaVuSans-448" d="M 3216 459 
L 4697 459 
L 4697 3500 
L 5275 3500 
L 5275 0 
L 581 0 
L 581 3500 
L 1159 3500 
L 1159 459 
L 2638 459 
L 2638 3500 
L 3216 3500 
L 3216 459 
z
" transform="scale(0.015625)"/>
       <path id="DejaVuSans-442" d="M 188 3500 
L 3541 3500 
L 3541 3041 
L 2147 3041 
L 2147 0 
L 1581 0 
L 1581 3041 
L 188 3041 
L 188 3500 
z
" transform="scale(0.015625)"/>
      </defs>
      <use xlink:href="#DejaVuSans-6e"/>
      <use xlink:href="#DejaVuSans-2c" x="63.378906"/>
      <use xlink:href="#DejaVuSans-20" x="95.166016"/>
      <use xlink:href="#DejaVuSans-448" x="126.953125"/>
      <use xlink:href="#DejaVuSans-442" x="218.457031"/>
      <use xlink:href="#DejaVuSans-2f" x="276.708984"/>
      <use xlink:href="#DejaVuSans-447" x="310.400391"/>
     </g>
    </g>
   </g>
   <g id="line2d_31">
    <path d="M 115.2 572.2344 
L 124.128 477.788553 
L 133.056 403.998239 
L 141.984 345.507157 
L 150.912 298.621618 
L 159.84 260.715237 
L 168.768 229.871994 
L 177.696 204.66331 
L 186.624 184.003925 
L 195.552 167.055902 
L 204.48 153.163018 
L 213.408 141.804893 
L 222.336 132.564271 
L 231.264 125.10326 
L 240.192 119.145805 
L 249.12 114.464566 
L 258.048 110.870969 
L 266.976 108.20757 
L 275.904 106.342135 
L 284.832 105.163001 
L 293.76 104.575405 
L 302.688 104.498567 
L 311.616 104.863333 
L 320.544 105.610284 
L 329.472 106.688178 
L 338.4 108.052691 
L 347.328 109.665362 
L 356.256 111.49273 
L 365.184 113.505613 
L 374.112 115.6785 
L 383.04 117.989042 
L 391.968 120.417627 
L 400.896 122.947012 
L 409.824 125.562012 
L 418.752 128.24924 
L 427.68 130.996878 
L 436.608 133.79448 
L 445.536 136.632806 
L 454.464 139.503677 
L 463.392 142.39985 
L 472.32 145.314904 
L 481.248 148.243149 
L 490.176 151.17954 
L 499.104 154.119609 
L 508.032 157.059391 
L 516.96 159.995379 
L 525.888 162.924467 
L 534.816 165.84391 
L 543.744 168.751281 
L 552.672 171.644444 
L 561.6 174.521517 
L 570.528 177.380846 
L 579.456 180.220987 
L 588.384 183.040675 
L 597.312 185.838815 
L 606.24 188.614457 
L 615.168 191.366785 
L 624.096 194.095101 
L 633.024 196.798818 
L 641.952 199.477442 
L 650.88 202.130565 
L 659.808 204.75786 
L 668.736 207.359066 
L 677.664 209.933988 
L 686.592 212.482485 
L 695.52 215.004467 
L 704.448 217.49989 
L 713.376 219.968748 
L 722.304 222.411075 
L 731.232 224.826935 
L 740.16 227.21642 
L 749.088 229.57965 
L 758.016 231.916766 
L 766.944 234.227932 
L 775.872 236.513326 
L 784.8 238.773145 
L 793.728 241.0076 
L 802.656 243.216912 
L 811.584 245.401315 
L 820.512 247.56105 
L 829.44 249.696368 
" clip-path="url(#p507cabb816)" style="fill: none; stroke: #00ff00; stroke-width: 1.5; stroke-linecap: square"/>
   </g>
   <g id="line2d_32">
    <path d="M 115.2 572.2344 
L 124.128 477.983208 
L 133.056 405.227041 
L 141.984 348.830029 
L 150.912 305.016879 
L 159.84 270.976257 
L 168.768 244.589612 
L 177.696 224.242958 
L 186.624 208.694363 
L 195.552 196.979398 
L 204.48 188.34283 
L 213.408 182.188692 
L 222.336 178.043373 
L 231.264 175.528077 
L 240.192 174.33805 
L 249.12 174.226789 
L 258.048 174.993931 
L 266.976 176.47589 
L 275.904 178.538571 
L 284.832 181.071656 
L 293.76 183.984096 
L 302.688 187.200529 
L 311.616 190.658429 
L 320.544 194.305808 
L 329.472 198.099369 
L 338.4 202.003002 
L 347.328 205.986568 
L 356.256 210.024898 
L 365.184 214.096972 
L 374.112 218.185248 
L 383.04 222.275097 
L 391.968 226.354343 
L 400.896 230.412879 
L 409.824 234.442341 
L 418.752 238.435838 
L 427.68 242.38773 
L 436.608 246.293433 
L 445.536 250.149259 
L 454.464 253.952283 
L 463.392 257.700223 
L 472.32 261.391346 
L 481.248 265.024384 
L 490.176 268.598462 
L 499.104 272.11304 
L 508.032 275.56786 
L 516.96 278.9629 
L 525.888 282.298341 
L 534.816 285.57453 
L 543.744 288.791957 
L 552.672 291.951225 
L 561.6 295.053036 
L 570.528 298.098171 
L 579.456 301.087473 
L 588.384 304.021838 
L 597.312 306.9022 
L 606.24 309.729525 
L 615.168 312.504801 
L 624.096 315.229031 
L 633.024 317.903228 
L 641.952 320.528409 
L 650.88 323.105592 
L 659.808 325.635791 
L 668.736 328.120013 
L 677.664 330.559258 
L 686.592 332.954513 
L 695.52 335.306753 
L 704.448 337.616938 
L 713.376 339.886011 
L 722.304 342.114902 
L 731.232 344.30452 
L 740.16 346.455759 
L 749.088 348.569493 
L 758.016 350.646578 
L 766.944 352.68785 
L 775.872 354.694128 
L 784.8 356.66621 
L 793.728 358.604878 
L 802.656 360.510893 
L 811.584 362.384998 
L 820.512 364.227919 
L 829.44 366.040361 
" clip-path="url(#p507cabb816)" style="fill: none; stroke: #00d400; stroke-width: 1.5; stroke-linecap: square"/>
   </g>
   <g id="line2d_33">
    <path d="M 115.2 572.2344 
L 124.128 478.56239 
L 133.056 408.808053 
L 141.984 358.238863 
L 150.912 322.526449 
L 159.84 298.068242 
L 168.768 282.017506 
L 177.696 272.19081 
L 186.624 266.941787 
L 195.552 265.040603 
L 204.48 265.572843 
L 213.408 267.859862 
L 222.336 271.398116 
L 231.264 275.81379 
L 240.192 280.829194 
L 249.12 286.237983 
L 258.048 291.886893 
L 266.976 297.662274 
L 275.904 303.480124 
L 284.832 309.278697 
L 293.76 315.012997 
L 302.688 320.650658 
L 311.616 326.168853 
L 320.544 331.551962 
L 329.472 336.789809 
L 338.4 341.876325 
L 347.328 346.808524 
L 356.256 351.585731 
L 365.184 356.208984 
L 374.112 360.680577 
L 383.04 365.003714 
L 391.968 369.182237 
L 400.896 373.220424 
L 409.824 377.122831 
L 418.752 380.894172 
L 427.68 384.539229 
L 436.608 388.062783 
L 445.536 391.469563 
L 454.464 394.76421 
L 463.392 397.951249 
L 472.32 401.035069 
L 481.248 404.019911 
L 490.176 406.909862 
L 499.104 409.708849 
L 508.032 412.420637 
L 516.96 415.048833 
L 525.888 417.596885 
L 534.816 420.068086 
L 543.744 422.465581 
L 552.672 424.792369 
L 561.6 427.051312 
L 570.528 429.245135 
L 579.456 431.376437 
L 588.384 433.447694 
L 597.312 435.461267 
L 606.24 437.419402 
L 615.168 439.324243 
L 624.096 441.177832 
L 633.024 442.982115 
L 641.952 444.738949 
L 650.88 446.450102 
L 659.808 448.117264 
L 668.736 449.742044 
L 677.664 451.325979 
L 686.592 452.870538 
L 695.52 454.377122 
L 704.448 455.847069 
L 713.376 457.281659 
L 722.304 458.682114 
L 731.232 460.049604 
L 740.16 461.385247 
L 749.088 462.690113 
L 758.016 463.965228 
L 766.944 465.211573 
L 775.872 466.430086 
L 784.8 467.621669 
L 793.728 468.787185 
L 802.656 469.927461 
L 811.584 471.043292 
L 820.512 472.13544 
L 829.44 473.204636 
" clip-path="url(#p507cabb816)" style="fill: none; stroke: #00aa00; stroke-width: 1.5; stroke-linecap: square"/>
   </g>
   <g id="line2d_34">
    <path d="M 115.2 572.2344 
L 124.128 554.016023 
L 133.056 536.83504 
L 141.984 520.644127 
L 150.912 505.396776 
L 159.84 491.047514 
L 168.768 477.552083 
L 177.696 464.86757 
L 186.624 452.95251 
L 195.552 441.766957 
L 204.48 431.27253 
L 213.408 421.432439 
L 222.336 412.211488 
L 231.264 403.576071 
L 240.192 395.494153 
L 249.12 387.935237 
L 258.048 380.870328 
L 266.976 374.271895 
L 275.904 368.113817 
L 284.832 362.371335 
L 293.76 357.021002 
L 302.688 352.040624 
L 311.616 347.409211 
L 320.544 343.106916 
L 329.472 339.114989 
L 338.4 335.415716 
L 347.328 331.992372 
L 356.256 328.82917 
L 365.184 325.911211 
L 374.112 323.224436 
L 383.04 320.755583 
L 391.968 318.492143 
L 400.896 316.422318 
L 409.824 314.534981 
L 418.752 312.819639 
L 427.68 311.266397 
L 436.608 309.865924 
L 445.536 308.609422 
L 454.464 307.488591 
L 463.392 306.495608 
L 472.32 305.62309 
L 481.248 304.864078 
L 490.176 304.212004 
L 499.104 303.660674 
L 508.032 303.204246 
L 516.96 302.837203 
L 525.888 302.554345 
L 534.816 302.35076 
L 543.744 302.221814 
L 552.672 302.163131 
L 561.6 302.170583 
L 570.528 302.240269 
L 579.456 302.368506 
L 588.384 302.551817 
L 597.312 302.786917 
L 606.24 303.070703 
L 615.168 303.400243 
L 624.096 303.772766 
L 633.024 304.185654 
L 641.952 304.636434 
L 650.88 305.122765 
L 659.808 305.642438 
L 668.736 306.193362 
L 677.664 306.77356 
L 686.592 307.381162 
L 695.52 308.014402 
L 704.448 308.671607 
L 713.376 309.351194 
L 722.304 310.051669 
L 731.232 310.771616 
L 740.16 311.509694 
L 749.088 312.264637 
L 758.016 313.035246 
L 766.944 313.820386 
L 775.872 314.618982 
L 784.8 315.430019 
L 793.728 316.252534 
L 802.656 317.085618 
L 811.584 317.928407 
L 820.512 318.780088 
L 829.44 319.639887 
" clip-path="url(#p507cabb816)" style="fill: none; stroke: #0000ff; stroke-width: 1.5; stroke-linecap: square"/>
   </g>
   <g id="line2d_35">
    <path d="M 115.2 572.2344 
L 124.128 554.023278 
L 133.056 536.88976 
L 141.984 520.818142 
L 150.912 505.785254 
L 159.84 491.761847 
L 168.768 478.713863 
L 177.696 466.603594 
L 186.624 455.390695 
L 195.552 445.033085 
L 204.48 435.487704 
L 213.408 426.711163 
L 222.336 418.66028 
L 231.264 411.292515 
L 240.192 404.566316 
L 249.12 398.441393 
L 258.048 392.878917 
L 266.976 387.841669 
L 275.904 383.294132 
L 284.832 379.202552 
L 293.76 375.534963 
L 302.688 372.261181 
L 311.616 369.352781 
L 320.544 366.783059 
L 329.472 364.526977 
L 338.4 362.561103 
L 347.328 360.863542 
L 356.256 359.413864 
L 365.184 358.193029 
L 374.112 357.183312 
L 383.04 356.368225 
L 391.968 355.73245 
L 400.896 355.261757 
L 409.824 354.942945 
L 418.752 354.763766 
L 427.68 354.712867 
L 436.608 354.779728 
L 445.536 354.954601 
L 454.464 355.228463 
L 463.392 355.592957 
L 472.32 356.04035 
L 481.248 356.563486 
L 490.176 357.155745 
L 499.104 357.811003 
L 508.032 358.523594 
L 516.96 359.288283 
L 525.888 360.100225 
L 534.816 360.954944 
L 543.744 361.848301 
L 552.672 362.776471 
L 561.6 363.735918 
L 570.528 364.723375 
L 579.456 365.735826 
L 588.384 366.770482 
L 597.312 367.824769 
L 606.24 368.896308 
L 615.168 369.982905 
L 624.096 371.082533 
L 633.024 372.193324 
L 641.952 373.313552 
L 650.88 374.441626 
L 659.808 375.576081 
L 668.736 376.715564 
L 677.664 377.858832 
L 686.592 379.004738 
L 695.52 380.152227 
L 704.448 381.30033 
L 713.376 382.448155 
L 722.304 383.594884 
L 731.232 384.739766 
L 740.16 385.882111 
L 749.088 387.021291 
L 758.016 388.156726 
L 766.944 389.287891 
L 775.872 390.414303 
L 784.8 391.535525 
L 793.728 392.651159 
L 802.656 393.760841 
L 811.584 394.864244 
L 820.512 395.961073 
L 829.44 397.051059 
" clip-path="url(#p507cabb816)" style="fill: none; stroke: #0000d4; stroke-width: 1.5; stroke-linecap: square"/>
   </g>
   <g id="line2d_36">
    <path d="M 115.2 572.2344 
L 124.128 554.045009 
L 133.056 537.05291 
L 141.984 521.333214 
L 150.912 506.92406 
L 159.84 493.831363 
L 168.768 482.034214 
L 177.696 471.49041 
L 186.624 462.141753 
L 195.552 453.918837 
L 204.48 446.74519 
L 213.408 440.540717 
L 222.336 435.224447 
L 231.264 430.716644 
L 240.192 426.940357 
L 249.12 423.822496 
L 258.048 421.294518 
L 266.976 419.292816 
L 275.904 417.758866 
L 284.832 416.6392 
L 293.76 415.885265 
L 302.688 415.453185 
L 311.616 415.303478 
L 320.544 415.400744 
L 329.472 415.713336 
L 338.4 416.213038 
L 347.328 416.874745 
L 356.256 417.676166 
L 365.184 418.59754 
L 374.112 419.621377 
L 383.04 420.732214 
L 391.968 421.916401 
L 400.896 423.1619 
L 409.824 424.458108 
L 418.752 425.795695 
L 427.68 427.166461 
L 436.608 428.563208 
L 445.536 429.979623 
L 454.464 431.410181 
L 463.392 432.850049 
L 472.32 434.295012 
L 481.248 435.741395 
L 490.176 437.186005 
L 499.104 438.626072 
L 508.032 440.059203 
L 516.96 441.483334 
L 525.888 442.896695 
L 534.816 444.297771 
L 543.744 445.685278 
L 552.672 447.058131 
L 561.6 448.415423 
L 570.528 449.756401 
L 579.456 451.080451 
L 588.384 452.387079 
L 597.312 453.675898 
L 606.24 454.946614 
L 615.168 456.199013 
L 624.096 457.432956 
L 633.024 458.648364 
L 641.952 459.845213 
L 650.88 461.023527 
L 659.808 462.183372 
L 668.736 463.324849 
L 677.664 464.448091 
L 686.592 465.553255 
L 695.52 466.640524 
L 704.448 467.710098 
L 713.376 468.762194 
L 722.304 469.797043 
L 731.232 470.814888 
L 740.16 471.815979 
L 749.088 472.800574 
L 758.016 473.76894 
L 766.944 474.721343 
L 775.872 475.658056 
L 784.8 476.579353 
L 793.728 477.485508 
L 802.656 478.376797 
L 811.584 479.253493 
L 820.512 480.115871 
L 829.44 480.964201 
" clip-path="url(#p507cabb816)" style="fill: none; stroke: #0000aa; stroke-width: 1.5; stroke-linecap: square"/>
   </g>
   <g id="patch_3">
    <path d="M 115.2 572.2344 
L 115.2 77.1552 
" style="fill: none; stroke: #000000; stroke-width: 0.8; stroke-linejoin: miter; stroke-linecap: square"/>
   </g>
   <g id="patch_4">
    <path d="M 829.44 572.2344 
L 829.44 77.1552 
" style="fill: none; stroke: #000000; stroke-width: 0.8; stroke-linejoin: miter; stroke-linecap: square"/>
   </g>
   <g id="patch_5">
    <path d="M 115.2 572.2344 
L 829.44 572.2344 
" style="fill: none; stroke: #000000; stroke-width: 0.8; stroke-linejoin: miter; stroke-linecap: square"/>
   </g>
   <g id="patch_6">
    <path d="M 115.2 77.1552 
L 829.44 77.1552 
" style="fill: none; stroke: #000000; stroke-width: 0.8; stroke-linejoin: miter; stroke-linecap: square"/>
   </g>
   <g id="text_18">
    <!-- Легковые 4.2 м: $\mu= 0.4$, 21 км/ч 1039 шт/ч -->
    <g transform="translate(302.688 99.997847) scale(0.1 -0.1)">
     <defs>
      <path id="DejaVuSans-41b" d="M 263 0 
L 263 531 
Q 941 678 1134 1191 
Q 1406 1997 1406 3872 
L 1406 4666 
L 4181 4666 
L 4181 0 
L 3550 0 
L 3550 4134 
L 2034 4134 
L 2034 3559 
Q 2034 1791 1716 966 
Q 1409 175 263 0 
z
" transform="scale(0.015625)"/>
      <path id="DejaVuSans-435" d="M 3597 1894 
L 3597 1613 
L 953 1613 
Q 991 1019 1311 708 
Q 1631 397 2203 397 
Q 2534 397 2845 478 
Q 3156 559 3463 722 
L 3463 178 
Q 3153 47 2828 -22 
Q 2503 -91 2169 -91 
Q 1331 -91 842 396 
Q 353 884 353 1716 
Q 353 2575 817 3079 
Q 1281 3584 2069 3584 
Q 2775 3584 3186 3129 
Q 3597 2675 3597 1894 
z
M 3022 2063 
Q 3016 2534 2758 2815 
Q 2500 3097 2075 3097 
Q 1594 3097 1305 2825 
Q 1016 2553 972 2059 
L 3022 2063 
z
" transform="scale(0.015625)"/>
      <path id="DejaVuSans-433" d="M 581 0 
L 581 3500 
L 3050 3500 
L 3050 3041 
L 1159 3041 
L 1159 0 
L 581 0 
z
" transform="scale(0.015625)"/>
      <path id="DejaVuSans-43e" d="M 1959 3097 
Q 1497 3097 1228 2736 
Q 959 2375 959 1747 
Q 959 1119 1226 758 
Q 1494 397 1959 397 
Q 2419 397 2687 759 
Q 2956 1122 2956 1747 
Q 2956 2369 2687 2733 
Q 2419 3097 1959 3097 
z
M 1959 3584 
Q 2709 3584 3137 3096 
Q 3566 2609 3566 1747 
Q 3566 888 3137 398 
Q 2709 -91 1959 -91 
Q 1206 -91 779 398 
Q 353 888 353 1747 
Q 353 2609 779 3096 
Q 1206 3584 1959 3584 
z
" transform="scale(0.015625)"/>
      <path id="DejaVuSans-432" d="M 1156 1613 
L 1156 459 
L 1975 459 
Q 2369 459 2575 607 
Q 2781 756 2781 1038 
Q 2781 1319 2575 1466 
Q 2369 1613 1975 1613 
L 1156 1613 
z
M 1156 3041 
L 1156 2072 
L 1913 2072 
Q 2238 2072 2444 2201 
Q 2650 2331 2650 2563 
Q 2650 2794 2444 2917 
Q 2238 3041 1913 3041 
L 1156 3041 
z
M 581 3500 
L 1950 3500 
Q 2566 3500 2897 3275 
Q 3228 3050 3228 2634 
Q 3228 2313 3059 2123 
Q 2891 1934 2559 1888 
Q 2956 1813 3175 1575 
Q 3394 1338 3394 981 
Q 3394 513 3033 256 
Q 2672 0 2003 0 
L 581 0 
L 581 3500 
z
" transform="scale(0.015625)"/>
      <path id="DejaVuSans-44b" d="M 3909 3500 
L 4484 3500 
L 4484 0 
L 3909 0 
L 3909 3500 
z
M 4197 3584 
L 4197 3584 
z
M 2781 1038 
Q 2781 1319 2576 1466 
Q 2372 1613 1978 1613 
L 1159 1613 
L 1159 459 
L 1978 459 
Q 2372 459 2576 607 
Q 2781 756 2781 1038 
z
M 581 3500 
L 1159 3500 
L 1159 2072 
L 2003 2072 
Q 2672 2072 3033 1817 
Q 3394 1563 3394 1038 
Q 3394 513 3033 256 
Q 2672 0 2003 0 
L 581 0 
L 581 3500 
z
" transform="scale(0.015625)"/>
      <path id="DejaVuSans-2e" d="M 684 794 
L 1344 794 
L 1344 0 
L 684 0 
L 684 794 
z
" transform="scale(0.015625)"/>
      <path id="DejaVuSans-3a" d="M 750 794 
L 1409 794 
L 1409 0 
L 750 0 
L 750 794 
z
M 750 3309 
L 1409 3309 
L 1409 2516 
L 750 2516 
L 750 3309 
z
" transform="scale(0.015625)"/>
      <path id="DejaVuSans-Oblique-3bc" d="M -84 -1331 
L 856 3500 
L 1434 3500 
L 1009 1322 
Q 997 1256 987 1175 
Q 978 1094 978 1013 
Q 978 722 1161 565 
Q 1344 409 1684 409 
Q 2147 409 2431 671 
Q 2716 934 2816 1459 
L 3213 3500 
L 3788 3500 
L 3266 809 
Q 3253 750 3248 706 
Q 3244 663 3244 628 
Q 3244 531 3283 486 
Q 3322 441 3406 441 
Q 3438 441 3492 456 
Q 3547 472 3647 513 
L 3559 50 
Q 3422 -19 3297 -55 
Q 3172 -91 3053 -91 
Q 2847 -91 2730 40 
Q 2613 172 2613 403 
Q 2438 153 2195 31 
Q 1953 -91 1625 -91 
Q 1334 -91 1117 43 
Q 900 178 831 397 
L 494 -1331 
L -84 -1331 
z
" transform="scale(0.015625)"/>
      <path id="DejaVuSans-3d" d="M 678 2906 
L 4684 2906 
L 4684 2381 
L 678 2381 
L 678 2906 
z
M 678 1631 
L 4684 1631 
L 4684 1100 
L 678 1100 
L 678 1631 
z
" transform="scale(0.015625)"/>
      <path id="DejaVuSans-39" d="M 703 97 
L 703 672 
Q 941 559 1184 500 
Q 1428 441 1663 441 
Q 2288 441 2617 861 
Q 2947 1281 2994 2138 
Q 2813 1869 2534 1725 
Q 2256 1581 1919 1581 
Q 1219 1581 811 2004 
Q 403 2428 403 3163 
Q 403 3881 828 4315 
Q 1253 4750 1959 4750 
Q 2769 4750 3195 4129 
Q 3622 3509 3622 2328 
Q 3622 1225 3098 567 
Q 2575 -91 1691 -91 
Q 1453 -91 1209 -44 
Q 966 3 703 97 
z
M 1959 2075 
Q 2384 2075 2632 2365 
Q 2881 2656 2881 3163 
Q 2881 3666 2632 3958 
Q 2384 4250 1959 4250 
Q 1534 4250 1286 3958 
Q 1038 3666 1038 3163 
Q 1038 2656 1286 2365 
Q 1534 2075 1959 2075 
z
" transform="scale(0.015625)"/>
     </defs>
     <use xlink:href="#DejaVuSans-41b" transform="translate(0 0.78125)"/>
     <use xlink:href="#DejaVuSans-435" transform="translate(75.195312 0.78125)"/>
     <use xlink:href="#DejaVuSans-433" transform="translate(136.71875 0.78125)"/>
     <use xlink:href="#DejaVuSans-43a" transform="translate(189.257812 0.78125)"/>
     <use xlink:href="#DejaVuSans-43e" transform="translate(249.658203 0.78125)"/>
     <use xlink:href="#DejaVuSans-432" transform="translate(310.839844 0.78125)"/>
     <use xlink:href="#DejaVuSans-44b" transform="translate(369.775391 0.78125)"/>
     <use xlink:href="#DejaVuSans-435" transform="translate(448.730469 0.78125)"/>
     <use xlink:href="#DejaVuSans-20" transform="translate(510.253906 0.78125)"/>
     <use xlink:href="#DejaVuSans-34" transform="translate(542.041016 0.78125)"/>
     <use xlink:href="#DejaVuSans-2e" transform="translate(605.664062 0.78125)"/>
     <use xlink:href="#DejaVuSans-32" transform="translate(631.951172 0.78125)"/>
     <use xlink:href="#DejaVuSans-20" transform="translate(695.574219 0.78125)"/>
     <use xlink:href="#DejaVuSans-43c" transform="translate(727.361328 0.78125)"/>
     <use xlink:href="#DejaVuSans-3a" transform="translate(802.800781 0.78125)"/>
     <use xlink:href="#DejaVuSans-20" transform="translate(836.492188 0.78125)"/>
     <use xlink:href="#DejaVuSans-Oblique-3bc" transform="translate(868.279297 0.78125)"/>
     <use xlink:href="#DejaVuSans-3d" transform="translate(951.384766 0.78125)"/>
     <use xlink:href="#DejaVuSans-30" transform="translate(1054.65625 0.78125)"/>
     <use xlink:href="#DejaVuSans-2e" transform="translate(1118.279297 0.78125)"/>
     <use xlink:href="#DejaVuSans-34" transform="translate(1150.066406 0.78125)"/>
     <use xlink:href="#DejaVuSans-2c" transform="translate(1213.689453 0.78125)"/>
     <use xlink:href="#DejaVuSans-20" transform="translate(1245.476562 0.78125)"/>
     <use xlink:href="#DejaVuSans-32" transform="translate(1277.263672 0.78125)"/>
     <use xlink:href="#DejaVuSans-31" transform="translate(1340.886719 0.78125)"/>
     <use xlink:href="#DejaVuSans-20" transform="translate(1404.509766 0.78125)"/>
     <use xlink:href="#DejaVuSans-43a" transform="translate(1436.296875 0.78125)"/>
     <use xlink:href="#DejaVuSans-43c" transform="translate(1496.697266 0.78125)"/>
     <use xlink:href="#DejaVuSans-2f" transform="translate(1572.136719 0.78125)"/>
     <use xlink:href="#DejaVuSans-447" transform="translate(1605.828125 0.78125)"/>
     <use xlink:href="#DejaVuSans-20" transform="translate(1664.910156 0.78125)"/>
     <use xlink:href="#DejaVuSans-31" transform="translate(1696.697266 0.78125)"/>
     <use xlink:href="#DejaVuSans-30" transform="translate(1760.320312 0.78125)"/>
     <use xlink:href="#DejaVuSans-33" transform="translate(1823.943359 0.78125)"/>
     <use xlink:href="#DejaVuSans-39" transform="translate(1887.566406 0.78125)"/>
     <use xlink:href="#DejaVuSans-20" transform="translate(1951.189453 0.78125)"/>
     <use xlink:href="#DejaVuSans-448" transform="translate(1982.976562 0.78125)"/>
     <use xlink:href="#DejaVuSans-442" transform="translate(2074.480469 0.78125)"/>
     <use xlink:href="#DejaVuSans-2f" transform="translate(2132.732422 0.78125)"/>
     <use xlink:href="#DejaVuSans-447" transform="translate(2166.423828 0.78125)"/>
    </g>
   </g>
   <g id="text_19">
    <!-- Легковые 4.2 м: $\mu= 0.2$, 15 км/ч  884 шт/ч -->
    <g transform="translate(249.12 169.726069) scale(0.1 -0.1)">
     <use xlink:href="#DejaVuSans-41b" transform="translate(0 0.78125)"/>
     <use xlink:href="#DejaVuSans-435" transform="translate(75.195312 0.78125)"/>
     <use xlink:href="#DejaVuSans-433" transform="translate(136.71875 0.78125)"/>
     <use xlink:href="#DejaVuSans-43a" transform="translate(189.257812 0.78125)"/>
     <use xlink:href="#DejaVuSans-43e" transform="translate(249.658203 0.78125)"/>
     <use xlink:href="#DejaVuSans-432" transform="translate(310.839844 0.78125)"/>
     <use xlink:href="#DejaVuSans-44b" transform="translate(369.775391 0.78125)"/>
     <use xlink:href="#DejaVuSans-435" transform="translate(448.730469 0.78125)"/>
     <use xlink:href="#DejaVuSans-20" transform="translate(510.253906 0.78125)"/>
     <use xlink:href="#DejaVuSans-34" transform="translate(542.041016 0.78125)"/>
     <use xlink:href="#DejaVuSans-2e" transform="translate(605.664062 0.78125)"/>
     <use xlink:href="#DejaVuSans-32" transform="translate(631.951172 0.78125)"/>
     <use xlink:href="#DejaVuSans-20" transform="translate(695.574219 0.78125)"/>
     <use xlink:href="#DejaVuSans-43c" transform="translate(727.361328 0.78125)"/>
     <use xlink:href="#DejaVuSans-3a" transform="translate(802.800781 0.78125)"/>
     <use xlink:href="#DejaVuSans-20" transform="translate(836.492188 0.78125)"/>
     <use xlink:href="#DejaVuSans-Oblique-3bc" transform="translate(868.279297 0.78125)"/>
     <use xlink:href="#DejaVuSans-3d" transform="translate(951.384766 0.78125)"/>
     <use xlink:href="#DejaVuSans-30" transform="translate(1054.65625 0.78125)"/>
     <use xlink:href="#DejaVuSans-2e" transform="translate(1118.279297 0.78125)"/>
     <use xlink:href="#DejaVuSans-32" transform="translate(1144.566406 0.78125)"/>
     <use xlink:href="#DejaVuSans-2c" transform="translate(1208.189453 0.78125)"/>
     <use xlink:href="#DejaVuSans-20" transform="translate(1239.976562 0.78125)"/>
     <use xlink:href="#DejaVuSans-31" transform="translate(1271.763672 0.78125)"/>
     <use xlink:href="#DejaVuSans-35" transform="translate(1335.386719 0.78125)"/>
     <use xlink:href="#DejaVuSans-20" transform="translate(1399.009766 0.78125)"/>
     <use xlink:href="#DejaVuSans-43a" transform="translate(1430.796875 0.78125)"/>
     <use xlink:href="#DejaVuSans-43c" transform="translate(1491.197266 0.78125)"/>
     <use xlink:href="#DejaVuSans-2f" transform="translate(1566.636719 0.78125)"/>
     <use xlink:href="#DejaVuSans-447" transform="translate(1600.328125 0.78125)"/>
     <use xlink:href="#DejaVuSans-20" transform="translate(1659.410156 0.78125)"/>
     <use xlink:href="#DejaVuSans-20" transform="translate(1691.197266 0.78125)"/>
     <use xlink:href="#DejaVuSans-38" transform="translate(1722.984375 0.78125)"/>
     <use xlink:href="#DejaVuSans-38" transform="translate(1786.607422 0.78125)"/>
     <use xlink:href="#DejaVuSans-34" transform="translate(1850.230469 0.78125)"/>
     <use xlink:href="#DejaVuSans-20" transform="translate(1913.853516 0.78125)"/>
     <use xlink:href="#DejaVuSans-448" transform="translate(1945.640625 0.78125)"/>
     <use xlink:href="#DejaVuSans-442" transform="translate(2037.144531 0.78125)"/>
     <use xlink:href="#DejaVuSans-2f" transform="translate(2095.396484 0.78125)"/>
     <use xlink:href="#DejaVuSans-447" transform="translate(2129.087891 0.78125)"/>
    </g>
   </g>
   <g id="text_20">
    <!-- Легковые 4.2 м: $\mu=0.08$, 9 км/ч  683 шт/ч -->
    <g transform="translate(195.552 260.539883) scale(0.1 -0.1)">
     <use xlink:href="#DejaVuSans-41b" transform="translate(0 0.78125)"/>
     <use xlink:href="#DejaVuSans-435" transform="translate(75.195312 0.78125)"/>
     <use xlink:href="#DejaVuSans-433" transform="translate(136.71875 0.78125)"/>
     <use xlink:href="#DejaVuSans-43a" transform="translate(189.257812 0.78125)"/>
     <use xlink:href="#DejaVuSans-43e" transform="translate(249.658203 0.78125)"/>
     <use xlink:href="#DejaVuSans-432" transform="translate(310.839844 0.78125)"/>
     <use xlink:href="#DejaVuSans-44b" transform="translate(369.775391 0.78125)"/>
     <use xlink:href="#DejaVuSans-435" transform="translate(448.730469 0.78125)"/>
     <use xlink:href="#DejaVuSans-20" transform="translate(510.253906 0.78125)"/>
     <use xlink:href="#DejaVuSans-34" transform="translate(542.041016 0.78125)"/>
     <use xlink:href="#DejaVuSans-2e" transform="translate(605.664062 0.78125)"/>
     <use xlink:href="#DejaVuSans-32" transform="translate(631.951172 0.78125)"/>
     <use xlink:href="#DejaVuSans-20" transform="translate(695.574219 0.78125)"/>
     <use xlink:href="#DejaVuSans-43c" transform="translate(727.361328 0.78125)"/>
     <use xlink:href="#DejaVuSans-3a" transform="translate(802.800781 0.78125)"/>
     <use xlink:href="#DejaVuSans-20" transform="translate(836.492188 0.78125)"/>
     <use xlink:href="#DejaVuSans-Oblique-3bc" transform="translate(868.279297 0.78125)"/>
     <use xlink:href="#DejaVuSans-3d" transform="translate(951.384766 0.78125)"/>
     <use xlink:href="#DejaVuSans-30" transform="translate(1054.65625 0.78125)"/>
     <use xlink:href="#DejaVuSans-2e" transform="translate(1118.279297 0.78125)"/>
     <use xlink:href="#DejaVuSans-30" transform="translate(1150.066406 0.78125)"/>
     <use xlink:href="#DejaVuSans-38" transform="translate(1213.689453 0.78125)"/>
     <use xlink:href="#DejaVuSans-2c" transform="translate(1277.3125 0.78125)"/>
     <use xlink:href="#DejaVuSans-20" transform="translate(1309.099609 0.78125)"/>
     <use xlink:href="#DejaVuSans-39" transform="translate(1340.886719 0.78125)"/>
     <use xlink:href="#DejaVuSans-20" transform="translate(1404.509766 0.78125)"/>
     <use xlink:href="#DejaVuSans-43a" transform="translate(1436.296875 0.78125)"/>
     <use xlink:href="#DejaVuSans-43c" transform="translate(1496.697266 0.78125)"/>
     <use xlink:href="#DejaVuSans-2f" transform="translate(1572.136719 0.78125)"/>
     <use xlink:href="#DejaVuSans-447" transform="translate(1605.828125 0.78125)"/>
     <use xlink:href="#DejaVuSans-20" transform="translate(1664.910156 0.78125)"/>
     <use xlink:href="#DejaVuSans-20" transform="translate(1696.697266 0.78125)"/>
     <use xlink:href="#DejaVuSans-36" transform="translate(1728.484375 0.78125)"/>
     <use xlink:href="#DejaVuSans-38" transform="translate(1792.107422 0.78125)"/>
     <use xlink:href="#DejaVuSans-33" transform="translate(1855.730469 0.78125)"/>
     <use xlink:href="#DejaVuSans-20" transform="translate(1919.353516 0.78125)"/>
     <use xlink:href="#DejaVuSans-448" transform="translate(1951.140625 0.78125)"/>
     <use xlink:href="#DejaVuSans-442" transform="translate(2042.644531 0.78125)"/>
     <use xlink:href="#DejaVuSans-2f" transform="translate(2100.896484 0.78125)"/>
     <use xlink:href="#DejaVuSans-447" transform="translate(2134.587891 0.78125)"/>
    </g>
   </g>
   <g id="text_21">
    <!-- Грузовые  24 м: $\mu= 0.4$, 49 км/ч  600 шт/ч -->
    <g transform="translate(552.672 297.662411) scale(0.1 -0.1)">
     <defs>
      <path id="DejaVuSans-413" d="M 628 0 
L 628 4666 
L 3531 4666 
L 3531 4134 
L 1259 4134 
L 1259 0 
L 628 0 
z
" transform="scale(0.015625)"/>
      <path id="DejaVuSans-440" d="M 1159 525 
L 1159 -1331 
L 581 -1331 
L 581 3500 
L 1159 3500 
L 1159 2969 
Q 1341 3281 1617 3432 
Q 1894 3584 2278 3584 
Q 2916 3584 3314 3078 
Q 3713 2572 3713 1747 
Q 3713 922 3314 415 
Q 2916 -91 2278 -91 
Q 1894 -91 1617 61 
Q 1341 213 1159 525 
z
M 3116 1747 
Q 3116 2381 2855 2742 
Q 2594 3103 2138 3103 
Q 1681 3103 1420 2742 
Q 1159 2381 1159 1747 
Q 1159 1113 1420 752 
Q 1681 391 2138 391 
Q 2594 391 2855 752 
Q 3116 1113 3116 1747 
z
" transform="scale(0.015625)"/>
      <path id="DejaVuSans-443" d="M 2059 -325 
Q 1816 -950 1584 -1140 
Q 1353 -1331 966 -1331 
L 506 -1331 
L 506 -850 
L 844 -850 
Q 1081 -850 1212 -737 
Q 1344 -625 1503 -206 
L 1606 56 
L 191 3500 
L 800 3500 
L 1894 763 
L 2988 3500 
L 3597 3500 
L 2059 -325 
z
" transform="scale(0.015625)"/>
      <path id="DejaVuSans-437" d="M 2206 1888 
Q 2594 1813 2809 1584 
Q 3025 1356 3025 1019 
Q 3025 478 2622 193 
Q 2219 -91 1475 -91 
Q 1225 -91 961 -47 
Q 697 -3 416 84 
L 416 619 
Q 638 503 903 445 
Q 1169 388 1459 388 
Q 1931 388 2195 563 
Q 2459 738 2459 1019 
Q 2459 1294 2225 1461 
Q 1991 1628 1563 1628 
L 1100 1628 
L 1100 2103 
L 1584 2103 
Q 1947 2103 2158 2242 
Q 2369 2381 2369 2600 
Q 2369 2800 2151 2944 
Q 1934 3088 1563 3088 
Q 1341 3088 1089 3047 
Q 838 3006 534 2916 
L 534 3438 
Q 841 3513 1106 3550 
Q 1372 3588 1609 3588 
Q 2222 3588 2576 3342 
Q 2931 3097 2931 2656 
Q 2931 2366 2743 2164 
Q 2556 1963 2206 1888 
z
" transform="scale(0.015625)"/>
     </defs>
     <use xlink:href="#DejaVuSans-413" transform="translate(0 0.78125)"/>
     <use xlink:href="#DejaVuSans-440" transform="translate(60.986328 0.78125)"/>
     <use xlink:href="#DejaVuSans-443" transform="translate(124.462891 0.78125)"/>
     <use xlink:href="#DejaVuSans-437" transform="translate(183.642578 0.78125)"/>
     <use xlink:href="#DejaVuSans-43e" transform="translate(236.816406 0.78125)"/>
     <use xlink:href="#DejaVuSans-432" transform="translate(297.998047 0.78125)"/>
     <use xlink:href="#DejaVuSans-44b" transform="translate(356.933594 0.78125)"/>
     <use xlink:href="#DejaVuSans-435" transform="translate(435.888672 0.78125)"/>
     <use xlink:href="#DejaVuSans-20" transform="translate(497.412109 0.78125)"/>
     <use xlink:href="#DejaVuSans-20" transform="translate(529.199219 0.78125)"/>
     <use xlink:href="#DejaVuSans-32" transform="translate(560.986328 0.78125)"/>
     <use xlink:href="#DejaVuSans-34" transform="translate(624.609375 0.78125)"/>
     <use xlink:href="#DejaVuSans-20" transform="translate(688.232422 0.78125)"/>
     <use xlink:href="#DejaVuSans-43c" transform="translate(720.019531 0.78125)"/>
     <use xlink:href="#DejaVuSans-3a" transform="translate(795.458984 0.78125)"/>
     <use xlink:href="#DejaVuSans-20" transform="translate(829.150391 0.78125)"/>
     <use xlink:href="#DejaVuSans-Oblique-3bc" transform="translate(860.9375 0.78125)"/>
     <use xlink:href="#DejaVuSans-3d" transform="translate(944.042969 0.78125)"/>
     <use xlink:href="#DejaVuSans-30" transform="translate(1047.314453 0.78125)"/>
     <use xlink:href="#DejaVuSans-2e" transform="translate(1110.9375 0.78125)"/>
     <use xlink:href="#DejaVuSans-34" transform="translate(1142.724609 0.78125)"/>
     <use xlink:href="#DejaVuSans-2c" transform="translate(1206.347656 0.78125)"/>
     <use xlink:href="#DejaVuSans-20" transform="translate(1238.134766 0.78125)"/>
     <use xlink:href="#DejaVuSans-34" transform="translate(1269.921875 0.78125)"/>
     <use xlink:href="#DejaVuSans-39" transform="translate(1333.544922 0.78125)"/>
     <use xlink:href="#DejaVuSans-20" transform="translate(1397.167969 0.78125)"/>
     <use xlink:href="#DejaVuSans-43a" transform="translate(1428.955078 0.78125)"/>
     <use xlink:href="#DejaVuSans-43c" transform="translate(1489.355469 0.78125)"/>
     <use xlink:href="#DejaVuSans-2f" transform="translate(1564.794922 0.78125)"/>
     <use xlink:href="#DejaVuSans-447" transform="translate(1598.486328 0.78125)"/>
     <use xlink:href="#DejaVuSans-20" transform="translate(1657.568359 0.78125)"/>
     <use xlink:href="#DejaVuSans-20" transform="translate(1689.355469 0.78125)"/>
     <use xlink:href="#DejaVuSans-36" transform="translate(1721.142578 0.78125)"/>
     <use xlink:href="#DejaVuSans-30" transform="translate(1784.765625 0.78125)"/>
     <use xlink:href="#DejaVuSans-30" transform="translate(1848.388672 0.78125)"/>
     <use xlink:href="#DejaVuSans-20" transform="translate(1912.011719 0.78125)"/>
     <use xlink:href="#DejaVuSans-448" transform="translate(1943.798828 0.78125)"/>
     <use xlink:href="#DejaVuSans-442" transform="translate(2035.302734 0.78125)"/>
     <use xlink:href="#DejaVuSans-2f" transform="translate(2093.554688 0.78125)"/>
     <use xlink:href="#DejaVuSans-447" transform="translate(2127.246094 0.78125)"/>
    </g>
   </g>
   <g id="text_22">
    <!-- Грузовые  24 м: $\mu= 0.2$, 35 км/ч  483 шт/ч -->
    <g transform="translate(427.68 350.212147) scale(0.1 -0.1)">
     <use xlink:href="#DejaVuSans-413" transform="translate(0 0.78125)"/>
     <use xlink:href="#DejaVuSans-440" transform="translate(60.986328 0.78125)"/>
     <use xlink:href="#DejaVuSans-443" transform="translate(124.462891 0.78125)"/>
     <use xlink:href="#DejaVuSans-437" transform="translate(183.642578 0.78125)"/>
     <use xlink:href="#DejaVuSans-43e" transform="translate(236.816406 0.78125)"/>
     <use xlink:href="#DejaVuSans-432" transform="translate(297.998047 0.78125)"/>
     <use xlink:href="#DejaVuSans-44b" transform="translate(356.933594 0.78125)"/>
     <use xlink:href="#DejaVuSans-435" transform="translate(435.888672 0.78125)"/>
     <use xlink:href="#DejaVuSans-20" transform="translate(497.412109 0.78125)"/>
     <use xlink:href="#DejaVuSans-20" transform="translate(529.199219 0.78125)"/>
     <use xlink:href="#DejaVuSans-32" transform="translate(560.986328 0.78125)"/>
     <use xlink:href="#DejaVuSans-34" transform="translate(624.609375 0.78125)"/>
     <use xlink:href="#DejaVuSans-20" transform="translate(688.232422 0.78125)"/>
     <use xlink:href="#DejaVuSans-43c" transform="translate(720.019531 0.78125)"/>
     <use xlink:href="#DejaVuSans-3a" transform="translate(795.458984 0.78125)"/>
     <use xlink:href="#DejaVuSans-20" transform="translate(829.150391 0.78125)"/>
     <use xlink:href="#DejaVuSans-Oblique-3bc" transform="translate(860.9375 0.78125)"/>
     <use xlink:href="#DejaVuSans-3d" transform="translate(944.042969 0.78125)"/>
     <use xlink:href="#DejaVuSans-30" transform="translate(1047.314453 0.78125)"/>
     <use xlink:href="#DejaVuSans-2e" transform="translate(1110.9375 0.78125)"/>
     <use xlink:href="#DejaVuSans-32" transform="translate(1137.224609 0.78125)"/>
     <use xlink:href="#DejaVuSans-2c" transform="translate(1200.847656 0.78125)"/>
     <use xlink:href="#DejaVuSans-20" transform="translate(1232.634766 0.78125)"/>
     <use xlink:href="#DejaVuSans-33" transform="translate(1264.421875 0.78125)"/>
     <use xlink:href="#DejaVuSans-35" transform="translate(1328.044922 0.78125)"/>
     <use xlink:href="#DejaVuSans-20" transform="translate(1391.667969 0.78125)"/>
     <use xlink:href="#DejaVuSans-43a" transform="translate(1423.455078 0.78125)"/>
     <use xlink:href="#DejaVuSans-43c" transform="translate(1483.855469 0.78125)"/>
     <use xlink:href="#DejaVuSans-2f" transform="translate(1559.294922 0.78125)"/>
     <use xlink:href="#DejaVuSans-447" transform="translate(1592.986328 0.78125)"/>
     <use xlink:href="#DejaVuSans-20" transform="translate(1652.068359 0.78125)"/>
     <use xlink:href="#DejaVuSans-20" transform="translate(1683.855469 0.78125)"/>
     <use xlink:href="#DejaVuSans-34" transform="translate(1715.642578 0.78125)"/>
     <use xlink:href="#DejaVuSans-38" transform="translate(1779.265625 0.78125)"/>
     <use xlink:href="#DejaVuSans-33" transform="translate(1842.888672 0.78125)"/>
     <use xlink:href="#DejaVuSans-20" transform="translate(1906.511719 0.78125)"/>
     <use xlink:href="#DejaVuSans-448" transform="translate(1938.298828 0.78125)"/>
     <use xlink:href="#DejaVuSans-442" transform="translate(2029.802734 0.78125)"/>
     <use xlink:href="#DejaVuSans-2f" transform="translate(2088.054688 0.78125)"/>
     <use xlink:href="#DejaVuSans-447" transform="translate(2121.746094 0.78125)"/>
    </g>
   </g>
   <g id="text_23">
    <!-- Грузовые  24 м: $\mu=0.08$, 22 км/ч  349 шт/ч -->
    <g transform="translate(311.616 410.802758) scale(0.1 -0.1)">
     <use xlink:href="#DejaVuSans-413" transform="translate(0 0.78125)"/>
     <use xlink:href="#DejaVuSans-440" transform="translate(60.986328 0.78125)"/>
     <use xlink:href="#DejaVuSans-443" transform="translate(124.462891 0.78125)"/>
     <use xlink:href="#DejaVuSans-437" transform="translate(183.642578 0.78125)"/>
     <use xlink:href="#DejaVuSans-43e" transform="translate(236.816406 0.78125)"/>
     <use xlink:href="#DejaVuSans-432" transform="translate(297.998047 0.78125)"/>
     <use xlink:href="#DejaVuSans-44b" transform="translate(356.933594 0.78125)"/>
     <use xlink:href="#DejaVuSans-435" transform="translate(435.888672 0.78125)"/>
     <use xlink:href="#DejaVuSans-20" transform="translate(497.412109 0.78125)"/>
     <use xlink:href="#DejaVuSans-20" transform="translate(529.199219 0.78125)"/>
     <use xlink:href="#DejaVuSans-32" transform="translate(560.986328 0.78125)"/>
     <use xlink:href="#DejaVuSans-34" transform="translate(624.609375 0.78125)"/>
     <use xlink:href="#DejaVuSans-20" transform="translate(688.232422 0.78125)"/>
     <use xlink:href="#DejaVuSans-43c" transform="translate(720.019531 0.78125)"/>
     <use xlink:href="#DejaVuSans-3a" transform="translate(795.458984 0.78125)"/>
     <use xlink:href="#DejaVuSans-20" transform="translate(829.150391 0.78125)"/>
     <use xlink:href="#DejaVuSans-Oblique-3bc" transform="translate(860.9375 0.78125)"/>
     <use xlink:href="#DejaVuSans-3d" transform="translate(944.042969 0.78125)"/>
     <use xlink:href="#DejaVuSans-30" transform="translate(1047.314453 0.78125)"/>
     <use xlink:href="#DejaVuSans-2e" transform="translate(1110.9375 0.78125)"/>
     <use xlink:href="#DejaVuSans-30" transform="translate(1142.724609 0.78125)"/>
     <use xlink:href="#DejaVuSans-38" transform="translate(1206.347656 0.78125)"/>
     <use xlink:href="#DejaVuSans-2c" transform="translate(1269.970703 0.78125)"/>
     <use xlink:href="#DejaVuSans-20" transform="translate(1301.757812 0.78125)"/>
     <use xlink:href="#DejaVuSans-32" transform="translate(1333.544922 0.78125)"/>
     <use xlink:href="#DejaVuSans-32" transform="translate(1397.167969 0.78125)"/>
     <use xlink:href="#DejaVuSans-20" transform="translate(1460.791016 0.78125)"/>
     <use xlink:href="#DejaVuSans-43a" transform="translate(1492.578125 0.78125)"/>
     <use xlink:href="#DejaVuSans-43c" transform="translate(1552.978516 0.78125)"/>
     <use xlink:href="#DejaVuSans-2f" transform="translate(1628.417969 0.78125)"/>
     <use xlink:href="#DejaVuSans-447" transform="translate(1662.109375 0.78125)"/>
     <use xlink:href="#DejaVuSans-20" transform="translate(1721.191406 0.78125)"/>
     <use xlink:href="#DejaVuSans-20" transform="translate(1752.978516 0.78125)"/>
     <use xlink:href="#DejaVuSans-33" transform="translate(1784.765625 0.78125)"/>
     <use xlink:href="#DejaVuSans-34" transform="translate(1848.388672 0.78125)"/>
     <use xlink:href="#DejaVuSans-39" transform="translate(1912.011719 0.78125)"/>
     <use xlink:href="#DejaVuSans-20" transform="translate(1975.634766 0.78125)"/>
     <use xlink:href="#DejaVuSans-448" transform="translate(2007.421875 0.78125)"/>
     <use xlink:href="#DejaVuSans-442" transform="translate(2098.925781 0.78125)"/>
     <use xlink:href="#DejaVuSans-2f" transform="translate(2157.177734 0.78125)"/>
     <use xlink:href="#DejaVuSans-447" transform="translate(2190.869141 0.78125)"/>
    </g>
   </g>
   <g id="text_24">
    <!-- Пропускная способность полосы -->
    <g transform="translate(368.28375 71.1552) scale(0.12 -0.12)">
     <defs>
      <path id="DejaVuSans-41f" d="M 4184 4666 
L 4184 0 
L 3553 0 
L 3553 4134 
L 1259 4134 
L 1259 0 
L 628 0 
L 628 4666 
L 4184 4666 
z
" transform="scale(0.015625)"/>
      <path id="DejaVuSans-43f" d="M 3603 3500 
L 3603 0 
L 3025 0 
L 3025 3041 
L 1159 3041 
L 1159 0 
L 581 0 
L 581 3500 
L 3603 3500 
z
" transform="scale(0.015625)"/>
      <path id="DejaVuSans-441" d="M 3122 3366 
L 3122 2828 
Q 2878 2963 2633 3030 
Q 2388 3097 2138 3097 
Q 1578 3097 1268 2742 
Q 959 2388 959 1747 
Q 959 1106 1268 751 
Q 1578 397 2138 397 
Q 2388 397 2633 464 
Q 2878 531 3122 666 
L 3122 134 
Q 2881 22 2623 -34 
Q 2366 -91 2075 -91 
Q 1284 -91 818 406 
Q 353 903 353 1747 
Q 353 2603 823 3093 
Q 1294 3584 2113 3584 
Q 2378 3584 2631 3529 
Q 2884 3475 3122 3366 
z
" transform="scale(0.015625)"/>
      <path id="DejaVuSans-43d" d="M 581 3500 
L 1159 3500 
L 1159 2072 
L 3025 2072 
L 3025 3500 
L 3603 3500 
L 3603 0 
L 3025 0 
L 3025 1613 
L 1159 1613 
L 1159 0 
L 581 0 
L 581 3500 
z
" transform="scale(0.015625)"/>
      <path id="DejaVuSans-430" d="M 2194 1759 
Q 1497 1759 1228 1600 
Q 959 1441 959 1056 
Q 959 750 1161 570 
Q 1363 391 1709 391 
Q 2188 391 2477 730 
Q 2766 1069 2766 1631 
L 2766 1759 
L 2194 1759 
z
M 3341 1997 
L 3341 0 
L 2766 0 
L 2766 531 
Q 2569 213 2275 61 
Q 1981 -91 1556 -91 
Q 1019 -91 701 211 
Q 384 513 384 1019 
Q 384 1609 779 1909 
Q 1175 2209 1959 2209 
L 2766 2209 
L 2766 2266 
Q 2766 2663 2505 2880 
Q 2244 3097 1772 3097 
Q 1472 3097 1187 3025 
Q 903 2953 641 2809 
L 641 3341 
Q 956 3463 1253 3523 
Q 1550 3584 1831 3584 
Q 2591 3584 2966 3190 
Q 3341 2797 3341 1997 
z
" transform="scale(0.015625)"/>
      <path id="DejaVuSans-44f" d="M 1181 2491 
Q 1181 2231 1381 2084 
Q 1581 1938 1953 1938 
L 2728 1938 
L 2728 3041 
L 1953 3041 
Q 1581 3041 1381 2897 
Q 1181 2753 1181 2491 
z
M 363 0 
L 1431 1534 
Q 1069 1616 828 1830 
Q 588 2044 588 2491 
Q 588 2997 923 3248 
Q 1259 3500 1938 3500 
L 3306 3500 
L 3306 0 
L 2728 0 
L 2728 1478 
L 2013 1478 
L 981 0 
L 363 0 
z
" transform="scale(0.015625)"/>
      <path id="DejaVuSans-431" d="M 1991 3584 
Q 2741 3584 3169 3096 
Q 3597 2609 3597 1747 
Q 3597 888 3169 398 
Q 2741 -91 1991 -91 
Q 1238 -91 822 384 
Q 406 859 384 1747 
L 366 2463 
Q 350 2834 350 2963 
Q 350 3463 531 3831 
Q 816 4409 1308 4659 
Q 1800 4909 2625 4916 
Q 3006 4919 3175 4972 
L 3334 4516 
Q 3181 4453 3041 4450 
L 2259 4397 
Q 1866 4369 1628 4231 
Q 1006 3866 947 3388 
L 925 3213 
Q 1331 3584 1991 3584 
z
M 1991 3097 
Q 1528 3097 1259 2736 
Q 991 2375 991 1747 
Q 991 1119 1258 758 
Q 1525 397 1991 397 
Q 2450 397 2719 759 
Q 2988 1122 2988 1747 
Q 2988 2369 2719 2733 
Q 2450 3097 1991 3097 
z
" transform="scale(0.015625)"/>
      <path id="DejaVuSans-44c" d="M 2781 1038 
Q 2781 1319 2576 1466 
Q 2372 1613 1978 1613 
L 1159 1613 
L 1159 459 
L 1978 459 
Q 2372 459 2576 607 
Q 2781 756 2781 1038 
z
M 581 3500 
L 1159 3500 
L 1159 2072 
L 2003 2072 
Q 2672 2072 3033 1817 
Q 3394 1563 3394 1038 
Q 3394 513 3033 256 
Q 2672 0 2003 0 
L 581 0 
L 581 3500 
z
" transform="scale(0.015625)"/>
      <path id="DejaVuSans-43b" d="M 238 0 
L 238 478 
Q 806 566 981 959 
Q 1194 1513 1194 2928 
L 1194 3500 
L 3559 3500 
L 3559 0 
L 2984 0 
L 2984 3041 
L 1769 3041 
L 1769 2694 
Q 1769 1344 1494 738 
Q 1200 91 238 0 
z
" transform="scale(0.015625)"/>
     </defs>
     <use xlink:href="#DejaVuSans-41f"/>
     <use xlink:href="#DejaVuSans-440" x="75.195312"/>
     <use xlink:href="#DejaVuSans-43e" x="138.671875"/>
     <use xlink:href="#DejaVuSans-43f" x="199.853516"/>
     <use xlink:href="#DejaVuSans-443" x="265.234375"/>
     <use xlink:href="#DejaVuSans-441" x="324.414062"/>
     <use xlink:href="#DejaVuSans-43a" x="379.394531"/>
     <use xlink:href="#DejaVuSans-43d" x="439.794922"/>
     <use xlink:href="#DejaVuSans-430" x="505.175781"/>
     <use xlink:href="#DejaVuSans-44f" x="566.455078"/>
     <use xlink:href="#DejaVuSans-20" x="626.611328"/>
     <use xlink:href="#DejaVuSans-441" x="658.398438"/>
     <use xlink:href="#DejaVuSans-43f" x="713.378906"/>
     <use xlink:href="#DejaVuSans-43e" x="778.759766"/>
     <use xlink:href="#DejaVuSans-441" x="839.941406"/>
     <use xlink:href="#DejaVuSans-43e" x="894.921875"/>
     <use xlink:href="#DejaVuSans-431" x="956.103516"/>
     <use xlink:href="#DejaVuSans-43d" x="1017.773438"/>
     <use xlink:href="#DejaVuSans-43e" x="1083.154297"/>
     <use xlink:href="#DejaVuSans-441" x="1144.335938"/>
     <use xlink:href="#DejaVuSans-442" x="1199.316406"/>
     <use xlink:href="#DejaVuSans-44c" x="1257.568359"/>
     <use xlink:href="#DejaVuSans-20" x="1316.503906"/>
     <use xlink:href="#DejaVuSans-43f" x="1348.291016"/>
     <use xlink:href="#DejaVuSans-43e" x="1413.671875"/>
     <use xlink:href="#DejaVuSans-43b" x="1474.853516"/>
     <use xlink:href="#DejaVuSans-43e" x="1538.769531"/>
     <use xlink:href="#DejaVuSans-441" x="1599.951172"/>
     <use xlink:href="#DejaVuSans-44b" x="1654.931641"/>
    </g>
   </g>
  </g>
 </g>
 <defs>
  <clipPath id="p507cabb816">
   <rect x="115.2" y="77.1552" width="714.24" height="495.0792"/>
  </clipPath>
 </defs>
</svg>
