<?xml version="1.0" encoding="utf-8" standalone="no"?>
<!DOCTYPE svg PUBLIC "-//W3C//DTD SVG 1.1//EN"
  "http://www.w3.org/Graphics/SVG/1.1/DTD/svg11.dtd">
<svg xmlns:xlink="http://www.w3.org/1999/xlink" width="921.6pt" height="642.96pt" viewBox="0 0 921.6 642.96" xmlns="http://www.w3.org/2000/svg" version="1.1">
 <metadata>
  <rdf:RDF xmlns:dc="http://purl.org/dc/elements/1.1/" xmlns:cc="http://creativecommons.org/ns#" xmlns:rdf="http://www.w3.org/1999/02/22-rdf-syntax-ns#">
   <cc:Work>
    <dc:type rdf:resource="http://purl.org/dc/dcmitype/StillImage"/>
    <dc:date>2024-12-18T18:26:38.436648</dc:date>
    <dc:format>image/svg+xml</dc:format>
    <dc:creator>
     <cc:Agent>
      <dc:title>Matplotlib v3.6.3, https://matplotlib.org/</dc:title>
     </cc:Agent>
    </dc:creator>
   </cc:Work>
  </rdf:RDF>
 </metadata>
 <defs>
  <style type="text/css">*{stroke-linejoin: round; stroke-linecap: butt}</style>
 </defs>
 <g id="figure_1">
  <g id="patch_1">
   <path d="M 0 642.96 
L 921.6 642.96 
L 921.6 0 
L 0 0 
z
" style="fill: #ffffff"/>
  </g>
  <g id="axes_1">
   <g id="patch_2">
    <path d="M 115.2 572.2344 
L 829.44 572.2344 
L 829.44 77.1552 
L 115.2 77.1552 
z
" style="fill: #ffffff"/>
   </g>
   <g id="matplotlib.axis_1">
    <g id="xtick_1">
     <g id="line2d_1">
      <path d="M 115.2 572.2344 
L 115.2 77.1552 
" clip-path="url(#p60da8139e4)" style="fill: none; stroke: #b0b0b0; stroke-width: 0.8; stroke-linecap: square"/>
     </g>
     <g id="line2d_2">
      <defs>
       <path id="mc8b005e26e" d="M 0 0 
L 0 3.5 
" style="stroke: #000000; stroke-width: 0.8"/>
      </defs>
      <g>
       <use xlink:href="#mc8b005e26e" x="115.2" y="572.2344" style="stroke: #000000; stroke-width: 0.8"/>
      </g>
     </g>
     <g id="text_1">
      <!-- 0 -->
      <g transform="translate(112.01875 586.832838) scale(0.1 -0.1)">
       <defs>
        <path id="DejaVuSans-30" d="M 2034 4250 
Q 1547 4250 1301 3770 
Q 1056 3291 1056 2328 
Q 1056 1369 1301 889 
Q 1547 409 2034 409 
Q 2525 409 2770 889 
Q 3016 1369 3016 2328 
Q 3016 3291 2770 3770 
Q 2525 4250 2034 4250 
z
M 2034 4750 
Q 2819 4750 3233 4129 
Q 3647 3509 3647 2328 
Q 3647 1150 3233 529 
Q 2819 -91 2034 -91 
Q 1250 -91 836 529 
Q 422 1150 422 2328 
Q 422 3509 836 4129 
Q 1250 4750 2034 4750 
z
" transform="scale(0.015625)"/>
       </defs>
       <use xlink:href="#DejaVuSans-30"/>
      </g>
     </g>
    </g>
    <g id="xtick_2">
     <g id="line2d_3">
      <path d="M 204.48 572.2344 
L 204.48 77.1552 
" clip-path="url(#p60da8139e4)" style="fill: none; stroke: #b0b0b0; stroke-width: 0.8; stroke-linecap: square"/>
     </g>
     <g id="line2d_4">
      <g>
       <use xlink:href="#mc8b005e26e" x="204.48" y="572.2344" style="stroke: #000000; stroke-width: 0.8"/>
      </g>
     </g>
     <g id="text_2">
      <!-- 10 -->
      <g transform="translate(198.1175 586.832838) scale(0.1 -0.1)">
       <defs>
        <path id="DejaVuSans-31" d="M 794 531 
L 1825 531 
L 1825 4091 
L 703 3866 
L 703 4441 
L 1819 4666 
L 2450 4666 
L 2450 531 
L 3481 531 
L 3481 0 
L 794 0 
L 794 531 
z
" transform="scale(0.015625)"/>
       </defs>
       <use xlink:href="#DejaVuSans-31"/>
       <use xlink:href="#DejaVuSans-30" x="63.623047"/>
      </g>
     </g>
    </g>
    <g id="xtick_3">
     <g id="line2d_5">
      <path d="M 293.76 572.2344 
L 293.76 77.1552 
" clip-path="url(#p60da8139e4)" style="fill: none; stroke: #b0b0b0; stroke-width: 0.8; stroke-linecap: square"/>
     </g>
     <g id="line2d_6">
      <g>
       <use xlink:href="#mc8b005e26e" x="293.76" y="572.2344" style="stroke: #000000; stroke-width: 0.8"/>
      </g>
     </g>
     <g id="text_3">
      <!-- 20 -->
      <g transform="translate(287.3975 586.832838) scale(0.1 -0.1)">
       <defs>
        <path id="DejaVuSans-32" d="M 1228 531 
L 3431 531 
L 3431 0 
L 469 0 
L 469 531 
Q 828 903 1448 1529 
Q 2069 2156 2228 2338 
Q 2531 2678 2651 2914 
Q 2772 3150 2772 3378 
Q 2772 3750 2511 3984 
Q 2250 4219 1831 4219 
Q 1534 4219 1204 4116 
Q 875 4013 500 3803 
L 500 4441 
Q 881 4594 1212 4672 
Q 1544 4750 1819 4750 
Q 2544 4750 2975 4387 
Q 3406 4025 3406 3419 
Q 3406 3131 3298 2873 
Q 3191 2616 2906 2266 
Q 2828 2175 2409 1742 
Q 1991 1309 1228 531 
z
" transform="scale(0.015625)"/>
       </defs>
       <use xlink:href="#DejaVuSans-32"/>
       <use xlink:href="#DejaVuSans-30" x="63.623047"/>
      </g>
     </g>
    </g>
    <g id="xtick_4">
     <g id="line2d_7">
      <path d="M 383.04 572.2344 
L 383.04 77.1552 
" clip-path="url(#p60da8139e4)" style="fill: none; stroke: #b0b0b0; stroke-width: 0.8; stroke-linecap: square"/>
     </g>
     <g id="line2d_8">
      <g>
       <use xlink:href="#mc8b005e26e" x="383.04" y="572.2344" style="stroke: #000000; stroke-width: 0.8"/>
      </g>
     </g>
     <g id="text_4">
      <!-- 30 -->
      <g transform="translate(376.6775 586.832838) scale(0.1 -0.1)">
       <defs>
        <path id="DejaVuSans-33" d="M 2597 2516 
Q 3050 2419 3304 2112 
Q 3559 1806 3559 1356 
Q 3559 666 3084 287 
Q 2609 -91 1734 -91 
Q 1441 -91 1130 -33 
Q 819 25 488 141 
L 488 750 
Q 750 597 1062 519 
Q 1375 441 1716 441 
Q 2309 441 2620 675 
Q 2931 909 2931 1356 
Q 2931 1769 2642 2001 
Q 2353 2234 1838 2234 
L 1294 2234 
L 1294 2753 
L 1863 2753 
Q 2328 2753 2575 2939 
Q 2822 3125 2822 3475 
Q 2822 3834 2567 4026 
Q 2313 4219 1838 4219 
Q 1578 4219 1281 4162 
Q 984 4106 628 3988 
L 628 4550 
Q 988 4650 1302 4700 
Q 1616 4750 1894 4750 
Q 2613 4750 3031 4423 
Q 3450 4097 3450 3541 
Q 3450 3153 3228 2886 
Q 3006 2619 2597 2516 
z
" transform="scale(0.015625)"/>
       </defs>
       <use xlink:href="#DejaVuSans-33"/>
       <use xlink:href="#DejaVuSans-30" x="63.623047"/>
      </g>
     </g>
    </g>
    <g id="xtick_5">
     <g id="line2d_9">
      <path d="M 472.32 572.2344 
L 472.32 77.1552 
" clip-path="url(#p60da8139e4)" style="fill: none; stroke: #b0b0b0; stroke-width: 0.8; stroke-linecap: square"/>
     </g>
     <g id="line2d_10">
      <g>
       <use xlink:href="#mc8b005e26e" x="472.32" y="572.2344" style="stroke: #000000; stroke-width: 0.8"/>
      </g>
     </g>
     <g id="text_5">
      <!-- 40 -->
      <g transform="translate(465.9575 586.832838) scale(0.1 -0.1)">
       <defs>
        <path id="DejaVuSans-34" d="M 2419 4116 
L 825 1625 
L 2419 1625 
L 2419 4116 
z
M 2253 4666 
L 3047 4666 
L 3047 1625 
L 3713 1625 
L 3713 1100 
L 3047 1100 
L 3047 0 
L 2419 0 
L 2419 1100 
L 313 1100 
L 313 1709 
L 2253 4666 
z
" transform="scale(0.015625)"/>
       </defs>
       <use xlink:href="#DejaVuSans-34"/>
       <use xlink:href="#DejaVuSans-30" x="63.623047"/>
      </g>
     </g>
    </g>
    <g id="xtick_6">
     <g id="line2d_11">
      <path d="M 561.6 572.2344 
L 561.6 77.1552 
" clip-path="url(#p60da8139e4)" style="fill: none; stroke: #b0b0b0; stroke-width: 0.8; stroke-linecap: square"/>
     </g>
     <g id="line2d_12">
      <g>
       <use xlink:href="#mc8b005e26e" x="561.6" y="572.2344" style="stroke: #000000; stroke-width: 0.8"/>
      </g>
     </g>
     <g id="text_6">
      <!-- 50 -->
      <g transform="translate(555.2375 586.832838) scale(0.1 -0.1)">
       <defs>
        <path id="DejaVuSans-35" d="M 691 4666 
L 3169 4666 
L 3169 4134 
L 1269 4134 
L 1269 2991 
Q 1406 3038 1543 3061 
Q 1681 3084 1819 3084 
Q 2600 3084 3056 2656 
Q 3513 2228 3513 1497 
Q 3513 744 3044 326 
Q 2575 -91 1722 -91 
Q 1428 -91 1123 -41 
Q 819 9 494 109 
L 494 744 
Q 775 591 1075 516 
Q 1375 441 1709 441 
Q 2250 441 2565 725 
Q 2881 1009 2881 1497 
Q 2881 1984 2565 2268 
Q 2250 2553 1709 2553 
Q 1456 2553 1204 2497 
Q 953 2441 691 2322 
L 691 4666 
z
" transform="scale(0.015625)"/>
       </defs>
       <use xlink:href="#DejaVuSans-35"/>
       <use xlink:href="#DejaVuSans-30" x="63.623047"/>
      </g>
     </g>
    </g>
    <g id="xtick_7">
     <g id="line2d_13">
      <path d="M 650.88 572.2344 
L 650.88 77.1552 
" clip-path="url(#p60da8139e4)" style="fill: none; stroke: #b0b0b0; stroke-width: 0.8; stroke-linecap: square"/>
     </g>
     <g id="line2d_14">
      <g>
       <use xlink:href="#mc8b005e26e" x="650.88" y="572.2344" style="stroke: #000000; stroke-width: 0.8"/>
      </g>
     </g>
     <g id="text_7">
      <!-- 60 -->
      <g transform="translate(644.5175 586.832838) scale(0.1 -0.1)">
       <defs>
        <path id="DejaVuSans-36" d="M 2113 2584 
Q 1688 2584 1439 2293 
Q 1191 2003 1191 1497 
Q 1191 994 1439 701 
Q 1688 409 2113 409 
Q 2538 409 2786 701 
Q 3034 994 3034 1497 
Q 3034 2003 2786 2293 
Q 2538 2584 2113 2584 
z
M 3366 4563 
L 3366 3988 
Q 3128 4100 2886 4159 
Q 2644 4219 2406 4219 
Q 1781 4219 1451 3797 
Q 1122 3375 1075 2522 
Q 1259 2794 1537 2939 
Q 1816 3084 2150 3084 
Q 2853 3084 3261 2657 
Q 3669 2231 3669 1497 
Q 3669 778 3244 343 
Q 2819 -91 2113 -91 
Q 1303 -91 875 529 
Q 447 1150 447 2328 
Q 447 3434 972 4092 
Q 1497 4750 2381 4750 
Q 2619 4750 2861 4703 
Q 3103 4656 3366 4563 
z
" transform="scale(0.015625)"/>
       </defs>
       <use xlink:href="#DejaVuSans-36"/>
       <use xlink:href="#DejaVuSans-30" x="63.623047"/>
      </g>
     </g>
    </g>
    <g id="xtick_8">
     <g id="line2d_15">
      <path d="M 740.16 572.2344 
L 740.16 77.1552 
" clip-path="url(#p60da8139e4)" style="fill: none; stroke: #b0b0b0; stroke-width: 0.8; stroke-linecap: square"/>
     </g>
     <g id="line2d_16">
      <g>
       <use xlink:href="#mc8b005e26e" x="740.16" y="572.2344" style="stroke: #000000; stroke-width: 0.8"/>
      </g>
     </g>
     <g id="text_8">
      <!-- 70 -->
      <g transform="translate(733.7975 586.832838) scale(0.1 -0.1)">
       <defs>
        <path id="DejaVuSans-37" d="M 525 4666 
L 3525 4666 
L 3525 4397 
L 1831 0 
L 1172 0 
L 2766 4134 
L 525 4134 
L 525 4666 
z
" transform="scale(0.015625)"/>
       </defs>
       <use xlink:href="#DejaVuSans-37"/>
       <use xlink:href="#DejaVuSans-30" x="63.623047"/>
      </g>
     </g>
    </g>
    <g id="xtick_9">
     <g id="line2d_17">
      <path d="M 829.44 572.2344 
L 829.44 77.1552 
" clip-path="url(#p60da8139e4)" style="fill: none; stroke: #b0b0b0; stroke-width: 0.8; stroke-linecap: square"/>
     </g>
     <g id="line2d_18">
      <g>
       <use xlink:href="#mc8b005e26e" x="829.44" y="572.2344" style="stroke: #000000; stroke-width: 0.8"/>
      </g>
     </g>
     <g id="text_9">
      <!-- 80 -->
      <g transform="translate(823.0775 586.832838) scale(0.1 -0.1)">
       <defs>
        <path id="DejaVuSans-38" d="M 2034 2216 
Q 1584 2216 1326 1975 
Q 1069 1734 1069 1313 
Q 1069 891 1326 650 
Q 1584 409 2034 409 
Q 2484 409 2743 651 
Q 3003 894 3003 1313 
Q 3003 1734 2745 1975 
Q 2488 2216 2034 2216 
z
M 1403 2484 
Q 997 2584 770 2862 
Q 544 3141 544 3541 
Q 544 4100 942 4425 
Q 1341 4750 2034 4750 
Q 2731 4750 3128 4425 
Q 3525 4100 3525 3541 
Q 3525 3141 3298 2862 
Q 3072 2584 2669 2484 
Q 3125 2378 3379 2068 
Q 3634 1759 3634 1313 
Q 3634 634 3220 271 
Q 2806 -91 2034 -91 
Q 1263 -91 848 271 
Q 434 634 434 1313 
Q 434 1759 690 2068 
Q 947 2378 1403 2484 
z
M 1172 3481 
Q 1172 3119 1398 2916 
Q 1625 2713 2034 2713 
Q 2441 2713 2670 2916 
Q 2900 3119 2900 3481 
Q 2900 3844 2670 4047 
Q 2441 4250 2034 4250 
Q 1625 4250 1398 4047 
Q 1172 3844 1172 3481 
z
" transform="scale(0.015625)"/>
       </defs>
       <use xlink:href="#DejaVuSans-38"/>
       <use xlink:href="#DejaVuSans-30" x="63.623047"/>
      </g>
     </g>
    </g>
    <g id="text_10">
     <!-- V, км/ч -->
     <g transform="translate(454.291094 600.510963) scale(0.1 -0.1)">
      <defs>
       <path id="DejaVuSans-56" d="M 1831 0 
L 50 4666 
L 709 4666 
L 2188 738 
L 3669 4666 
L 4325 4666 
L 2547 0 
L 1831 0 
z
" transform="scale(0.015625)"/>
       <path id="DejaVuSans-2c" d="M 750 794 
L 1409 794 
L 1409 256 
L 897 -744 
L 494 -744 
L 750 256 
L 750 794 
z
" transform="scale(0.015625)"/>
       <path id="DejaVuSans-20" transform="scale(0.015625)"/>
       <path id="DejaVuSans-43a" d="M 581 3500 
L 1153 3500 
L 1153 1856 
L 2775 3500 
L 3481 3500 
L 2144 2147 
L 3653 0 
L 3009 0 
L 1769 1766 
L 1153 1141 
L 1153 0 
L 581 0 
L 581 3500 
z
" transform="scale(0.015625)"/>
       <path id="DejaVuSans-43c" d="M 581 3500 
L 1422 3500 
L 2416 1156 
L 3413 3500 
L 4247 3500 
L 4247 0 
L 3669 0 
L 3669 2950 
L 2703 672 
L 2128 672 
L 1159 2950 
L 1159 0 
L 581 0 
L 581 3500 
z
" transform="scale(0.015625)"/>
       <path id="DejaVuSans-2f" d="M 1625 4666 
L 2156 4666 
L 531 -594 
L 0 -594 
L 1625 4666 
z
" transform="scale(0.015625)"/>
       <path id="DejaVuSans-447" d="M 2625 0 
L 2625 1472 
L 1553 1472 
Q 1075 1472 756 1769 
Q 469 2038 469 2613 
L 469 3500 
L 1044 3500 
L 1044 2666 
Q 1044 2300 1206 2116 
Q 1372 1931 1697 1931 
L 2625 1931 
L 2625 3500 
L 3200 3500 
L 3200 0 
L 2625 0 
z
" transform="scale(0.015625)"/>
      </defs>
      <use xlink:href="#DejaVuSans-56"/>
      <use xlink:href="#DejaVuSans-2c" x="68.408203"/>
      <use xlink:href="#DejaVuSans-20" x="100.195312"/>
      <use xlink:href="#DejaVuSans-43a" x="131.982422"/>
      <use xlink:href="#DejaVuSans-43c" x="192.382812"/>
      <use xlink:href="#DejaVuSans-2f" x="267.822266"/>
      <use xlink:href="#DejaVuSans-447" x="301.513672"/>
     </g>
    </g>
   </g>
   <g id="matplotlib.axis_2">
    <g id="ytick_1">
     <g id="line2d_19">
      <path d="M 115.2 572.2344 
L 829.44 572.2344 
" clip-path="url(#p60da8139e4)" style="fill: none; stroke: #b0b0b0; stroke-width: 0.8; stroke-linecap: square"/>
     </g>
     <g id="line2d_20">
      <defs>
       <path id="m31199e4ce2" d="M 0 0 
L -3.5 0 
" style="stroke: #000000; stroke-width: 0.8"/>
      </defs>
      <g>
       <use xlink:href="#m31199e4ce2" x="115.2" y="572.2344" style="stroke: #000000; stroke-width: 0.8"/>
      </g>
     </g>
     <g id="text_11">
      <!-- 0 -->
      <g transform="translate(101.8375 576.033619) scale(0.1 -0.1)">
       <use xlink:href="#DejaVuSans-30"/>
      </g>
     </g>
    </g>
    <g id="ytick_2">
     <g id="line2d_21">
      <path d="M 115.2 510.3495 
L 829.44 510.3495 
" clip-path="url(#p60da8139e4)" style="fill: none; stroke: #b0b0b0; stroke-width: 0.8; stroke-linecap: square"/>
     </g>
     <g id="line2d_22">
      <g>
       <use xlink:href="#m31199e4ce2" x="115.2" y="510.3495" style="stroke: #000000; stroke-width: 0.8"/>
      </g>
     </g>
     <g id="text_12">
      <!-- 25 -->
      <g transform="translate(95.475 514.148719) scale(0.1 -0.1)">
       <use xlink:href="#DejaVuSans-32"/>
       <use xlink:href="#DejaVuSans-35" x="63.623047"/>
      </g>
     </g>
    </g>
    <g id="ytick_3">
     <g id="line2d_23">
      <path d="M 115.2 448.4646 
L 829.44 448.4646 
" clip-path="url(#p60da8139e4)" style="fill: none; stroke: #b0b0b0; stroke-width: 0.8; stroke-linecap: square"/>
     </g>
     <g id="line2d_24">
      <g>
       <use xlink:href="#m31199e4ce2" x="115.2" y="448.4646" style="stroke: #000000; stroke-width: 0.8"/>
      </g>
     </g>
     <g id="text_13">
      <!-- 50 -->
      <g transform="translate(95.475 452.263819) scale(0.1 -0.1)">
       <use xlink:href="#DejaVuSans-35"/>
       <use xlink:href="#DejaVuSans-30" x="63.623047"/>
      </g>
     </g>
    </g>
    <g id="ytick_4">
     <g id="line2d_25">
      <path d="M 115.2 386.5797 
L 829.44 386.5797 
" clip-path="url(#p60da8139e4)" style="fill: none; stroke: #b0b0b0; stroke-width: 0.8; stroke-linecap: square"/>
     </g>
     <g id="line2d_26">
      <g>
       <use xlink:href="#m31199e4ce2" x="115.2" y="386.5797" style="stroke: #000000; stroke-width: 0.8"/>
      </g>
     </g>
     <g id="text_14">
      <!-- 75 -->
      <g transform="translate(95.475 390.378919) scale(0.1 -0.1)">
       <use xlink:href="#DejaVuSans-37"/>
       <use xlink:href="#DejaVuSans-35" x="63.623047"/>
      </g>
     </g>
    </g>
    <g id="ytick_5">
     <g id="line2d_27">
      <path d="M 115.2 324.6948 
L 829.44 324.6948 
" clip-path="url(#p60da8139e4)" style="fill: none; stroke: #b0b0b0; stroke-width: 0.8; stroke-linecap: square"/>
     </g>
     <g id="line2d_28">
      <g>
       <use xlink:href="#m31199e4ce2" x="115.2" y="324.6948" style="stroke: #000000; stroke-width: 0.8"/>
      </g>
     </g>
     <g id="text_15">
      <!-- 100 -->
      <g transform="translate(89.1125 328.494019) scale(0.1 -0.1)">
       <use xlink:href="#DejaVuSans-31"/>
       <use xlink:href="#DejaVuSans-30" x="63.623047"/>
       <use xlink:href="#DejaVuSans-30" x="127.246094"/>
      </g>
     </g>
    </g>
    <g id="ytick_6">
     <g id="line2d_29">
      <path d="M 115.2 262.8099 
L 829.44 262.8099 
" clip-path="url(#p60da8139e4)" style="fill: none; stroke: #b0b0b0; stroke-width: 0.8; stroke-linecap: square"/>
     </g>
     <g id="line2d_30">
      <g>
       <use xlink:href="#m31199e4ce2" x="115.2" y="262.8099" style="stroke: #000000; stroke-width: 0.8"/>
      </g>
     </g>
     <g id="text_16">
      <!-- 125 -->
      <g transform="translate(89.1125 266.609119) scale(0.1 -0.1)">
       <use xlink:href="#DejaVuSans-31"/>
       <use xlink:href="#DejaVuSans-32" x="63.623047"/>
       <use xlink:href="#DejaVuSans-35" x="127.246094"/>
      </g>
     </g>
    </g>
    <g id="ytick_7">
     <g id="line2d_31">
      <path d="M 115.2 200.925 
L 829.44 200.925 
" clip-path="url(#p60da8139e4)" style="fill: none; stroke: #b0b0b0; stroke-width: 0.8; stroke-linecap: square"/>
     </g>
     <g id="line2d_32">
      <g>
       <use xlink:href="#m31199e4ce2" x="115.2" y="200.925" style="stroke: #000000; stroke-width: 0.8"/>
      </g>
     </g>
     <g id="text_17">
      <!-- 150 -->
      <g transform="translate(89.1125 204.724219) scale(0.1 -0.1)">
       <use xlink:href="#DejaVuSans-31"/>
       <use xlink:href="#DejaVuSans-35" x="63.623047"/>
       <use xlink:href="#DejaVuSans-30" x="127.246094"/>
      </g>
     </g>
    </g>
    <g id="ytick_8">
     <g id="line2d_33">
      <path d="M 115.2 139.0401 
L 829.44 139.0401 
" clip-path="url(#p60da8139e4)" style="fill: none; stroke: #b0b0b0; stroke-width: 0.8; stroke-linecap: square"/>
     </g>
     <g id="line2d_34">
      <g>
       <use xlink:href="#m31199e4ce2" x="115.2" y="139.0401" style="stroke: #000000; stroke-width: 0.8"/>
      </g>
     </g>
     <g id="text_18">
      <!-- 175 -->
      <g transform="translate(89.1125 142.839319) scale(0.1 -0.1)">
       <use xlink:href="#DejaVuSans-31"/>
       <use xlink:href="#DejaVuSans-37" x="63.623047"/>
       <use xlink:href="#DejaVuSans-35" x="127.246094"/>
      </g>
     </g>
    </g>
    <g id="ytick_9">
     <g id="line2d_35">
      <path d="M 115.2 77.1552 
L 829.44 77.1552 
" clip-path="url(#p60da8139e4)" style="fill: none; stroke: #b0b0b0; stroke-width: 0.8; stroke-linecap: square"/>
     </g>
     <g id="line2d_36">
      <g>
       <use xlink:href="#m31199e4ce2" x="115.2" y="77.1552" style="stroke: #000000; stroke-width: 0.8"/>
      </g>
     </g>
     <g id="text_19">
      <!-- 200 -->
      <g transform="translate(89.1125 80.954419) scale(0.1 -0.1)">
       <use xlink:href="#DejaVuSans-32"/>
       <use xlink:href="#DejaVuSans-30" x="63.623047"/>
       <use xlink:href="#DejaVuSans-30" x="127.246094"/>
      </g>
     </g>
    </g>
    <g id="text_20">
     <!-- S, м -->
     <g transform="translate(83.032812 334.819019) rotate(-90) scale(0.1 -0.1)">
      <defs>
       <path id="DejaVuSans-53" d="M 3425 4513 
L 3425 3897 
Q 3066 4069 2747 4153 
Q 2428 4238 2131 4238 
Q 1616 4238 1336 4038 
Q 1056 3838 1056 3469 
Q 1056 3159 1242 3001 
Q 1428 2844 1947 2747 
L 2328 2669 
Q 3034 2534 3370 2195 
Q 3706 1856 3706 1288 
Q 3706 609 3251 259 
Q 2797 -91 1919 -91 
Q 1588 -91 1214 -16 
Q 841 59 441 206 
L 441 856 
Q 825 641 1194 531 
Q 1563 422 1919 422 
Q 2459 422 2753 634 
Q 3047 847 3047 1241 
Q 3047 1584 2836 1778 
Q 2625 1972 2144 2069 
L 1759 2144 
Q 1053 2284 737 2584 
Q 422 2884 422 3419 
Q 422 4038 858 4394 
Q 1294 4750 2059 4750 
Q 2388 4750 2728 4690 
Q 3069 4631 3425 4513 
z
" transform="scale(0.015625)"/>
      </defs>
      <use xlink:href="#DejaVuSans-53"/>
      <use xlink:href="#DejaVuSans-2c" x="63.476562"/>
      <use xlink:href="#DejaVuSans-20" x="95.263672"/>
      <use xlink:href="#DejaVuSans-43c" x="127.050781"/>
     </g>
    </g>
   </g>
   <g id="line2d_37">
    <path d="M 115.2 572.2344 
L 124.128 570.834817 
L 133.056 569.38651 
L 141.984 567.889477 
L 150.912 566.343718 
L 159.84 564.749235 
L 168.768 563.106026 
L 177.696 561.414093 
L 186.624 559.673434 
L 195.552 557.884049 
L 204.48 556.04594 
L 213.408 554.159105 
L 222.336 552.223546 
L 231.264 550.239261 
L 240.192 548.206251 
L 249.12 546.124515 
L 258.048 543.994055 
L 266.976 541.814869 
L 275.904 539.586958 
L 284.832 537.310322 
L 293.76 534.98496 
L 302.688 532.610874 
L 311.616 530.188062 
L 320.544 527.716525 
L 329.472 525.196263 
L 338.4 522.627275 
L 347.328 520.009563 
L 356.256 517.343125 
L 365.184 514.627962 
L 374.112 511.864074 
L 383.04 509.051461 
L 391.968 506.190122 
L 400.896 503.280058 
L 409.824 500.321269 
L 418.752 497.313755 
L 427.68 494.257516 
L 436.608 491.152551 
L 445.536 487.998862 
L 454.464 484.796447 
L 463.392 481.545307 
L 472.32 478.245441 
L 481.248 474.896851 
L 490.176 471.499535 
L 499.104 468.053494 
L 508.032 464.558728 
L 516.96 461.015237 
L 525.888 457.42302 
L 534.816 453.782078 
L 543.744 450.092411 
L 552.672 446.354019 
L 561.6 442.566902 
L 570.528 438.731059 
L 579.456 434.846492 
L 588.384 430.913199 
L 597.312 426.931181 
L 606.24 422.900437 
L 615.168 418.820969 
L 624.096 414.692775 
L 633.024 410.515856 
L 641.952 406.290212 
L 650.88 402.015843 
L 659.808 397.692748 
L 668.736 393.320929 
L 677.664 388.900384 
L 686.592 384.431114 
L 695.52 379.913118 
L 704.448 375.346398 
L 713.376 370.730952 
L 722.304 366.066781 
L 731.232 361.353885 
L 740.16 356.592264 
L 749.088 351.781917 
L 758.016 346.922846 
L 766.944 342.015049 
L 775.872 337.058527 
L 784.8 332.053279 
L 793.728 326.999307 
L 802.656 321.896609 
L 811.584 316.745186 
L 820.512 311.545038 
L 829.44 306.296165 
" clip-path="url(#p60da8139e4)" style="fill: none; stroke: #00ff00; stroke-width: 1.5; stroke-linecap: square"/>
   </g>
   <g id="line2d_38">
    <path d="M 115.2 572.2344 
L 124.128 570.810455 
L 133.056 569.289059 
L 141.984 567.670213 
L 150.912 565.953917 
L 159.84 564.14017 
L 168.768 562.228973 
L 177.696 560.220325 
L 186.624 558.114227 
L 195.552 555.910679 
L 204.48 553.60968 
L 213.408 551.211231 
L 222.336 548.715331 
L 231.264 546.121981 
L 240.192 543.431181 
L 249.12 540.64293 
L 258.048 537.757229 
L 266.976 534.774078 
L 275.904 531.693476 
L 284.832 528.515423 
L 293.76 525.239921 
L 302.688 521.866968 
L 311.616 518.396564 
L 320.544 514.82871 
L 329.472 511.163406 
L 338.4 507.400651 
L 347.328 503.540446 
L 356.256 499.58279 
L 365.184 495.527684 
L 374.112 491.375128 
L 383.04 487.125121 
L 391.968 482.777664 
L 400.896 478.332757 
L 409.824 473.790399 
L 418.752 469.150591 
L 427.68 464.413332 
L 436.608 459.578623 
L 445.536 454.646463 
L 454.464 449.616853 
L 463.392 444.489793 
L 472.32 439.265283 
L 481.248 433.943321 
L 490.176 428.52391 
L 499.104 423.007048 
L 508.032 417.392736 
L 516.96 411.680973 
L 525.888 405.87176 
L 534.816 399.965097 
L 543.744 393.960983 
L 552.672 387.859419 
L 561.6 381.660404 
L 570.528 375.363939 
L 579.456 368.970023 
L 588.384 362.478658 
L 597.312 355.889841 
L 606.24 349.203575 
L 615.168 342.419858 
L 624.096 335.53869 
L 633.024 328.560073 
L 641.952 321.484004 
L 650.88 314.310486 
L 659.808 307.039517 
L 668.736 299.671097 
L 677.664 292.205228 
L 686.592 284.641907 
L 695.52 276.981137 
L 704.448 269.222916 
L 713.376 261.367244 
L 722.304 253.414123 
L 731.232 245.36355 
L 740.16 237.215528 
L 749.088 228.970055 
L 758.016 220.627131 
L 766.944 212.186758 
L 775.872 203.648933 
L 784.8 195.013659 
L 793.728 186.280934 
L 802.656 177.450759 
L 811.584 168.523133 
L 820.512 159.498057 
L 829.44 150.37553 
" clip-path="url(#p60da8139e4)" style="fill: none; stroke: #00d400; stroke-width: 1.5; stroke-linecap: square"/>
   </g>
   <g id="line2d_39">
    <path d="M 115.2 572.2344 
L 124.128 570.737367 
L 133.056 568.996708 
L 141.984 567.012423 
L 150.912 564.784512 
L 159.84 562.312975 
L 168.768 559.597812 
L 177.696 556.639023 
L 186.624 553.436608 
L 195.552 549.990567 
L 204.48 546.3009 
L 213.408 542.367607 
L 222.336 538.190689 
L 231.264 533.770144 
L 240.192 529.105973 
L 249.12 524.198176 
L 258.048 519.046753 
L 266.976 513.651704 
L 275.904 508.013029 
L 284.832 502.130728 
L 293.76 496.004802 
L 302.688 489.635249 
L 311.616 483.02207 
L 320.544 476.165265 
L 329.472 469.064834 
L 338.4 461.720777 
L 347.328 454.133095 
L 356.256 446.301786 
L 365.184 438.226851 
L 374.112 429.90829 
L 383.04 421.346104 
L 391.968 412.540291 
L 400.896 403.490852 
L 409.824 394.197787 
L 418.752 384.661097 
L 427.68 374.88078 
L 436.608 364.856837 
L 445.536 354.589268 
L 454.464 344.078074 
L 463.392 333.323253 
L 472.32 322.324806 
L 481.248 311.082734 
L 490.176 299.597035 
L 499.104 287.86771 
L 508.032 275.89476 
L 516.96 263.678183 
L 525.888 251.21798 
L 534.816 238.514152 
L 543.744 225.566697 
L 552.672 212.375617 
L 561.6 198.94091 
L 570.528 185.262577 
L 579.456 171.340619 
L 588.384 157.175034 
L 597.312 142.765824 
L 606.24 128.112987 
L 615.168 113.216524 
L 624.096 98.076436 
L 633.024 82.692721 
L 641.952 67.065381 
L 650.88 51.194414 
L 659.808 35.079822 
L 668.736 18.721603 
L 677.664 2.119759 
L 679.317454 -1 
" clip-path="url(#p60da8139e4)" style="fill: none; stroke: #00aa00; stroke-width: 1.5; stroke-linecap: square"/>
   </g>
   <g id="line2d_40">
    <path d="M 115.2 572.2344 
L 124.128 570.491012 
L 133.056 568.6989 
L 141.984 566.858062 
L 150.912 564.968498 
L 159.84 563.03021 
L 168.768 561.043196 
L 177.696 559.007458 
L 186.624 556.922994 
L 195.552 554.789804 
L 204.48 552.60789 
L 213.408 550.37725 
L 222.336 548.097886 
L 231.264 545.769796 
L 240.192 543.392981 
L 249.12 540.96744 
L 258.048 538.493175 
L 266.976 535.970184 
L 275.904 533.398468 
L 284.832 530.778027 
L 293.76 528.10886 
L 302.688 525.390969 
L 311.616 522.624352 
L 320.544 519.80901 
L 329.472 516.944943 
L 338.4 514.03215 
L 347.328 511.070633 
L 356.256 508.06039 
L 365.184 505.001422 
L 374.112 501.893729 
L 383.04 498.737311 
L 391.968 495.532167 
L 400.896 492.278298 
L 409.824 488.975704 
L 418.752 485.624385 
L 427.68 482.224341 
L 436.608 478.775571 
L 445.536 475.278077 
L 454.464 471.731857 
L 463.392 468.136912 
L 472.32 464.493241 
L 481.248 460.800846 
L 490.176 457.059725 
L 499.104 453.269879 
L 508.032 449.431308 
L 516.96 445.544012 
L 525.888 441.60799 
L 534.816 437.623243 
L 543.744 433.589771 
L 552.672 429.507574 
L 561.6 425.376652 
L 570.528 421.197004 
L 579.456 416.968632 
L 588.384 412.691534 
L 597.312 408.365711 
L 606.24 403.991162 
L 615.168 399.567889 
L 624.096 395.09589 
L 633.024 390.575166 
L 641.952 386.005717 
L 650.88 381.387543 
L 659.808 376.720643 
L 668.736 372.005019 
L 677.664 367.240669 
L 686.592 362.427594 
L 695.52 357.565793 
L 704.448 352.655268 
L 713.376 347.696017 
L 722.304 342.688041 
L 731.232 337.63134 
L 740.16 332.525914 
L 749.088 327.371762 
L 758.016 322.168886 
L 766.944 316.917284 
L 775.872 311.616957 
L 784.8 306.267904 
L 793.728 300.870127 
L 802.656 295.423624 
L 811.584 289.928396 
L 820.512 284.384443 
L 829.44 278.791765 
" clip-path="url(#p60da8139e4)" style="fill: none; stroke: #0000ff; stroke-width: 1.5; stroke-linecap: square"/>
   </g>
   <g id="line2d_41">
    <path d="M 115.2 572.2344 
L 124.128 570.46665 
L 133.056 568.601449 
L 141.984 566.638798 
L 150.912 564.578697 
L 159.84 562.421145 
L 168.768 560.166143 
L 177.696 557.81369 
L 186.624 555.363787 
L 195.552 552.816434 
L 204.48 550.17163 
L 213.408 547.429376 
L 222.336 544.589671 
L 231.264 541.652516 
L 240.192 538.617911 
L 249.12 535.485855 
L 258.048 532.256349 
L 266.976 528.929393 
L 275.904 525.504986 
L 284.832 521.983128 
L 293.76 518.363821 
L 302.688 514.647063 
L 311.616 510.832854 
L 320.544 506.921195 
L 329.472 502.912086 
L 338.4 498.805526 
L 347.328 494.601516 
L 356.256 490.300055 
L 365.184 485.901144 
L 374.112 481.404783 
L 383.04 476.810971 
L 391.968 472.119709 
L 400.896 467.330997 
L 409.824 462.444834 
L 418.752 457.461221 
L 427.68 452.380157 
L 436.608 447.201643 
L 445.536 441.925678 
L 454.464 436.552263 
L 463.392 431.081398 
L 472.32 425.513083 
L 481.248 419.847316 
L 490.176 414.0841 
L 499.104 408.223433 
L 508.032 402.265316 
L 516.96 396.209748 
L 525.888 390.05673 
L 534.816 383.806262 
L 543.744 377.458343 
L 552.672 371.012974 
L 561.6 364.470154 
L 570.528 357.829884 
L 579.456 351.092163 
L 588.384 344.256993 
L 597.312 337.324371 
L 606.24 330.2943 
L 615.168 323.166778 
L 624.096 315.941805 
L 633.024 308.619383 
L 641.952 301.199509 
L 650.88 293.682186 
L 659.808 286.067412 
L 668.736 278.355187 
L 677.664 270.545513 
L 686.592 262.638387 
L 695.52 254.633812 
L 704.448 246.531786 
L 713.376 238.332309 
L 722.304 230.035383 
L 731.232 221.641005 
L 740.16 213.149178 
L 749.088 204.5599 
L 758.016 195.873171 
L 766.944 187.088993 
L 775.872 178.207363 
L 784.8 169.228284 
L 793.728 160.151754 
L 802.656 150.977774 
L 811.584 141.706343 
L 820.512 132.337462 
L 829.44 122.87113 
" clip-path="url(#p60da8139e4)" style="fill: none; stroke: #0000d4; stroke-width: 1.5; stroke-linecap: square"/>
   </g>
   <g id="line2d_42">
    <path d="M 115.2 572.2344 
L 124.128 570.393562 
L 133.056 568.309098 
L 141.984 565.981008 
L 150.912 563.409292 
L 159.84 560.59395 
L 168.768 557.534982 
L 177.696 554.232388 
L 186.624 550.686168 
L 195.552 546.896322 
L 204.48 542.86285 
L 213.408 538.585752 
L 222.336 534.065029 
L 231.264 529.300679 
L 240.192 524.292703 
L 249.12 519.041101 
L 258.048 513.545873 
L 266.976 507.807019 
L 275.904 501.824539 
L 284.832 495.598433 
L 293.76 489.128702 
L 302.688 482.415344 
L 311.616 475.45836 
L 320.544 468.25775 
L 329.472 460.813514 
L 338.4 453.125652 
L 347.328 445.194165 
L 356.256 437.019051 
L 365.184 428.600311 
L 374.112 419.937945 
L 383.04 411.031954 
L 391.968 401.882336 
L 400.896 392.489092 
L 409.824 382.852222 
L 418.752 372.971727 
L 427.68 362.847605 
L 436.608 352.479857 
L 445.536 341.868483 
L 454.464 331.013484 
L 463.392 319.914858 
L 472.32 308.572606 
L 481.248 296.986729 
L 490.176 285.157225 
L 499.104 273.084095 
L 508.032 260.76734 
L 516.96 248.206958 
L 525.888 235.40295 
L 534.816 222.355317 
L 543.744 209.064057 
L 552.672 195.529172 
L 561.6 181.75066 
L 570.528 167.728522 
L 579.456 153.462759 
L 588.384 138.953369 
L 597.312 124.200354 
L 606.24 109.203712 
L 615.168 93.963444 
L 624.096 78.479551 
L 633.024 62.752031 
L 641.952 46.780886 
L 650.88 30.566114 
L 659.808 14.107717 
L 667.88377 -1 
" clip-path="url(#p60da8139e4)" style="fill: none; stroke: #0000aa; stroke-width: 1.5; stroke-linecap: square"/>
   </g>
   <g id="patch_3">
    <path d="M 115.2 572.2344 
L 115.2 77.1552 
" style="fill: none; stroke: #000000; stroke-width: 0.8; stroke-linejoin: miter; stroke-linecap: square"/>
   </g>
   <g id="patch_4">
    <path d="M 829.44 572.2344 
L 829.44 77.1552 
" style="fill: none; stroke: #000000; stroke-width: 0.8; stroke-linejoin: miter; stroke-linecap: square"/>
   </g>
   <g id="patch_5">
    <path d="M 115.2 572.2344 
L 829.44 572.2344 
" style="fill: none; stroke: #000000; stroke-width: 0.8; stroke-linejoin: miter; stroke-linecap: square"/>
   </g>
   <g id="patch_6">
    <path d="M 115.2 77.1552 
L 829.44 77.1552 
" style="fill: none; stroke: #000000; stroke-width: 0.8; stroke-linejoin: miter; stroke-linecap: square"/>
   </g>
   <g id="text_21">
    <!-- Остановочный путь -->
    <g transform="translate(409.809375 71.1552) scale(0.12 -0.12)">
     <defs>
      <path id="DejaVuSans-41e" d="M 2522 4238 
Q 1834 4238 1429 3725 
Q 1025 3213 1025 2328 
Q 1025 1447 1429 934 
Q 1834 422 2522 422 
Q 3209 422 3611 934 
Q 4013 1447 4013 2328 
Q 4013 3213 3611 3725 
Q 3209 4238 2522 4238 
z
M 2522 4750 
Q 3503 4750 4090 4092 
Q 4678 3434 4678 2328 
Q 4678 1225 4090 567 
Q 3503 -91 2522 -91 
Q 1538 -91 948 565 
Q 359 1222 359 2328 
Q 359 3434 948 4092 
Q 1538 4750 2522 4750 
z
" transform="scale(0.015625)"/>
      <path id="DejaVuSans-441" d="M 3122 3366 
L 3122 2828 
Q 2878 2963 2633 3030 
Q 2388 3097 2138 3097 
Q 1578 3097 1268 2742 
Q 959 2388 959 1747 
Q 959 1106 1268 751 
Q 1578 397 2138 397 
Q 2388 397 2633 464 
Q 2878 531 3122 666 
L 3122 134 
Q 2881 22 2623 -34 
Q 2366 -91 2075 -91 
Q 1284 -91 818 406 
Q 353 903 353 1747 
Q 353 2603 823 3093 
Q 1294 3584 2113 3584 
Q 2378 3584 2631 3529 
Q 2884 3475 3122 3366 
z
" transform="scale(0.015625)"/>
      <path id="DejaVuSans-442" d="M 188 3500 
L 3541 3500 
L 3541 3041 
L 2147 3041 
L 2147 0 
L 1581 0 
L 1581 3041 
L 188 3041 
L 188 3500 
z
" transform="scale(0.015625)"/>
      <path id="DejaVuSans-430" d="M 2194 1759 
Q 1497 1759 1228 1600 
Q 959 1441 959 1056 
Q 959 750 1161 570 
Q 1363 391 1709 391 
Q 2188 391 2477 730 
Q 2766 1069 2766 1631 
L 2766 1759 
L 2194 1759 
z
M 3341 1997 
L 3341 0 
L 2766 0 
L 2766 531 
Q 2569 213 2275 61 
Q 1981 -91 1556 -91 
Q 1019 -91 701 211 
Q 384 513 384 1019 
Q 384 1609 779 1909 
Q 1175 2209 1959 2209 
L 2766 2209 
L 2766 2266 
Q 2766 2663 2505 2880 
Q 2244 3097 1772 3097 
Q 1472 3097 1187 3025 
Q 903 2953 641 2809 
L 641 3341 
Q 956 3463 1253 3523 
Q 1550 3584 1831 3584 
Q 2591 3584 2966 3190 
Q 3341 2797 3341 1997 
z
" transform="scale(0.015625)"/>
      <path id="DejaVuSans-43d" d="M 581 3500 
L 1159 3500 
L 1159 2072 
L 3025 2072 
L 3025 3500 
L 3603 3500 
L 3603 0 
L 3025 0 
L 3025 1613 
L 1159 1613 
L 1159 0 
L 581 0 
L 581 3500 
z
" transform="scale(0.015625)"/>
      <path id="DejaVuSans-43e" d="M 1959 3097 
Q 1497 3097 1228 2736 
Q 959 2375 959 1747 
Q 959 1119 1226 758 
Q 1494 397 1959 397 
Q 2419 397 2687 759 
Q 2956 1122 2956 1747 
Q 2956 2369 2687 2733 
Q 2419 3097 1959 3097 
z
M 1959 3584 
Q 2709 3584 3137 3096 
Q 3566 2609 3566 1747 
Q 3566 888 3137 398 
Q 2709 -91 1959 -91 
Q 1206 -91 779 398 
Q 353 888 353 1747 
Q 353 2609 779 3096 
Q 1206 3584 1959 3584 
z
" transform="scale(0.015625)"/>
      <path id="DejaVuSans-432" d="M 1156 1613 
L 1156 459 
L 1975 459 
Q 2369 459 2575 607 
Q 2781 756 2781 1038 
Q 2781 1319 2575 1466 
Q 2369 1613 1975 1613 
L 1156 1613 
z
M 1156 3041 
L 1156 2072 
L 1913 2072 
Q 2238 2072 2444 2201 
Q 2650 2331 2650 2563 
Q 2650 2794 2444 2917 
Q 2238 3041 1913 3041 
L 1156 3041 
z
M 581 3500 
L 1950 3500 
Q 2566 3500 2897 3275 
Q 3228 3050 3228 2634 
Q 3228 2313 3059 2123 
Q 2891 1934 2559 1888 
Q 2956 1813 3175 1575 
Q 3394 1338 3394 981 
Q 3394 513 3033 256 
Q 2672 0 2003 0 
L 581 0 
L 581 3500 
z
" transform="scale(0.015625)"/>
      <path id="DejaVuSans-44b" d="M 3909 3500 
L 4484 3500 
L 4484 0 
L 3909 0 
L 3909 3500 
z
M 4197 3584 
L 4197 3584 
z
M 2781 1038 
Q 2781 1319 2576 1466 
Q 2372 1613 1978 1613 
L 1159 1613 
L 1159 459 
L 1978 459 
Q 2372 459 2576 607 
Q 2781 756 2781 1038 
z
M 581 3500 
L 1159 3500 
L 1159 2072 
L 2003 2072 
Q 2672 2072 3033 1817 
Q 3394 1563 3394 1038 
Q 3394 513 3033 256 
Q 2672 0 2003 0 
L 581 0 
L 581 3500 
z
" transform="scale(0.015625)"/>
      <path id="DejaVuSans-439" d="M 3578 3500 
L 3578 0 
L 3006 0 
L 3006 2809 
L 1319 0 
L 581 0 
L 581 3500 
L 1153 3500 
L 1153 697 
L 2838 3500 
L 3578 3500 
z
M 1103 4862 
L 1472 4862 
Q 1506 4628 1657 4510 
Q 1809 4393 2081 4393 
Q 2350 4393 2500 4509 
Q 2650 4625 2691 4862 
L 3059 4862 
Q 3028 4415 2781 4190 
Q 2534 3965 2081 3965 
Q 1628 3965 1381 4190 
Q 1134 4415 1103 4862 
z
" transform="scale(0.015625)"/>
      <path id="DejaVuSans-43f" d="M 3603 3500 
L 3603 0 
L 3025 0 
L 3025 3041 
L 1159 3041 
L 1159 0 
L 581 0 
L 581 3500 
L 3603 3500 
z
" transform="scale(0.015625)"/>
      <path id="DejaVuSans-443" d="M 2059 -325 
Q 1816 -950 1584 -1140 
Q 1353 -1331 966 -1331 
L 506 -1331 
L 506 -850 
L 844 -850 
Q 1081 -850 1212 -737 
Q 1344 -625 1503 -206 
L 1606 56 
L 191 3500 
L 800 3500 
L 1894 763 
L 2988 3500 
L 3597 3500 
L 2059 -325 
z
" transform="scale(0.015625)"/>
      <path id="DejaVuSans-44c" d="M 2781 1038 
Q 2781 1319 2576 1466 
Q 2372 1613 1978 1613 
L 1159 1613 
L 1159 459 
L 1978 459 
Q 2372 459 2576 607 
Q 2781 756 2781 1038 
z
M 581 3500 
L 1159 3500 
L 1159 2072 
L 2003 2072 
Q 2672 2072 3033 1817 
Q 3394 1563 3394 1038 
Q 3394 513 3033 256 
Q 2672 0 2003 0 
L 581 0 
L 581 3500 
z
" transform="scale(0.015625)"/>
     </defs>
     <use xlink:href="#DejaVuSans-41e"/>
     <use xlink:href="#DejaVuSans-441" x="78.710938"/>
     <use xlink:href="#DejaVuSans-442" x="133.691406"/>
     <use xlink:href="#DejaVuSans-430" x="191.943359"/>
     <use xlink:href="#DejaVuSans-43d" x="253.222656"/>
     <use xlink:href="#DejaVuSans-43e" x="318.603516"/>
     <use xlink:href="#DejaVuSans-432" x="379.785156"/>
     <use xlink:href="#DejaVuSans-43e" x="438.720703"/>
     <use xlink:href="#DejaVuSans-447" x="499.902344"/>
     <use xlink:href="#DejaVuSans-43d" x="558.984375"/>
     <use xlink:href="#DejaVuSans-44b" x="624.365234"/>
     <use xlink:href="#DejaVuSans-439" x="703.320312"/>
     <use xlink:href="#DejaVuSans-20" x="768.310547"/>
     <use xlink:href="#DejaVuSans-43f" x="800.097656"/>
     <use xlink:href="#DejaVuSans-443" x="865.478516"/>
     <use xlink:href="#DejaVuSans-442" x="924.658203"/>
     <use xlink:href="#DejaVuSans-44c" x="982.910156"/>
    </g>
   </g>
   <g id="legend_1">
    <g id="patch_7">
     <path d="M 122.2 173.345825 
L 248.2 173.345825 
Q 250.2 173.345825 250.2 171.345825 
L 250.2 84.1552 
Q 250.2 82.1552 248.2 82.1552 
L 122.2 82.1552 
Q 120.2 82.1552 120.2 84.1552 
L 120.2 171.345825 
Q 120.2 173.345825 122.2 173.345825 
z
" style="fill: #ffffff; opacity: 0.8; stroke: #cccccc; stroke-linejoin: miter"/>
    </g>
    <g id="line2d_43">
     <path d="M 124.2 90.253638 
L 134.2 90.253638 
L 144.2 90.253638 
" style="fill: none; stroke: #00ff00; stroke-width: 1.5; stroke-linecap: square"/>
    </g>
    <g id="text_22">
     <!-- $\mu=0.4$ легковые -->
     <g transform="translate(152.2 93.753638) scale(0.1 -0.1)">
      <defs>
       <path id="DejaVuSans-Oblique-3bc" d="M -84 -1331 
L 856 3500 
L 1434 3500 
L 1009 1322 
Q 997 1256 987 1175 
Q 978 1094 978 1013 
Q 978 722 1161 565 
Q 1344 409 1684 409 
Q 2147 409 2431 671 
Q 2716 934 2816 1459 
L 3213 3500 
L 3788 3500 
L 3266 809 
Q 3253 750 3248 706 
Q 3244 663 3244 628 
Q 3244 531 3283 486 
Q 3322 441 3406 441 
Q 3438 441 3492 456 
Q 3547 472 3647 513 
L 3559 50 
Q 3422 -19 3297 -55 
Q 3172 -91 3053 -91 
Q 2847 -91 2730 40 
Q 2613 172 2613 403 
Q 2438 153 2195 31 
Q 1953 -91 1625 -91 
Q 1334 -91 1117 43 
Q 900 178 831 397 
L 494 -1331 
L -84 -1331 
z
" transform="scale(0.015625)"/>
       <path id="DejaVuSans-3d" d="M 678 2906 
L 4684 2906 
L 4684 2381 
L 678 2381 
L 678 2906 
z
M 678 1631 
L 4684 1631 
L 4684 1100 
L 678 1100 
L 678 1631 
z
" transform="scale(0.015625)"/>
       <path id="DejaVuSans-2e" d="M 684 794 
L 1344 794 
L 1344 0 
L 684 0 
L 684 794 
z
" transform="scale(0.015625)"/>
       <path id="DejaVuSans-43b" d="M 238 0 
L 238 478 
Q 806 566 981 959 
Q 1194 1513 1194 2928 
L 1194 3500 
L 3559 3500 
L 3559 0 
L 2984 0 
L 2984 3041 
L 1769 3041 
L 1769 2694 
Q 1769 1344 1494 738 
Q 1200 91 238 0 
z
" transform="scale(0.015625)"/>
       <path id="DejaVuSans-435" d="M 3597 1894 
L 3597 1613 
L 953 1613 
Q 991 1019 1311 708 
Q 1631 397 2203 397 
Q 2534 397 2845 478 
Q 3156 559 3463 722 
L 3463 178 
Q 3153 47 2828 -22 
Q 2503 -91 2169 -91 
Q 1331 -91 842 396 
Q 353 884 353 1716 
Q 353 2575 817 3079 
Q 1281 3584 2069 3584 
Q 2775 3584 3186 3129 
Q 3597 2675 3597 1894 
z
M 3022 2063 
Q 3016 2534 2758 2815 
Q 2500 3097 2075 3097 
Q 1594 3097 1305 2825 
Q 1016 2553 972 2059 
L 3022 2063 
z
" transform="scale(0.015625)"/>
       <path id="DejaVuSans-433" d="M 581 0 
L 581 3500 
L 3050 3500 
L 3050 3041 
L 1159 3041 
L 1159 0 
L 581 0 
z
" transform="scale(0.015625)"/>
      </defs>
      <use xlink:href="#DejaVuSans-Oblique-3bc" transform="translate(0 0.78125)"/>
      <use xlink:href="#DejaVuSans-3d" transform="translate(83.105469 0.78125)"/>
      <use xlink:href="#DejaVuSans-30" transform="translate(186.376953 0.78125)"/>
      <use xlink:href="#DejaVuSans-2e" transform="translate(250 0.78125)"/>
      <use xlink:href="#DejaVuSans-34" transform="translate(281.787109 0.78125)"/>
      <use xlink:href="#DejaVuSans-20" transform="translate(345.410156 0.78125)"/>
      <use xlink:href="#DejaVuSans-43b" transform="translate(377.197266 0.78125)"/>
      <use xlink:href="#DejaVuSans-435" transform="translate(441.113281 0.78125)"/>
      <use xlink:href="#DejaVuSans-433" transform="translate(502.636719 0.78125)"/>
      <use xlink:href="#DejaVuSans-43a" transform="translate(555.175781 0.78125)"/>
      <use xlink:href="#DejaVuSans-43e" transform="translate(615.576172 0.78125)"/>
      <use xlink:href="#DejaVuSans-432" transform="translate(676.757812 0.78125)"/>
      <use xlink:href="#DejaVuSans-44b" transform="translate(735.693359 0.78125)"/>
      <use xlink:href="#DejaVuSans-435" transform="translate(814.648438 0.78125)"/>
     </g>
    </g>
    <g id="line2d_44">
     <path d="M 124.2 104.952075 
L 134.2 104.952075 
L 144.2 104.952075 
" style="fill: none; stroke: #00d400; stroke-width: 1.5; stroke-linecap: square"/>
    </g>
    <g id="text_23">
     <!-- $\mu=0.2$ легковые -->
     <g transform="translate(152.2 108.452075) scale(0.1 -0.1)">
      <use xlink:href="#DejaVuSans-Oblique-3bc" transform="translate(0 0.78125)"/>
      <use xlink:href="#DejaVuSans-3d" transform="translate(83.105469 0.78125)"/>
      <use xlink:href="#DejaVuSans-30" transform="translate(186.376953 0.78125)"/>
      <use xlink:href="#DejaVuSans-2e" transform="translate(250 0.78125)"/>
      <use xlink:href="#DejaVuSans-32" transform="translate(276.287109 0.78125)"/>
      <use xlink:href="#DejaVuSans-20" transform="translate(339.910156 0.78125)"/>
      <use xlink:href="#DejaVuSans-43b" transform="translate(371.697266 0.78125)"/>
      <use xlink:href="#DejaVuSans-435" transform="translate(435.613281 0.78125)"/>
      <use xlink:href="#DejaVuSans-433" transform="translate(497.136719 0.78125)"/>
      <use xlink:href="#DejaVuSans-43a" transform="translate(549.675781 0.78125)"/>
      <use xlink:href="#DejaVuSans-43e" transform="translate(610.076172 0.78125)"/>
      <use xlink:href="#DejaVuSans-432" transform="translate(671.257812 0.78125)"/>
      <use xlink:href="#DejaVuSans-44b" transform="translate(730.193359 0.78125)"/>
      <use xlink:href="#DejaVuSans-435" transform="translate(809.148438 0.78125)"/>
     </g>
    </g>
    <g id="line2d_45">
     <path d="M 124.2 119.650513 
L 134.2 119.650513 
L 144.2 119.650513 
" style="fill: none; stroke: #00aa00; stroke-width: 1.5; stroke-linecap: square"/>
    </g>
    <g id="text_24">
     <!-- $\mu=0.08$ легковые -->
     <g transform="translate(152.2 123.150513) scale(0.1 -0.1)">
      <use xlink:href="#DejaVuSans-Oblique-3bc" transform="translate(0 0.78125)"/>
      <use xlink:href="#DejaVuSans-3d" transform="translate(83.105469 0.78125)"/>
      <use xlink:href="#DejaVuSans-30" transform="translate(186.376953 0.78125)"/>
      <use xlink:href="#DejaVuSans-2e" transform="translate(250 0.78125)"/>
      <use xlink:href="#DejaVuSans-30" transform="translate(281.787109 0.78125)"/>
      <use xlink:href="#DejaVuSans-38" transform="translate(345.410156 0.78125)"/>
      <use xlink:href="#DejaVuSans-20" transform="translate(409.033203 0.78125)"/>
      <use xlink:href="#DejaVuSans-43b" transform="translate(440.820312 0.78125)"/>
      <use xlink:href="#DejaVuSans-435" transform="translate(504.736328 0.78125)"/>
      <use xlink:href="#DejaVuSans-433" transform="translate(566.259766 0.78125)"/>
      <use xlink:href="#DejaVuSans-43a" transform="translate(618.798828 0.78125)"/>
      <use xlink:href="#DejaVuSans-43e" transform="translate(679.199219 0.78125)"/>
      <use xlink:href="#DejaVuSans-432" transform="translate(740.380859 0.78125)"/>
      <use xlink:href="#DejaVuSans-44b" transform="translate(799.316406 0.78125)"/>
      <use xlink:href="#DejaVuSans-435" transform="translate(878.271484 0.78125)"/>
     </g>
    </g>
    <g id="line2d_46">
     <path d="M 124.2 134.34895 
L 134.2 134.34895 
L 144.2 134.34895 
" style="fill: none; stroke: #0000ff; stroke-width: 1.5; stroke-linecap: square"/>
    </g>
    <g id="text_25">
     <!-- $\mu=0.4$ грузовые -->
     <g transform="translate(152.2 137.84895) scale(0.1 -0.1)">
      <defs>
       <path id="DejaVuSans-440" d="M 1159 525 
L 1159 -1331 
L 581 -1331 
L 581 3500 
L 1159 3500 
L 1159 2969 
Q 1341 3281 1617 3432 
Q 1894 3584 2278 3584 
Q 2916 3584 3314 3078 
Q 3713 2572 3713 1747 
Q 3713 922 3314 415 
Q 2916 -91 2278 -91 
Q 1894 -91 1617 61 
Q 1341 213 1159 525 
z
M 3116 1747 
Q 3116 2381 2855 2742 
Q 2594 3103 2138 3103 
Q 1681 3103 1420 2742 
Q 1159 2381 1159 1747 
Q 1159 1113 1420 752 
Q 1681 391 2138 391 
Q 2594 391 2855 752 
Q 3116 1113 3116 1747 
z
" transform="scale(0.015625)"/>
       <path id="DejaVuSans-437" d="M 2206 1888 
Q 2594 1813 2809 1584 
Q 3025 1356 3025 1019 
Q 3025 478 2622 193 
Q 2219 -91 1475 -91 
Q 1225 -91 961 -47 
Q 697 -3 416 84 
L 416 619 
Q 638 503 903 445 
Q 1169 388 1459 388 
Q 1931 388 2195 563 
Q 2459 738 2459 1019 
Q 2459 1294 2225 1461 
Q 1991 1628 1563 1628 
L 1100 1628 
L 1100 2103 
L 1584 2103 
Q 1947 2103 2158 2242 
Q 2369 2381 2369 2600 
Q 2369 2800 2151 2944 
Q 1934 3088 1563 3088 
Q 1341 3088 1089 3047 
Q 838 3006 534 2916 
L 534 3438 
Q 841 3513 1106 3550 
Q 1372 3588 1609 3588 
Q 2222 3588 2576 3342 
Q 2931 3097 2931 2656 
Q 2931 2366 2743 2164 
Q 2556 1963 2206 1888 
z
" transform="scale(0.015625)"/>
      </defs>
      <use xlink:href="#DejaVuSans-Oblique-3bc" transform="translate(0 0.78125)"/>
      <use xlink:href="#DejaVuSans-3d" transform="translate(83.105469 0.78125)"/>
      <use xlink:href="#DejaVuSans-30" transform="translate(186.376953 0.78125)"/>
      <use xlink:href="#DejaVuSans-2e" transform="translate(250 0.78125)"/>
      <use xlink:href="#DejaVuSans-34" transform="translate(281.787109 0.78125)"/>
      <use xlink:href="#DejaVuSans-20" transform="translate(345.410156 0.78125)"/>
      <use xlink:href="#DejaVuSans-433" transform="translate(377.197266 0.78125)"/>
      <use xlink:href="#DejaVuSans-440" transform="translate(429.736328 0.78125)"/>
      <use xlink:href="#DejaVuSans-443" transform="translate(493.212891 0.78125)"/>
      <use xlink:href="#DejaVuSans-437" transform="translate(552.392578 0.78125)"/>
      <use xlink:href="#DejaVuSans-43e" transform="translate(605.566406 0.78125)"/>
      <use xlink:href="#DejaVuSans-432" transform="translate(666.748047 0.78125)"/>
      <use xlink:href="#DejaVuSans-44b" transform="translate(725.683594 0.78125)"/>
      <use xlink:href="#DejaVuSans-435" transform="translate(804.638672 0.78125)"/>
     </g>
    </g>
    <g id="line2d_47">
     <path d="M 124.2 149.047388 
L 134.2 149.047388 
L 144.2 149.047388 
" style="fill: none; stroke: #0000d4; stroke-width: 1.5; stroke-linecap: square"/>
    </g>
    <g id="text_26">
     <!-- $\mu=0.2$ грузовые -->
     <g transform="translate(152.2 152.547388) scale(0.1 -0.1)">
      <use xlink:href="#DejaVuSans-Oblique-3bc" transform="translate(0 0.78125)"/>
      <use xlink:href="#DejaVuSans-3d" transform="translate(83.105469 0.78125)"/>
      <use xlink:href="#DejaVuSans-30" transform="translate(186.376953 0.78125)"/>
      <use xlink:href="#DejaVuSans-2e" transform="translate(250 0.78125)"/>
      <use xlink:href="#DejaVuSans-32" transform="translate(276.287109 0.78125)"/>
      <use xlink:href="#DejaVuSans-20" transform="translate(339.910156 0.78125)"/>
      <use xlink:href="#DejaVuSans-433" transform="translate(371.697266 0.78125)"/>
      <use xlink:href="#DejaVuSans-440" transform="translate(424.236328 0.78125)"/>
      <use xlink:href="#DejaVuSans-443" transform="translate(487.712891 0.78125)"/>
      <use xlink:href="#DejaVuSans-437" transform="translate(546.892578 0.78125)"/>
      <use xlink:href="#DejaVuSans-43e" transform="translate(600.066406 0.78125)"/>
      <use xlink:href="#DejaVuSans-432" transform="translate(661.248047 0.78125)"/>
      <use xlink:href="#DejaVuSans-44b" transform="translate(720.183594 0.78125)"/>
      <use xlink:href="#DejaVuSans-435" transform="translate(799.138672 0.78125)"/>
     </g>
    </g>
    <g id="line2d_48">
     <path d="M 124.2 163.745825 
L 134.2 163.745825 
L 144.2 163.745825 
" style="fill: none; stroke: #0000aa; stroke-width: 1.5; stroke-linecap: square"/>
    </g>
    <g id="text_27">
     <!-- $\mu=0.08$ грузовые -->
     <g transform="translate(152.2 167.245825) scale(0.1 -0.1)">
      <use xlink:href="#DejaVuSans-Oblique-3bc" transform="translate(0 0.78125)"/>
      <use xlink:href="#DejaVuSans-3d" transform="translate(83.105469 0.78125)"/>
      <use xlink:href="#DejaVuSans-30" transform="translate(186.376953 0.78125)"/>
      <use xlink:href="#DejaVuSans-2e" transform="translate(250 0.78125)"/>
      <use xlink:href="#DejaVuSans-30" transform="translate(281.787109 0.78125)"/>
      <use xlink:href="#DejaVuSans-38" transform="translate(345.410156 0.78125)"/>
      <use xlink:href="#DejaVuSans-20" transform="translate(409.033203 0.78125)"/>
      <use xlink:href="#DejaVuSans-433" transform="translate(440.820312 0.78125)"/>
      <use xlink:href="#DejaVuSans-440" transform="translate(493.359375 0.78125)"/>
      <use xlink:href="#DejaVuSans-443" transform="translate(556.835938 0.78125)"/>
      <use xlink:href="#DejaVuSans-437" transform="translate(616.015625 0.78125)"/>
      <use xlink:href="#DejaVuSans-43e" transform="translate(669.189453 0.78125)"/>
      <use xlink:href="#DejaVuSans-432" transform="translate(730.371094 0.78125)"/>
      <use xlink:href="#DejaVuSans-44b" transform="translate(789.306641 0.78125)"/>
      <use xlink:href="#DejaVuSans-435" transform="translate(868.261719 0.78125)"/>
     </g>
    </g>
   </g>
  </g>
 </g>
 <defs>
  <clipPath id="p60da8139e4">
   <rect x="115.2" y="77.1552" width="714.24" height="495.0792"/>
  </clipPath>
 </defs>
</svg>
