<?xml version="1.0" encoding="utf-8" standalone="no"?>
<!DOCTYPE svg PUBLIC "-//W3C//DTD SVG 1.1//EN"
  "http://www.w3.org/Graphics/SVG/1.1/DTD/svg11.dtd">
<svg xmlns:xlink="http://www.w3.org/1999/xlink" width="921.6pt" height="642.96pt" viewBox="0 0 921.6 642.96" xmlns="http://www.w3.org/2000/svg" version="1.1">
 <metadata>
  <rdf:RDF xmlns:dc="http://purl.org/dc/elements/1.1/" xmlns:cc="http://creativecommons.org/ns#" xmlns:rdf="http://www.w3.org/1999/02/22-rdf-syntax-ns#">
   <cc:Work>
    <dc:type rdf:resource="http://purl.org/dc/dcmitype/StillImage"/>
    <dc:date>2024-12-18T18:26:53.228683</dc:date>
    <dc:format>image/svg+xml</dc:format>
    <dc:creator>
     <cc:Agent>
      <dc:title>Matplotlib v3.6.3, https://matplotlib.org/</dc:title>
     </cc:Agent>
    </dc:creator>
   </cc:Work>
  </rdf:RDF>
 </metadata>
 <defs>
  <style type="text/css">*{stroke-linejoin: round; stroke-linecap: butt}</style>
 </defs>
 <g id="figure_1">
  <g id="patch_1">
   <path d="M 0 642.96 
L 921.6 642.96 
L 921.6 0 
L 0 0 
z
" style="fill: #ffffff"/>
  </g>
  <g id="axes_1">
   <g id="patch_2">
    <path d="M 115.2 572.2344 
L 829.44 572.2344 
L 829.44 77.1552 
L 115.2 77.1552 
z
" style="fill: #ffffff"/>
   </g>
   <g id="matplotlib.axis_1">
    <g id="xtick_1">
     <g id="line2d_1">
      <path d="M 115.2 572.2344 
L 115.2 77.1552 
" clip-path="url(#pe77e99d987)" style="fill: none; stroke: #b0b0b0; stroke-width: 0.8; stroke-linecap: square"/>
     </g>
     <g id="line2d_2">
      <defs>
       <path id="mb57f23a239" d="M 0 0 
L 0 3.5 
" style="stroke: #000000; stroke-width: 0.8"/>
      </defs>
      <g>
       <use xlink:href="#mb57f23a239" x="115.2" y="572.2344" style="stroke: #000000; stroke-width: 0.8"/>
      </g>
     </g>
     <g id="text_1">
      <!-- 0 -->
      <g transform="translate(112.01875 586.832838) scale(0.1 -0.1)">
       <defs>
        <path id="DejaVuSans-30" d="M 2034 4250 
Q 1547 4250 1301 3770 
Q 1056 3291 1056 2328 
Q 1056 1369 1301 889 
Q 1547 409 2034 409 
Q 2525 409 2770 889 
Q 3016 1369 3016 2328 
Q 3016 3291 2770 3770 
Q 2525 4250 2034 4250 
z
M 2034 4750 
Q 2819 4750 3233 4129 
Q 3647 3509 3647 2328 
Q 3647 1150 3233 529 
Q 2819 -91 2034 -91 
Q 1250 -91 836 529 
Q 422 1150 422 2328 
Q 422 3509 836 4129 
Q 1250 4750 2034 4750 
z
" transform="scale(0.015625)"/>
       </defs>
       <use xlink:href="#DejaVuSans-30"/>
      </g>
     </g>
    </g>
    <g id="xtick_2">
     <g id="line2d_3">
      <path d="M 204.48 572.2344 
L 204.48 77.1552 
" clip-path="url(#pe77e99d987)" style="fill: none; stroke: #b0b0b0; stroke-width: 0.8; stroke-linecap: square"/>
     </g>
     <g id="line2d_4">
      <g>
       <use xlink:href="#mb57f23a239" x="204.48" y="572.2344" style="stroke: #000000; stroke-width: 0.8"/>
      </g>
     </g>
     <g id="text_2">
      <!-- 10 -->
      <g transform="translate(198.1175 586.832838) scale(0.1 -0.1)">
       <defs>
        <path id="DejaVuSans-31" d="M 794 531 
L 1825 531 
L 1825 4091 
L 703 3866 
L 703 4441 
L 1819 4666 
L 2450 4666 
L 2450 531 
L 3481 531 
L 3481 0 
L 794 0 
L 794 531 
z
" transform="scale(0.015625)"/>
       </defs>
       <use xlink:href="#DejaVuSans-31"/>
       <use xlink:href="#DejaVuSans-30" x="63.623047"/>
      </g>
     </g>
    </g>
    <g id="xtick_3">
     <g id="line2d_5">
      <path d="M 293.76 572.2344 
L 293.76 77.1552 
" clip-path="url(#pe77e99d987)" style="fill: none; stroke: #b0b0b0; stroke-width: 0.8; stroke-linecap: square"/>
     </g>
     <g id="line2d_6">
      <g>
       <use xlink:href="#mb57f23a239" x="293.76" y="572.2344" style="stroke: #000000; stroke-width: 0.8"/>
      </g>
     </g>
     <g id="text_3">
      <!-- 20 -->
      <g transform="translate(287.3975 586.832838) scale(0.1 -0.1)">
       <defs>
        <path id="DejaVuSans-32" d="M 1228 531 
L 3431 531 
L 3431 0 
L 469 0 
L 469 531 
Q 828 903 1448 1529 
Q 2069 2156 2228 2338 
Q 2531 2678 2651 2914 
Q 2772 3150 2772 3378 
Q 2772 3750 2511 3984 
Q 2250 4219 1831 4219 
Q 1534 4219 1204 4116 
Q 875 4013 500 3803 
L 500 4441 
Q 881 4594 1212 4672 
Q 1544 4750 1819 4750 
Q 2544 4750 2975 4387 
Q 3406 4025 3406 3419 
Q 3406 3131 3298 2873 
Q 3191 2616 2906 2266 
Q 2828 2175 2409 1742 
Q 1991 1309 1228 531 
z
" transform="scale(0.015625)"/>
       </defs>
       <use xlink:href="#DejaVuSans-32"/>
       <use xlink:href="#DejaVuSans-30" x="63.623047"/>
      </g>
     </g>
    </g>
    <g id="xtick_4">
     <g id="line2d_7">
      <path d="M 383.04 572.2344 
L 383.04 77.1552 
" clip-path="url(#pe77e99d987)" style="fill: none; stroke: #b0b0b0; stroke-width: 0.8; stroke-linecap: square"/>
     </g>
     <g id="line2d_8">
      <g>
       <use xlink:href="#mb57f23a239" x="383.04" y="572.2344" style="stroke: #000000; stroke-width: 0.8"/>
      </g>
     </g>
     <g id="text_4">
      <!-- 30 -->
      <g transform="translate(376.6775 586.832838) scale(0.1 -0.1)">
       <defs>
        <path id="DejaVuSans-33" d="M 2597 2516 
Q 3050 2419 3304 2112 
Q 3559 1806 3559 1356 
Q 3559 666 3084 287 
Q 2609 -91 1734 -91 
Q 1441 -91 1130 -33 
Q 819 25 488 141 
L 488 750 
Q 750 597 1062 519 
Q 1375 441 1716 441 
Q 2309 441 2620 675 
Q 2931 909 2931 1356 
Q 2931 1769 2642 2001 
Q 2353 2234 1838 2234 
L 1294 2234 
L 1294 2753 
L 1863 2753 
Q 2328 2753 2575 2939 
Q 2822 3125 2822 3475 
Q 2822 3834 2567 4026 
Q 2313 4219 1838 4219 
Q 1578 4219 1281 4162 
Q 984 4106 628 3988 
L 628 4550 
Q 988 4650 1302 4700 
Q 1616 4750 1894 4750 
Q 2613 4750 3031 4423 
Q 3450 4097 3450 3541 
Q 3450 3153 3228 2886 
Q 3006 2619 2597 2516 
z
" transform="scale(0.015625)"/>
       </defs>
       <use xlink:href="#DejaVuSans-33"/>
       <use xlink:href="#DejaVuSans-30" x="63.623047"/>
      </g>
     </g>
    </g>
    <g id="xtick_5">
     <g id="line2d_9">
      <path d="M 472.32 572.2344 
L 472.32 77.1552 
" clip-path="url(#pe77e99d987)" style="fill: none; stroke: #b0b0b0; stroke-width: 0.8; stroke-linecap: square"/>
     </g>
     <g id="line2d_10">
      <g>
       <use xlink:href="#mb57f23a239" x="472.32" y="572.2344" style="stroke: #000000; stroke-width: 0.8"/>
      </g>
     </g>
     <g id="text_5">
      <!-- 40 -->
      <g transform="translate(465.9575 586.832838) scale(0.1 -0.1)">
       <defs>
        <path id="DejaVuSans-34" d="M 2419 4116 
L 825 1625 
L 2419 1625 
L 2419 4116 
z
M 2253 4666 
L 3047 4666 
L 3047 1625 
L 3713 1625 
L 3713 1100 
L 3047 1100 
L 3047 0 
L 2419 0 
L 2419 1100 
L 313 1100 
L 313 1709 
L 2253 4666 
z
" transform="scale(0.015625)"/>
       </defs>
       <use xlink:href="#DejaVuSans-34"/>
       <use xlink:href="#DejaVuSans-30" x="63.623047"/>
      </g>
     </g>
    </g>
    <g id="xtick_6">
     <g id="line2d_11">
      <path d="M 561.6 572.2344 
L 561.6 77.1552 
" clip-path="url(#pe77e99d987)" style="fill: none; stroke: #b0b0b0; stroke-width: 0.8; stroke-linecap: square"/>
     </g>
     <g id="line2d_12">
      <g>
       <use xlink:href="#mb57f23a239" x="561.6" y="572.2344" style="stroke: #000000; stroke-width: 0.8"/>
      </g>
     </g>
     <g id="text_6">
      <!-- 50 -->
      <g transform="translate(555.2375 586.832838) scale(0.1 -0.1)">
       <defs>
        <path id="DejaVuSans-35" d="M 691 4666 
L 3169 4666 
L 3169 4134 
L 1269 4134 
L 1269 2991 
Q 1406 3038 1543 3061 
Q 1681 3084 1819 3084 
Q 2600 3084 3056 2656 
Q 3513 2228 3513 1497 
Q 3513 744 3044 326 
Q 2575 -91 1722 -91 
Q 1428 -91 1123 -41 
Q 819 9 494 109 
L 494 744 
Q 775 591 1075 516 
Q 1375 441 1709 441 
Q 2250 441 2565 725 
Q 2881 1009 2881 1497 
Q 2881 1984 2565 2268 
Q 2250 2553 1709 2553 
Q 1456 2553 1204 2497 
Q 953 2441 691 2322 
L 691 4666 
z
" transform="scale(0.015625)"/>
       </defs>
       <use xlink:href="#DejaVuSans-35"/>
       <use xlink:href="#DejaVuSans-30" x="63.623047"/>
      </g>
     </g>
    </g>
    <g id="xtick_7">
     <g id="line2d_13">
      <path d="M 650.88 572.2344 
L 650.88 77.1552 
" clip-path="url(#pe77e99d987)" style="fill: none; stroke: #b0b0b0; stroke-width: 0.8; stroke-linecap: square"/>
     </g>
     <g id="line2d_14">
      <g>
       <use xlink:href="#mb57f23a239" x="650.88" y="572.2344" style="stroke: #000000; stroke-width: 0.8"/>
      </g>
     </g>
     <g id="text_7">
      <!-- 60 -->
      <g transform="translate(644.5175 586.832838) scale(0.1 -0.1)">
       <defs>
        <path id="DejaVuSans-36" d="M 2113 2584 
Q 1688 2584 1439 2293 
Q 1191 2003 1191 1497 
Q 1191 994 1439 701 
Q 1688 409 2113 409 
Q 2538 409 2786 701 
Q 3034 994 3034 1497 
Q 3034 2003 2786 2293 
Q 2538 2584 2113 2584 
z
M 3366 4563 
L 3366 3988 
Q 3128 4100 2886 4159 
Q 2644 4219 2406 4219 
Q 1781 4219 1451 3797 
Q 1122 3375 1075 2522 
Q 1259 2794 1537 2939 
Q 1816 3084 2150 3084 
Q 2853 3084 3261 2657 
Q 3669 2231 3669 1497 
Q 3669 778 3244 343 
Q 2819 -91 2113 -91 
Q 1303 -91 875 529 
Q 447 1150 447 2328 
Q 447 3434 972 4092 
Q 1497 4750 2381 4750 
Q 2619 4750 2861 4703 
Q 3103 4656 3366 4563 
z
" transform="scale(0.015625)"/>
       </defs>
       <use xlink:href="#DejaVuSans-36"/>
       <use xlink:href="#DejaVuSans-30" x="63.623047"/>
      </g>
     </g>
    </g>
    <g id="xtick_8">
     <g id="line2d_15">
      <path d="M 740.16 572.2344 
L 740.16 77.1552 
" clip-path="url(#pe77e99d987)" style="fill: none; stroke: #b0b0b0; stroke-width: 0.8; stroke-linecap: square"/>
     </g>
     <g id="line2d_16">
      <g>
       <use xlink:href="#mb57f23a239" x="740.16" y="572.2344" style="stroke: #000000; stroke-width: 0.8"/>
      </g>
     </g>
     <g id="text_8">
      <!-- 70 -->
      <g transform="translate(733.7975 586.832838) scale(0.1 -0.1)">
       <defs>
        <path id="DejaVuSans-37" d="M 525 4666 
L 3525 4666 
L 3525 4397 
L 1831 0 
L 1172 0 
L 2766 4134 
L 525 4134 
L 525 4666 
z
" transform="scale(0.015625)"/>
       </defs>
       <use xlink:href="#DejaVuSans-37"/>
       <use xlink:href="#DejaVuSans-30" x="63.623047"/>
      </g>
     </g>
    </g>
    <g id="xtick_9">
     <g id="line2d_17">
      <path d="M 829.44 572.2344 
L 829.44 77.1552 
" clip-path="url(#pe77e99d987)" style="fill: none; stroke: #b0b0b0; stroke-width: 0.8; stroke-linecap: square"/>
     </g>
     <g id="line2d_18">
      <g>
       <use xlink:href="#mb57f23a239" x="829.44" y="572.2344" style="stroke: #000000; stroke-width: 0.8"/>
      </g>
     </g>
     <g id="text_9">
      <!-- 80 -->
      <g transform="translate(823.0775 586.832838) scale(0.1 -0.1)">
       <defs>
        <path id="DejaVuSans-38" d="M 2034 2216 
Q 1584 2216 1326 1975 
Q 1069 1734 1069 1313 
Q 1069 891 1326 650 
Q 1584 409 2034 409 
Q 2484 409 2743 651 
Q 3003 894 3003 1313 
Q 3003 1734 2745 1975 
Q 2488 2216 2034 2216 
z
M 1403 2484 
Q 997 2584 770 2862 
Q 544 3141 544 3541 
Q 544 4100 942 4425 
Q 1341 4750 2034 4750 
Q 2731 4750 3128 4425 
Q 3525 4100 3525 3541 
Q 3525 3141 3298 2862 
Q 3072 2584 2669 2484 
Q 3125 2378 3379 2068 
Q 3634 1759 3634 1313 
Q 3634 634 3220 271 
Q 2806 -91 2034 -91 
Q 1263 -91 848 271 
Q 434 634 434 1313 
Q 434 1759 690 2068 
Q 947 2378 1403 2484 
z
M 1172 3481 
Q 1172 3119 1398 2916 
Q 1625 2713 2034 2713 
Q 2441 2713 2670 2916 
Q 2900 3119 2900 3481 
Q 2900 3844 2670 4047 
Q 2441 4250 2034 4250 
Q 1625 4250 1398 4047 
Q 1172 3844 1172 3481 
z
" transform="scale(0.015625)"/>
       </defs>
       <use xlink:href="#DejaVuSans-38"/>
       <use xlink:href="#DejaVuSans-30" x="63.623047"/>
      </g>
     </g>
    </g>
    <g id="text_10">
     <!-- V, км/ч -->
     <g transform="translate(454.291094 600.510963) scale(0.1 -0.1)">
      <defs>
       <path id="DejaVuSans-56" d="M 1831 0 
L 50 4666 
L 709 4666 
L 2188 738 
L 3669 4666 
L 4325 4666 
L 2547 0 
L 1831 0 
z
" transform="scale(0.015625)"/>
       <path id="DejaVuSans-2c" d="M 750 794 
L 1409 794 
L 1409 256 
L 897 -744 
L 494 -744 
L 750 256 
L 750 794 
z
" transform="scale(0.015625)"/>
       <path id="DejaVuSans-20" transform="scale(0.015625)"/>
       <path id="DejaVuSans-43a" d="M 581 3500 
L 1153 3500 
L 1153 1856 
L 2775 3500 
L 3481 3500 
L 2144 2147 
L 3653 0 
L 3009 0 
L 1769 1766 
L 1153 1141 
L 1153 0 
L 581 0 
L 581 3500 
z
" transform="scale(0.015625)"/>
       <path id="DejaVuSans-43c" d="M 581 3500 
L 1422 3500 
L 2416 1156 
L 3413 3500 
L 4247 3500 
L 4247 0 
L 3669 0 
L 3669 2950 
L 2703 672 
L 2128 672 
L 1159 2950 
L 1159 0 
L 581 0 
L 581 3500 
z
" transform="scale(0.015625)"/>
       <path id="DejaVuSans-2f" d="M 1625 4666 
L 2156 4666 
L 531 -594 
L 0 -594 
L 1625 4666 
z
" transform="scale(0.015625)"/>
       <path id="DejaVuSans-447" d="M 2625 0 
L 2625 1472 
L 1553 1472 
Q 1075 1472 756 1769 
Q 469 2038 469 2613 
L 469 3500 
L 1044 3500 
L 1044 2666 
Q 1044 2300 1206 2116 
Q 1372 1931 1697 1931 
L 2625 1931 
L 2625 3500 
L 3200 3500 
L 3200 0 
L 2625 0 
z
" transform="scale(0.015625)"/>
      </defs>
      <use xlink:href="#DejaVuSans-56"/>
      <use xlink:href="#DejaVuSans-2c" x="68.408203"/>
      <use xlink:href="#DejaVuSans-20" x="100.195312"/>
      <use xlink:href="#DejaVuSans-43a" x="131.982422"/>
      <use xlink:href="#DejaVuSans-43c" x="192.382812"/>
      <use xlink:href="#DejaVuSans-2f" x="267.822266"/>
      <use xlink:href="#DejaVuSans-447" x="301.513672"/>
     </g>
    </g>
   </g>
   <g id="matplotlib.axis_2">
    <g id="ytick_1">
     <g id="line2d_19">
      <path d="M 115.2 572.2344 
L 829.44 572.2344 
" clip-path="url(#pe77e99d987)" style="fill: none; stroke: #b0b0b0; stroke-width: 0.8; stroke-linecap: square"/>
     </g>
     <g id="line2d_20">
      <defs>
       <path id="meba6c6fcdf" d="M 0 0 
L -3.5 0 
" style="stroke: #000000; stroke-width: 0.8"/>
      </defs>
      <g>
       <use xlink:href="#meba6c6fcdf" x="115.2" y="572.2344" style="stroke: #000000; stroke-width: 0.8"/>
      </g>
     </g>
     <g id="text_11">
      <!-- 2 -->
      <g transform="translate(101.8375 576.033619) scale(0.1 -0.1)">
       <use xlink:href="#DejaVuSans-32"/>
      </g>
     </g>
    </g>
    <g id="ytick_2">
     <g id="line2d_21">
      <path d="M 115.2 501.5088 
L 829.44 501.5088 
" clip-path="url(#pe77e99d987)" style="fill: none; stroke: #b0b0b0; stroke-width: 0.8; stroke-linecap: square"/>
     </g>
     <g id="line2d_22">
      <g>
       <use xlink:href="#meba6c6fcdf" x="115.2" y="501.5088" style="stroke: #000000; stroke-width: 0.8"/>
      </g>
     </g>
     <g id="text_12">
      <!-- 3 -->
      <g transform="translate(101.8375 505.308019) scale(0.1 -0.1)">
       <use xlink:href="#DejaVuSans-33"/>
      </g>
     </g>
    </g>
    <g id="ytick_3">
     <g id="line2d_23">
      <path d="M 115.2 430.7832 
L 829.44 430.7832 
" clip-path="url(#pe77e99d987)" style="fill: none; stroke: #b0b0b0; stroke-width: 0.8; stroke-linecap: square"/>
     </g>
     <g id="line2d_24">
      <g>
       <use xlink:href="#meba6c6fcdf" x="115.2" y="430.7832" style="stroke: #000000; stroke-width: 0.8"/>
      </g>
     </g>
     <g id="text_13">
      <!-- 4 -->
      <g transform="translate(101.8375 434.582419) scale(0.1 -0.1)">
       <use xlink:href="#DejaVuSans-34"/>
      </g>
     </g>
    </g>
    <g id="ytick_4">
     <g id="line2d_25">
      <path d="M 115.2 360.0576 
L 829.44 360.0576 
" clip-path="url(#pe77e99d987)" style="fill: none; stroke: #b0b0b0; stroke-width: 0.8; stroke-linecap: square"/>
     </g>
     <g id="line2d_26">
      <g>
       <use xlink:href="#meba6c6fcdf" x="115.2" y="360.0576" style="stroke: #000000; stroke-width: 0.8"/>
      </g>
     </g>
     <g id="text_14">
      <!-- 5 -->
      <g transform="translate(101.8375 363.856819) scale(0.1 -0.1)">
       <use xlink:href="#DejaVuSans-35"/>
      </g>
     </g>
    </g>
    <g id="ytick_5">
     <g id="line2d_27">
      <path d="M 115.2 289.332 
L 829.44 289.332 
" clip-path="url(#pe77e99d987)" style="fill: none; stroke: #b0b0b0; stroke-width: 0.8; stroke-linecap: square"/>
     </g>
     <g id="line2d_28">
      <g>
       <use xlink:href="#meba6c6fcdf" x="115.2" y="289.332" style="stroke: #000000; stroke-width: 0.8"/>
      </g>
     </g>
     <g id="text_15">
      <!-- 6 -->
      <g transform="translate(101.8375 293.131219) scale(0.1 -0.1)">
       <use xlink:href="#DejaVuSans-36"/>
      </g>
     </g>
    </g>
    <g id="ytick_6">
     <g id="line2d_29">
      <path d="M 115.2 218.6064 
L 829.44 218.6064 
" clip-path="url(#pe77e99d987)" style="fill: none; stroke: #b0b0b0; stroke-width: 0.8; stroke-linecap: square"/>
     </g>
     <g id="line2d_30">
      <g>
       <use xlink:href="#meba6c6fcdf" x="115.2" y="218.6064" style="stroke: #000000; stroke-width: 0.8"/>
      </g>
     </g>
     <g id="text_16">
      <!-- 7 -->
      <g transform="translate(101.8375 222.405619) scale(0.1 -0.1)">
       <use xlink:href="#DejaVuSans-37"/>
      </g>
     </g>
    </g>
    <g id="ytick_7">
     <g id="line2d_31">
      <path d="M 115.2 147.8808 
L 829.44 147.8808 
" clip-path="url(#pe77e99d987)" style="fill: none; stroke: #b0b0b0; stroke-width: 0.8; stroke-linecap: square"/>
     </g>
     <g id="line2d_32">
      <g>
       <use xlink:href="#meba6c6fcdf" x="115.2" y="147.8808" style="stroke: #000000; stroke-width: 0.8"/>
      </g>
     </g>
     <g id="text_17">
      <!-- 8 -->
      <g transform="translate(101.8375 151.680019) scale(0.1 -0.1)">
       <use xlink:href="#DejaVuSans-38"/>
      </g>
     </g>
    </g>
    <g id="ytick_8">
     <g id="line2d_33">
      <path d="M 115.2 77.1552 
L 829.44 77.1552 
" clip-path="url(#pe77e99d987)" style="fill: none; stroke: #b0b0b0; stroke-width: 0.8; stroke-linecap: square"/>
     </g>
     <g id="line2d_34">
      <g>
       <use xlink:href="#meba6c6fcdf" x="115.2" y="77.1552" style="stroke: #000000; stroke-width: 0.8"/>
      </g>
     </g>
     <g id="text_18">
      <!-- 9 -->
      <g transform="translate(101.8375 80.954419) scale(0.1 -0.1)">
       <defs>
        <path id="DejaVuSans-39" d="M 703 97 
L 703 672 
Q 941 559 1184 500 
Q 1428 441 1663 441 
Q 2288 441 2617 861 
Q 2947 1281 2994 2138 
Q 2813 1869 2534 1725 
Q 2256 1581 1919 1581 
Q 1219 1581 811 2004 
Q 403 2428 403 3163 
Q 403 3881 828 4315 
Q 1253 4750 1959 4750 
Q 2769 4750 3195 4129 
Q 3622 3509 3622 2328 
Q 3622 1225 3098 567 
Q 2575 -91 1691 -91 
Q 1453 -91 1209 -44 
Q 966 3 703 97 
z
M 1959 2075 
Q 2384 2075 2632 2365 
Q 2881 2656 2881 3163 
Q 2881 3666 2632 3958 
Q 2384 4250 1959 4250 
Q 1534 4250 1286 3958 
Q 1038 3666 1038 3163 
Q 1038 2656 1286 2365 
Q 1534 2075 1959 2075 
z
" transform="scale(0.015625)"/>
       </defs>
       <use xlink:href="#DejaVuSans-39"/>
      </g>
     </g>
    </g>
    <g id="text_19">
     <!-- t, c -->
     <g transform="translate(95.757812 332.5823) rotate(-90) scale(0.1 -0.1)">
      <defs>
       <path id="DejaVuSans-74" d="M 1172 4494 
L 1172 3500 
L 2356 3500 
L 2356 3053 
L 1172 3053 
L 1172 1153 
Q 1172 725 1289 603 
Q 1406 481 1766 481 
L 2356 481 
L 2356 0 
L 1766 0 
Q 1100 0 847 248 
Q 594 497 594 1153 
L 594 3053 
L 172 3053 
L 172 3500 
L 594 3500 
L 594 4494 
L 1172 4494 
z
" transform="scale(0.015625)"/>
       <path id="DejaVuSans-63" d="M 3122 3366 
L 3122 2828 
Q 2878 2963 2633 3030 
Q 2388 3097 2138 3097 
Q 1578 3097 1268 2742 
Q 959 2388 959 1747 
Q 959 1106 1268 751 
Q 1578 397 2138 397 
Q 2388 397 2633 464 
Q 2878 531 3122 666 
L 3122 134 
Q 2881 22 2623 -34 
Q 2366 -91 2075 -91 
Q 1284 -91 818 406 
Q 353 903 353 1747 
Q 353 2603 823 3093 
Q 1294 3584 2113 3584 
Q 2378 3584 2631 3529 
Q 2884 3475 3122 3366 
z
" transform="scale(0.015625)"/>
      </defs>
      <use xlink:href="#DejaVuSans-74"/>
      <use xlink:href="#DejaVuSans-2c" x="39.208984"/>
      <use xlink:href="#DejaVuSans-20" x="70.996094"/>
      <use xlink:href="#DejaVuSans-63" x="102.783203"/>
     </g>
    </g>
   </g>
   <g id="line2d_35">
    <path d="M 115.2 572.2344 
L 124.128 569.728533 
L 133.056 567.222665 
L 141.984 564.716798 
L 150.912 562.210931 
L 159.84 559.705063 
L 168.768 557.199196 
L 177.696 554.693329 
L 186.624 552.187461 
L 195.552 549.681594 
L 204.48 547.175727 
L 213.408 544.669859 
L 222.336 542.163992 
L 231.264 539.658124 
L 240.192 537.152257 
L 249.12 534.64639 
L 258.048 532.140522 
L 266.976 529.634655 
L 275.904 527.128788 
L 284.832 524.62292 
L 293.76 522.117053 
L 302.688 519.611186 
L 311.616 517.105318 
L 320.544 514.599451 
L 329.472 512.093584 
L 338.4 509.587716 
L 347.328 507.081849 
L 356.256 504.575982 
L 365.184 502.070114 
L 374.112 499.564247 
L 383.04 497.05838 
L 391.968 494.552512 
L 400.896 492.046645 
L 409.824 489.540778 
L 418.752 487.03491 
L 427.68 484.529043 
L 436.608 482.023176 
L 445.536 479.517308 
L 454.464 477.011441 
L 463.392 474.505573 
L 472.32 471.999706 
L 481.248 469.493839 
L 490.176 466.987971 
L 499.104 464.482104 
L 508.032 461.976237 
L 516.96 459.470369 
L 525.888 456.964502 
L 534.816 454.458635 
L 543.744 451.952767 
L 552.672 449.4469 
L 561.6 446.941033 
L 570.528 444.435165 
L 579.456 441.929298 
L 588.384 439.423431 
L 597.312 436.917563 
L 606.24 434.411696 
L 615.168 431.905829 
L 624.096 429.399961 
L 633.024 426.894094 
L 641.952 424.388227 
L 650.88 421.882359 
L 659.808 419.376492 
L 668.736 416.870624 
L 677.664 414.364757 
L 686.592 411.85889 
L 695.52 409.353022 
L 704.448 406.847155 
L 713.376 404.341288 
L 722.304 401.83542 
L 731.232 399.329553 
L 740.16 396.823686 
L 749.088 394.317818 
L 758.016 391.811951 
L 766.944 389.306084 
L 775.872 386.800216 
L 784.8 384.294349 
L 793.728 381.788482 
L 802.656 379.282614 
L 811.584 376.776747 
L 820.512 374.27088 
L 829.44 371.765012 
" clip-path="url(#pe77e99d987)" style="fill: none; stroke: #00ff00; stroke-width: 1.5; stroke-linecap: square"/>
   </g>
   <g id="line2d_36">
    <path d="M 115.2 572.2344 
L 124.128 567.222665 
L 133.056 562.210931 
L 141.984 557.199196 
L 150.912 552.187461 
L 159.84 547.175727 
L 168.768 542.163992 
L 177.696 537.152257 
L 186.624 532.140522 
L 195.552 527.128788 
L 204.48 522.117053 
L 213.408 517.105318 
L 222.336 512.093584 
L 231.264 507.081849 
L 240.192 502.070114 
L 249.12 497.05838 
L 258.048 492.046645 
L 266.976 487.03491 
L 275.904 482.023176 
L 284.832 477.011441 
L 293.76 471.999706 
L 302.688 466.987971 
L 311.616 461.976237 
L 320.544 456.964502 
L 329.472 451.952767 
L 338.4 446.941033 
L 347.328 441.929298 
L 356.256 436.917563 
L 365.184 431.905829 
L 374.112 426.894094 
L 383.04 421.882359 
L 391.968 416.870624 
L 400.896 411.85889 
L 409.824 406.847155 
L 418.752 401.83542 
L 427.68 396.823686 
L 436.608 391.811951 
L 445.536 386.800216 
L 454.464 381.788482 
L 463.392 376.776747 
L 472.32 371.765012 
L 481.248 366.753278 
L 490.176 361.741543 
L 499.104 356.729808 
L 508.032 351.718073 
L 516.96 346.706339 
L 525.888 341.694604 
L 534.816 336.682869 
L 543.744 331.671135 
L 552.672 326.6594 
L 561.6 321.647665 
L 570.528 316.635931 
L 579.456 311.624196 
L 588.384 306.612461 
L 597.312 301.600727 
L 606.24 296.588992 
L 615.168 291.577257 
L 624.096 286.565522 
L 633.024 281.553788 
L 641.952 276.542053 
L 650.88 271.530318 
L 659.808 266.518584 
L 668.736 261.506849 
L 677.664 256.495114 
L 686.592 251.48338 
L 695.52 246.471645 
L 704.448 241.45991 
L 713.376 236.448176 
L 722.304 231.436441 
L 731.232 226.424706 
L 740.16 221.412971 
L 749.088 216.401237 
L 758.016 211.389502 
L 766.944 206.377767 
L 775.872 201.366033 
L 784.8 196.354298 
L 793.728 191.342563 
L 802.656 186.330829 
L 811.584 181.319094 
L 820.512 176.307359 
L 829.44 171.295624 
" clip-path="url(#pe77e99d987)" style="fill: none; stroke: #00d400; stroke-width: 1.5; stroke-linecap: square"/>
   </g>
   <g id="line2d_37">
    <path d="M 115.2 572.2344 
L 124.128 559.705063 
L 133.056 547.175727 
L 141.984 534.64639 
L 150.912 522.117053 
L 159.84 509.587716 
L 168.768 497.05838 
L 177.696 484.529043 
L 186.624 471.999706 
L 195.552 459.470369 
L 204.48 446.941033 
L 213.408 434.411696 
L 222.336 421.882359 
L 231.264 409.353022 
L 240.192 396.823686 
L 249.12 384.294349 
L 258.048 371.765012 
L 266.976 359.235676 
L 275.904 346.706339 
L 284.832 334.177002 
L 293.76 321.647665 
L 302.688 309.118329 
L 311.616 296.588992 
L 320.544 284.059655 
L 329.472 271.530318 
L 338.4 259.000982 
L 347.328 246.471645 
L 356.256 233.942308 
L 365.184 221.412971 
L 374.112 208.883635 
L 383.04 196.354298 
L 391.968 183.824961 
L 400.896 171.295624 
L 409.824 158.766288 
L 418.752 146.236951 
L 427.68 133.707614 
L 436.608 121.178278 
L 445.536 108.648941 
L 454.464 96.119604 
L 463.392 83.590267 
L 472.32 71.060931 
L 481.248 58.531594 
L 490.176 46.002257 
L 499.104 33.47292 
L 508.032 20.943584 
L 516.96 8.414247 
L 523.668288 -1 
" clip-path="url(#pe77e99d987)" style="fill: none; stroke: #00aa00; stroke-width: 1.5; stroke-linecap: square"/>
   </g>
   <g id="line2d_38">
    <path d="M 115.2 536.8716 
L 124.128 534.365733 
L 133.056 531.859865 
L 141.984 529.353998 
L 150.912 526.848131 
L 159.84 524.342263 
L 168.768 521.836396 
L 177.696 519.330529 
L 186.624 516.824661 
L 195.552 514.318794 
L 204.48 511.812927 
L 213.408 509.307059 
L 222.336 506.801192 
L 231.264 504.295324 
L 240.192 501.789457 
L 249.12 499.28359 
L 258.048 496.777722 
L 266.976 494.271855 
L 275.904 491.765988 
L 284.832 489.26012 
L 293.76 486.754253 
L 302.688 484.248386 
L 311.616 481.742518 
L 320.544 479.236651 
L 329.472 476.730784 
L 338.4 474.224916 
L 347.328 471.719049 
L 356.256 469.213182 
L 365.184 466.707314 
L 374.112 464.201447 
L 383.04 461.69558 
L 391.968 459.189712 
L 400.896 456.683845 
L 409.824 454.177978 
L 418.752 451.67211 
L 427.68 449.166243 
L 436.608 446.660376 
L 445.536 444.154508 
L 454.464 441.648641 
L 463.392 439.142773 
L 472.32 436.636906 
L 481.248 434.131039 
L 490.176 431.625171 
L 499.104 429.119304 
L 508.032 426.613437 
L 516.96 424.107569 
L 525.888 421.601702 
L 534.816 419.095835 
L 543.744 416.589967 
L 552.672 414.0841 
L 561.6 411.578233 
L 570.528 409.072365 
L 579.456 406.566498 
L 588.384 404.060631 
L 597.312 401.554763 
L 606.24 399.048896 
L 615.168 396.543029 
L 624.096 394.037161 
L 633.024 391.531294 
L 641.952 389.025427 
L 650.88 386.519559 
L 659.808 384.013692 
L 668.736 381.507824 
L 677.664 379.001957 
L 686.592 376.49609 
L 695.52 373.990222 
L 704.448 371.484355 
L 713.376 368.978488 
L 722.304 366.47262 
L 731.232 363.966753 
L 740.16 361.460886 
L 749.088 358.955018 
L 758.016 356.449151 
L 766.944 353.943284 
L 775.872 351.437416 
L 784.8 348.931549 
L 793.728 346.425682 
L 802.656 343.919814 
L 811.584 341.413947 
L 820.512 338.90808 
L 829.44 336.402212 
" clip-path="url(#pe77e99d987)" style="fill: none; stroke: #0000ff; stroke-width: 1.5; stroke-linecap: square"/>
   </g>
   <g id="line2d_39">
    <path d="M 115.2 536.8716 
L 124.128 531.859865 
L 133.056 526.848131 
L 141.984 521.836396 
L 150.912 516.824661 
L 159.84 511.812927 
L 168.768 506.801192 
L 177.696 501.789457 
L 186.624 496.777722 
L 195.552 491.765988 
L 204.48 486.754253 
L 213.408 481.742518 
L 222.336 476.730784 
L 231.264 471.719049 
L 240.192 466.707314 
L 249.12 461.69558 
L 258.048 456.683845 
L 266.976 451.67211 
L 275.904 446.660376 
L 284.832 441.648641 
L 293.76 436.636906 
L 302.688 431.625171 
L 311.616 426.613437 
L 320.544 421.601702 
L 329.472 416.589967 
L 338.4 411.578233 
L 347.328 406.566498 
L 356.256 401.554763 
L 365.184 396.543029 
L 374.112 391.531294 
L 383.04 386.519559 
L 391.968 381.507824 
L 400.896 376.49609 
L 409.824 371.484355 
L 418.752 366.47262 
L 427.68 361.460886 
L 436.608 356.449151 
L 445.536 351.437416 
L 454.464 346.425682 
L 463.392 341.413947 
L 472.32 336.402212 
L 481.248 331.390478 
L 490.176 326.378743 
L 499.104 321.367008 
L 508.032 316.355273 
L 516.96 311.343539 
L 525.888 306.331804 
L 534.816 301.320069 
L 543.744 296.308335 
L 552.672 291.2966 
L 561.6 286.284865 
L 570.528 281.273131 
L 579.456 276.261396 
L 588.384 271.249661 
L 597.312 266.237927 
L 606.24 261.226192 
L 615.168 256.214457 
L 624.096 251.202722 
L 633.024 246.190988 
L 641.952 241.179253 
L 650.88 236.167518 
L 659.808 231.155784 
L 668.736 226.144049 
L 677.664 221.132314 
L 686.592 216.12058 
L 695.52 211.108845 
L 704.448 206.09711 
L 713.376 201.085376 
L 722.304 196.073641 
L 731.232 191.061906 
L 740.16 186.050171 
L 749.088 181.038437 
L 758.016 176.026702 
L 766.944 171.014967 
L 775.872 166.003233 
L 784.8 160.991498 
L 793.728 155.979763 
L 802.656 150.968029 
L 811.584 145.956294 
L 820.512 140.944559 
L 829.44 135.932824 
" clip-path="url(#pe77e99d987)" style="fill: none; stroke: #0000d4; stroke-width: 1.5; stroke-linecap: square"/>
   </g>
   <g id="line2d_40">
    <path d="M 115.2 536.8716 
L 124.128 524.342263 
L 133.056 511.812927 
L 141.984 499.28359 
L 150.912 486.754253 
L 159.84 474.224916 
L 168.768 461.69558 
L 177.696 449.166243 
L 186.624 436.636906 
L 195.552 424.107569 
L 204.48 411.578233 
L 213.408 399.048896 
L 222.336 386.519559 
L 231.264 373.990222 
L 240.192 361.460886 
L 249.12 348.931549 
L 258.048 336.402212 
L 266.976 323.872876 
L 275.904 311.343539 
L 284.832 298.814202 
L 293.76 286.284865 
L 302.688 273.755529 
L 311.616 261.226192 
L 320.544 248.696855 
L 329.472 236.167518 
L 338.4 223.638182 
L 347.328 211.108845 
L 356.256 198.579508 
L 365.184 186.050171 
L 374.112 173.520835 
L 383.04 160.991498 
L 391.968 148.462161 
L 400.896 135.932824 
L 409.824 123.403488 
L 418.752 110.874151 
L 427.68 98.344814 
L 436.608 85.815478 
L 445.536 73.286141 
L 454.464 60.756804 
L 463.392 48.227467 
L 472.32 35.698131 
L 481.248 23.168794 
L 490.176 10.639457 
L 498.469901 -1 
" clip-path="url(#pe77e99d987)" style="fill: none; stroke: #0000aa; stroke-width: 1.5; stroke-linecap: square"/>
   </g>
   <g id="patch_3">
    <path d="M 115.2 572.2344 
L 115.2 77.1552 
" style="fill: none; stroke: #000000; stroke-width: 0.8; stroke-linejoin: miter; stroke-linecap: square"/>
   </g>
   <g id="patch_4">
    <path d="M 829.44 572.2344 
L 829.44 77.1552 
" style="fill: none; stroke: #000000; stroke-width: 0.8; stroke-linejoin: miter; stroke-linecap: square"/>
   </g>
   <g id="patch_5">
    <path d="M 115.2 572.2344 
L 829.44 572.2344 
" style="fill: none; stroke: #000000; stroke-width: 0.8; stroke-linejoin: miter; stroke-linecap: square"/>
   </g>
   <g id="patch_6">
    <path d="M 115.2 77.1552 
L 829.44 77.1552 
" style="fill: none; stroke: #000000; stroke-width: 0.8; stroke-linejoin: miter; stroke-linecap: square"/>
   </g>
   <g id="text_20">
    <!-- Дистанция в секундах -->
    <g transform="translate(400.932187 71.1552) scale(0.12 -0.12)">
     <defs>
      <path id="DejaVuSans-414" d="M 1459 531 
L 3522 531 
L 3522 4134 
L 2006 4134 
L 2006 3472 
Q 2006 1913 1656 878 
Q 1584 666 1459 531 
z
M 538 531 
Q 956 728 1075 1103 
Q 1378 2066 1378 3784 
L 1378 4666 
L 4153 4666 
L 4153 531 
L 4684 531 
L 4684 -1003 
L 4153 -1003 
L 4153 0 
L 847 0 
L 847 -1003 
L 316 -1003 
L 316 531 
L 538 531 
z
" transform="scale(0.015625)"/>
      <path id="DejaVuSans-438" d="M 3578 3500 
L 3578 0 
L 3006 0 
L 3006 2809 
L 1319 0 
L 581 0 
L 581 3500 
L 1153 3500 
L 1153 697 
L 2838 3500 
L 3578 3500 
z
" transform="scale(0.015625)"/>
      <path id="DejaVuSans-441" d="M 3122 3366 
L 3122 2828 
Q 2878 2963 2633 3030 
Q 2388 3097 2138 3097 
Q 1578 3097 1268 2742 
Q 959 2388 959 1747 
Q 959 1106 1268 751 
Q 1578 397 2138 397 
Q 2388 397 2633 464 
Q 2878 531 3122 666 
L 3122 134 
Q 2881 22 2623 -34 
Q 2366 -91 2075 -91 
Q 1284 -91 818 406 
Q 353 903 353 1747 
Q 353 2603 823 3093 
Q 1294 3584 2113 3584 
Q 2378 3584 2631 3529 
Q 2884 3475 3122 3366 
z
" transform="scale(0.015625)"/>
      <path id="DejaVuSans-442" d="M 188 3500 
L 3541 3500 
L 3541 3041 
L 2147 3041 
L 2147 0 
L 1581 0 
L 1581 3041 
L 188 3041 
L 188 3500 
z
" transform="scale(0.015625)"/>
      <path id="DejaVuSans-430" d="M 2194 1759 
Q 1497 1759 1228 1600 
Q 959 1441 959 1056 
Q 959 750 1161 570 
Q 1363 391 1709 391 
Q 2188 391 2477 730 
Q 2766 1069 2766 1631 
L 2766 1759 
L 2194 1759 
z
M 3341 1997 
L 3341 0 
L 2766 0 
L 2766 531 
Q 2569 213 2275 61 
Q 1981 -91 1556 -91 
Q 1019 -91 701 211 
Q 384 513 384 1019 
Q 384 1609 779 1909 
Q 1175 2209 1959 2209 
L 2766 2209 
L 2766 2266 
Q 2766 2663 2505 2880 
Q 2244 3097 1772 3097 
Q 1472 3097 1187 3025 
Q 903 2953 641 2809 
L 641 3341 
Q 956 3463 1253 3523 
Q 1550 3584 1831 3584 
Q 2591 3584 2966 3190 
Q 3341 2797 3341 1997 
z
" transform="scale(0.015625)"/>
      <path id="DejaVuSans-43d" d="M 581 3500 
L 1159 3500 
L 1159 2072 
L 3025 2072 
L 3025 3500 
L 3603 3500 
L 3603 0 
L 3025 0 
L 3025 1613 
L 1159 1613 
L 1159 0 
L 581 0 
L 581 3500 
z
" transform="scale(0.015625)"/>
      <path id="DejaVuSans-446" d="M 3603 0 
L 581 0 
L 581 3500 
L 1159 3500 
L 1159 459 
L 3025 459 
L 3025 3500 
L 3603 3500 
L 3603 459 
L 4063 459 
L 4063 -884 
L 3603 -884 
L 3603 0 
z
" transform="scale(0.015625)"/>
      <path id="DejaVuSans-44f" d="M 1181 2491 
Q 1181 2231 1381 2084 
Q 1581 1938 1953 1938 
L 2728 1938 
L 2728 3041 
L 1953 3041 
Q 1581 3041 1381 2897 
Q 1181 2753 1181 2491 
z
M 363 0 
L 1431 1534 
Q 1069 1616 828 1830 
Q 588 2044 588 2491 
Q 588 2997 923 3248 
Q 1259 3500 1938 3500 
L 3306 3500 
L 3306 0 
L 2728 0 
L 2728 1478 
L 2013 1478 
L 981 0 
L 363 0 
z
" transform="scale(0.015625)"/>
      <path id="DejaVuSans-432" d="M 1156 1613 
L 1156 459 
L 1975 459 
Q 2369 459 2575 607 
Q 2781 756 2781 1038 
Q 2781 1319 2575 1466 
Q 2369 1613 1975 1613 
L 1156 1613 
z
M 1156 3041 
L 1156 2072 
L 1913 2072 
Q 2238 2072 2444 2201 
Q 2650 2331 2650 2563 
Q 2650 2794 2444 2917 
Q 2238 3041 1913 3041 
L 1156 3041 
z
M 581 3500 
L 1950 3500 
Q 2566 3500 2897 3275 
Q 3228 3050 3228 2634 
Q 3228 2313 3059 2123 
Q 2891 1934 2559 1888 
Q 2956 1813 3175 1575 
Q 3394 1338 3394 981 
Q 3394 513 3033 256 
Q 2672 0 2003 0 
L 581 0 
L 581 3500 
z
" transform="scale(0.015625)"/>
      <path id="DejaVuSans-435" d="M 3597 1894 
L 3597 1613 
L 953 1613 
Q 991 1019 1311 708 
Q 1631 397 2203 397 
Q 2534 397 2845 478 
Q 3156 559 3463 722 
L 3463 178 
Q 3153 47 2828 -22 
Q 2503 -91 2169 -91 
Q 1331 -91 842 396 
Q 353 884 353 1716 
Q 353 2575 817 3079 
Q 1281 3584 2069 3584 
Q 2775 3584 3186 3129 
Q 3597 2675 3597 1894 
z
M 3022 2063 
Q 3016 2534 2758 2815 
Q 2500 3097 2075 3097 
Q 1594 3097 1305 2825 
Q 1016 2553 972 2059 
L 3022 2063 
z
" transform="scale(0.015625)"/>
      <path id="DejaVuSans-443" d="M 2059 -325 
Q 1816 -950 1584 -1140 
Q 1353 -1331 966 -1331 
L 506 -1331 
L 506 -850 
L 844 -850 
Q 1081 -850 1212 -737 
Q 1344 -625 1503 -206 
L 1606 56 
L 191 3500 
L 800 3500 
L 1894 763 
L 2988 3500 
L 3597 3500 
L 2059 -325 
z
" transform="scale(0.015625)"/>
      <path id="DejaVuSans-434" d="M 1384 459 
L 3053 459 
L 3053 3041 
L 1844 3041 
L 1844 2603 
Q 1844 1316 1475 628 
L 1384 459 
z
M 550 459 
Q 834 584 959 850 
Q 1266 1509 1266 2838 
L 1266 3500 
L 3631 3500 
L 3631 459 
L 4091 459 
L 4091 -884 
L 3631 -884 
L 3631 0 
L 794 0 
L 794 -884 
L 334 -884 
L 334 459 
L 550 459 
z
" transform="scale(0.015625)"/>
      <path id="DejaVuSans-445" d="M 3513 3500 
L 2247 1797 
L 3578 0 
L 2900 0 
L 1881 1375 
L 863 0 
L 184 0 
L 1544 1831 
L 300 3500 
L 978 3500 
L 1906 2253 
L 2834 3500 
L 3513 3500 
z
" transform="scale(0.015625)"/>
     </defs>
     <use xlink:href="#DejaVuSans-414"/>
     <use xlink:href="#DejaVuSans-438" x="78.125"/>
     <use xlink:href="#DejaVuSans-441" x="143.115234"/>
     <use xlink:href="#DejaVuSans-442" x="198.095703"/>
     <use xlink:href="#DejaVuSans-430" x="256.347656"/>
     <use xlink:href="#DejaVuSans-43d" x="317.626953"/>
     <use xlink:href="#DejaVuSans-446" x="383.007812"/>
     <use xlink:href="#DejaVuSans-438" x="451.074219"/>
     <use xlink:href="#DejaVuSans-44f" x="516.064453"/>
     <use xlink:href="#DejaVuSans-20" x="576.220703"/>
     <use xlink:href="#DejaVuSans-432" x="608.007812"/>
     <use xlink:href="#DejaVuSans-20" x="666.943359"/>
     <use xlink:href="#DejaVuSans-441" x="698.730469"/>
     <use xlink:href="#DejaVuSans-435" x="753.710938"/>
     <use xlink:href="#DejaVuSans-43a" x="815.234375"/>
     <use xlink:href="#DejaVuSans-443" x="875.634766"/>
     <use xlink:href="#DejaVuSans-43d" x="934.814453"/>
     <use xlink:href="#DejaVuSans-434" x="1000.195312"/>
     <use xlink:href="#DejaVuSans-430" x="1069.335938"/>
     <use xlink:href="#DejaVuSans-445" x="1130.615234"/>
    </g>
   </g>
   <g id="legend_1">
    <g id="patch_7">
     <path d="M 122.2 173.345825 
L 248.2 173.345825 
Q 250.2 173.345825 250.2 171.345825 
L 250.2 84.1552 
Q 250.2 82.1552 248.2 82.1552 
L 122.2 82.1552 
Q 120.2 82.1552 120.2 84.1552 
L 120.2 171.345825 
Q 120.2 173.345825 122.2 173.345825 
z
" style="fill: #ffffff; opacity: 0.8; stroke: #cccccc; stroke-linejoin: miter"/>
    </g>
    <g id="line2d_41">
     <path d="M 124.2 90.253638 
L 134.2 90.253638 
L 144.2 90.253638 
" style="fill: none; stroke: #00ff00; stroke-width: 1.5; stroke-linecap: square"/>
    </g>
    <g id="text_21">
     <!-- $\mu=0.4$ легковые -->
     <g transform="translate(152.2 93.753638) scale(0.1 -0.1)">
      <defs>
       <path id="DejaVuSans-Oblique-3bc" d="M -84 -1331 
L 856 3500 
L 1434 3500 
L 1009 1322 
Q 997 1256 987 1175 
Q 978 1094 978 1013 
Q 978 722 1161 565 
Q 1344 409 1684 409 
Q 2147 409 2431 671 
Q 2716 934 2816 1459 
L 3213 3500 
L 3788 3500 
L 3266 809 
Q 3253 750 3248 706 
Q 3244 663 3244 628 
Q 3244 531 3283 486 
Q 3322 441 3406 441 
Q 3438 441 3492 456 
Q 3547 472 3647 513 
L 3559 50 
Q 3422 -19 3297 -55 
Q 3172 -91 3053 -91 
Q 2847 -91 2730 40 
Q 2613 172 2613 403 
Q 2438 153 2195 31 
Q 1953 -91 1625 -91 
Q 1334 -91 1117 43 
Q 900 178 831 397 
L 494 -1331 
L -84 -1331 
z
" transform="scale(0.015625)"/>
       <path id="DejaVuSans-3d" d="M 678 2906 
L 4684 2906 
L 4684 2381 
L 678 2381 
L 678 2906 
z
M 678 1631 
L 4684 1631 
L 4684 1100 
L 678 1100 
L 678 1631 
z
" transform="scale(0.015625)"/>
       <path id="DejaVuSans-2e" d="M 684 794 
L 1344 794 
L 1344 0 
L 684 0 
L 684 794 
z
" transform="scale(0.015625)"/>
       <path id="DejaVuSans-43b" d="M 238 0 
L 238 478 
Q 806 566 981 959 
Q 1194 1513 1194 2928 
L 1194 3500 
L 3559 3500 
L 3559 0 
L 2984 0 
L 2984 3041 
L 1769 3041 
L 1769 2694 
Q 1769 1344 1494 738 
Q 1200 91 238 0 
z
" transform="scale(0.015625)"/>
       <path id="DejaVuSans-433" d="M 581 0 
L 581 3500 
L 3050 3500 
L 3050 3041 
L 1159 3041 
L 1159 0 
L 581 0 
z
" transform="scale(0.015625)"/>
       <path id="DejaVuSans-43e" d="M 1959 3097 
Q 1497 3097 1228 2736 
Q 959 2375 959 1747 
Q 959 1119 1226 758 
Q 1494 397 1959 397 
Q 2419 397 2687 759 
Q 2956 1122 2956 1747 
Q 2956 2369 2687 2733 
Q 2419 3097 1959 3097 
z
M 1959 3584 
Q 2709 3584 3137 3096 
Q 3566 2609 3566 1747 
Q 3566 888 3137 398 
Q 2709 -91 1959 -91 
Q 1206 -91 779 398 
Q 353 888 353 1747 
Q 353 2609 779 3096 
Q 1206 3584 1959 3584 
z
" transform="scale(0.015625)"/>
       <path id="DejaVuSans-44b" d="M 3909 3500 
L 4484 3500 
L 4484 0 
L 3909 0 
L 3909 3500 
z
M 4197 3584 
L 4197 3584 
z
M 2781 1038 
Q 2781 1319 2576 1466 
Q 2372 1613 1978 1613 
L 1159 1613 
L 1159 459 
L 1978 459 
Q 2372 459 2576 607 
Q 2781 756 2781 1038 
z
M 581 3500 
L 1159 3500 
L 1159 2072 
L 2003 2072 
Q 2672 2072 3033 1817 
Q 3394 1563 3394 1038 
Q 3394 513 3033 256 
Q 2672 0 2003 0 
L 581 0 
L 581 3500 
z
" transform="scale(0.015625)"/>
      </defs>
      <use xlink:href="#DejaVuSans-Oblique-3bc" transform="translate(0 0.78125)"/>
      <use xlink:href="#DejaVuSans-3d" transform="translate(83.105469 0.78125)"/>
      <use xlink:href="#DejaVuSans-30" transform="translate(186.376953 0.78125)"/>
      <use xlink:href="#DejaVuSans-2e" transform="translate(250 0.78125)"/>
      <use xlink:href="#DejaVuSans-34" transform="translate(281.787109 0.78125)"/>
      <use xlink:href="#DejaVuSans-20" transform="translate(345.410156 0.78125)"/>
      <use xlink:href="#DejaVuSans-43b" transform="translate(377.197266 0.78125)"/>
      <use xlink:href="#DejaVuSans-435" transform="translate(441.113281 0.78125)"/>
      <use xlink:href="#DejaVuSans-433" transform="translate(502.636719 0.78125)"/>
      <use xlink:href="#DejaVuSans-43a" transform="translate(555.175781 0.78125)"/>
      <use xlink:href="#DejaVuSans-43e" transform="translate(615.576172 0.78125)"/>
      <use xlink:href="#DejaVuSans-432" transform="translate(676.757812 0.78125)"/>
      <use xlink:href="#DejaVuSans-44b" transform="translate(735.693359 0.78125)"/>
      <use xlink:href="#DejaVuSans-435" transform="translate(814.648438 0.78125)"/>
     </g>
    </g>
    <g id="line2d_42">
     <path d="M 124.2 104.952075 
L 134.2 104.952075 
L 144.2 104.952075 
" style="fill: none; stroke: #00d400; stroke-width: 1.5; stroke-linecap: square"/>
    </g>
    <g id="text_22">
     <!-- $\mu=0.2$ легковые -->
     <g transform="translate(152.2 108.452075) scale(0.1 -0.1)">
      <use xlink:href="#DejaVuSans-Oblique-3bc" transform="translate(0 0.78125)"/>
      <use xlink:href="#DejaVuSans-3d" transform="translate(83.105469 0.78125)"/>
      <use xlink:href="#DejaVuSans-30" transform="translate(186.376953 0.78125)"/>
      <use xlink:href="#DejaVuSans-2e" transform="translate(250 0.78125)"/>
      <use xlink:href="#DejaVuSans-32" transform="translate(276.287109 0.78125)"/>
      <use xlink:href="#DejaVuSans-20" transform="translate(339.910156 0.78125)"/>
      <use xlink:href="#DejaVuSans-43b" transform="translate(371.697266 0.78125)"/>
      <use xlink:href="#DejaVuSans-435" transform="translate(435.613281 0.78125)"/>
      <use xlink:href="#DejaVuSans-433" transform="translate(497.136719 0.78125)"/>
      <use xlink:href="#DejaVuSans-43a" transform="translate(549.675781 0.78125)"/>
      <use xlink:href="#DejaVuSans-43e" transform="translate(610.076172 0.78125)"/>
      <use xlink:href="#DejaVuSans-432" transform="translate(671.257812 0.78125)"/>
      <use xlink:href="#DejaVuSans-44b" transform="translate(730.193359 0.78125)"/>
      <use xlink:href="#DejaVuSans-435" transform="translate(809.148438 0.78125)"/>
     </g>
    </g>
    <g id="line2d_43">
     <path d="M 124.2 119.650513 
L 134.2 119.650513 
L 144.2 119.650513 
" style="fill: none; stroke: #00aa00; stroke-width: 1.5; stroke-linecap: square"/>
    </g>
    <g id="text_23">
     <!-- $\mu=0.08$ легковые -->
     <g transform="translate(152.2 123.150513) scale(0.1 -0.1)">
      <use xlink:href="#DejaVuSans-Oblique-3bc" transform="translate(0 0.78125)"/>
      <use xlink:href="#DejaVuSans-3d" transform="translate(83.105469 0.78125)"/>
      <use xlink:href="#DejaVuSans-30" transform="translate(186.376953 0.78125)"/>
      <use xlink:href="#DejaVuSans-2e" transform="translate(250 0.78125)"/>
      <use xlink:href="#DejaVuSans-30" transform="translate(281.787109 0.78125)"/>
      <use xlink:href="#DejaVuSans-38" transform="translate(345.410156 0.78125)"/>
      <use xlink:href="#DejaVuSans-20" transform="translate(409.033203 0.78125)"/>
      <use xlink:href="#DejaVuSans-43b" transform="translate(440.820312 0.78125)"/>
      <use xlink:href="#DejaVuSans-435" transform="translate(504.736328 0.78125)"/>
      <use xlink:href="#DejaVuSans-433" transform="translate(566.259766 0.78125)"/>
      <use xlink:href="#DejaVuSans-43a" transform="translate(618.798828 0.78125)"/>
      <use xlink:href="#DejaVuSans-43e" transform="translate(679.199219 0.78125)"/>
      <use xlink:href="#DejaVuSans-432" transform="translate(740.380859 0.78125)"/>
      <use xlink:href="#DejaVuSans-44b" transform="translate(799.316406 0.78125)"/>
      <use xlink:href="#DejaVuSans-435" transform="translate(878.271484 0.78125)"/>
     </g>
    </g>
    <g id="line2d_44">
     <path d="M 124.2 134.34895 
L 134.2 134.34895 
L 144.2 134.34895 
" style="fill: none; stroke: #0000ff; stroke-width: 1.5; stroke-linecap: square"/>
    </g>
    <g id="text_24">
     <!-- $\mu=0.4$ грузовые -->
     <g transform="translate(152.2 137.84895) scale(0.1 -0.1)">
      <defs>
       <path id="DejaVuSans-440" d="M 1159 525 
L 1159 -1331 
L 581 -1331 
L 581 3500 
L 1159 3500 
L 1159 2969 
Q 1341 3281 1617 3432 
Q 1894 3584 2278 3584 
Q 2916 3584 3314 3078 
Q 3713 2572 3713 1747 
Q 3713 922 3314 415 
Q 2916 -91 2278 -91 
Q 1894 -91 1617 61 
Q 1341 213 1159 525 
z
M 3116 1747 
Q 3116 2381 2855 2742 
Q 2594 3103 2138 3103 
Q 1681 3103 1420 2742 
Q 1159 2381 1159 1747 
Q 1159 1113 1420 752 
Q 1681 391 2138 391 
Q 2594 391 2855 752 
Q 3116 1113 3116 1747 
z
" transform="scale(0.015625)"/>
       <path id="DejaVuSans-437" d="M 2206 1888 
Q 2594 1813 2809 1584 
Q 3025 1356 3025 1019 
Q 3025 478 2622 193 
Q 2219 -91 1475 -91 
Q 1225 -91 961 -47 
Q 697 -3 416 84 
L 416 619 
Q 638 503 903 445 
Q 1169 388 1459 388 
Q 1931 388 2195 563 
Q 2459 738 2459 1019 
Q 2459 1294 2225 1461 
Q 1991 1628 1563 1628 
L 1100 1628 
L 1100 2103 
L 1584 2103 
Q 1947 2103 2158 2242 
Q 2369 2381 2369 2600 
Q 2369 2800 2151 2944 
Q 1934 3088 1563 3088 
Q 1341 3088 1089 3047 
Q 838 3006 534 2916 
L 534 3438 
Q 841 3513 1106 3550 
Q 1372 3588 1609 3588 
Q 2222 3588 2576 3342 
Q 2931 3097 2931 2656 
Q 2931 2366 2743 2164 
Q 2556 1963 2206 1888 
z
" transform="scale(0.015625)"/>
      </defs>
      <use xlink:href="#DejaVuSans-Oblique-3bc" transform="translate(0 0.78125)"/>
      <use xlink:href="#DejaVuSans-3d" transform="translate(83.105469 0.78125)"/>
      <use xlink:href="#DejaVuSans-30" transform="translate(186.376953 0.78125)"/>
      <use xlink:href="#DejaVuSans-2e" transform="translate(250 0.78125)"/>
      <use xlink:href="#DejaVuSans-34" transform="translate(281.787109 0.78125)"/>
      <use xlink:href="#DejaVuSans-20" transform="translate(345.410156 0.78125)"/>
      <use xlink:href="#DejaVuSans-433" transform="translate(377.197266 0.78125)"/>
      <use xlink:href="#DejaVuSans-440" transform="translate(429.736328 0.78125)"/>
      <use xlink:href="#DejaVuSans-443" transform="translate(493.212891 0.78125)"/>
      <use xlink:href="#DejaVuSans-437" transform="translate(552.392578 0.78125)"/>
      <use xlink:href="#DejaVuSans-43e" transform="translate(605.566406 0.78125)"/>
      <use xlink:href="#DejaVuSans-432" transform="translate(666.748047 0.78125)"/>
      <use xlink:href="#DejaVuSans-44b" transform="translate(725.683594 0.78125)"/>
      <use xlink:href="#DejaVuSans-435" transform="translate(804.638672 0.78125)"/>
     </g>
    </g>
    <g id="line2d_45">
     <path d="M 124.2 149.047388 
L 134.2 149.047388 
L 144.2 149.047388 
" style="fill: none; stroke: #0000d4; stroke-width: 1.5; stroke-linecap: square"/>
    </g>
    <g id="text_25">
     <!-- $\mu=0.2$ грузовые -->
     <g transform="translate(152.2 152.547388) scale(0.1 -0.1)">
      <use xlink:href="#DejaVuSans-Oblique-3bc" transform="translate(0 0.78125)"/>
      <use xlink:href="#DejaVuSans-3d" transform="translate(83.105469 0.78125)"/>
      <use xlink:href="#DejaVuSans-30" transform="translate(186.376953 0.78125)"/>
      <use xlink:href="#DejaVuSans-2e" transform="translate(250 0.78125)"/>
      <use xlink:href="#DejaVuSans-32" transform="translate(276.287109 0.78125)"/>
      <use xlink:href="#DejaVuSans-20" transform="translate(339.910156 0.78125)"/>
      <use xlink:href="#DejaVuSans-433" transform="translate(371.697266 0.78125)"/>
      <use xlink:href="#DejaVuSans-440" transform="translate(424.236328 0.78125)"/>
      <use xlink:href="#DejaVuSans-443" transform="translate(487.712891 0.78125)"/>
      <use xlink:href="#DejaVuSans-437" transform="translate(546.892578 0.78125)"/>
      <use xlink:href="#DejaVuSans-43e" transform="translate(600.066406 0.78125)"/>
      <use xlink:href="#DejaVuSans-432" transform="translate(661.248047 0.78125)"/>
      <use xlink:href="#DejaVuSans-44b" transform="translate(720.183594 0.78125)"/>
      <use xlink:href="#DejaVuSans-435" transform="translate(799.138672 0.78125)"/>
     </g>
    </g>
    <g id="line2d_46">
     <path d="M 124.2 163.745825 
L 134.2 163.745825 
L 144.2 163.745825 
" style="fill: none; stroke: #0000aa; stroke-width: 1.5; stroke-linecap: square"/>
    </g>
    <g id="text_26">
     <!-- $\mu=0.08$ грузовые -->
     <g transform="translate(152.2 167.245825) scale(0.1 -0.1)">
      <use xlink:href="#DejaVuSans-Oblique-3bc" transform="translate(0 0.78125)"/>
      <use xlink:href="#DejaVuSans-3d" transform="translate(83.105469 0.78125)"/>
      <use xlink:href="#DejaVuSans-30" transform="translate(186.376953 0.78125)"/>
      <use xlink:href="#DejaVuSans-2e" transform="translate(250 0.78125)"/>
      <use xlink:href="#DejaVuSans-30" transform="translate(281.787109 0.78125)"/>
      <use xlink:href="#DejaVuSans-38" transform="translate(345.410156 0.78125)"/>
      <use xlink:href="#DejaVuSans-20" transform="translate(409.033203 0.78125)"/>
      <use xlink:href="#DejaVuSans-433" transform="translate(440.820312 0.78125)"/>
      <use xlink:href="#DejaVuSans-440" transform="translate(493.359375 0.78125)"/>
      <use xlink:href="#DejaVuSans-443" transform="translate(556.835938 0.78125)"/>
      <use xlink:href="#DejaVuSans-437" transform="translate(616.015625 0.78125)"/>
      <use xlink:href="#DejaVuSans-43e" transform="translate(669.189453 0.78125)"/>
      <use xlink:href="#DejaVuSans-432" transform="translate(730.371094 0.78125)"/>
      <use xlink:href="#DejaVuSans-44b" transform="translate(789.306641 0.78125)"/>
      <use xlink:href="#DejaVuSans-435" transform="translate(868.261719 0.78125)"/>
     </g>
    </g>
   </g>
  </g>
 </g>
 <defs>
  <clipPath id="pe77e99d987">
   <rect x="115.2" y="77.1552" width="714.24" height="495.0792"/>
  </clipPath>
 </defs>
</svg>
